<mxfile host="65bd71144e">
    <diagram id="hqRUPYnb981qdgj2nrA5" name="Page-1">
        <mxGraphModel dx="2536" dy="2103" grid="1" gridSize="10" guides="1" tooltips="1" connect="1" arrows="1" fold="1" page="1" pageScale="1" pageWidth="850" pageHeight="1100" math="0" shadow="0">
            <root>
                <mxCell id="0"/>
                <mxCell id="1" parent="0"/>
                <mxCell id="43" style="edgeStyle=orthogonalEdgeStyle;html=1;exitX=0;exitY=0.75;exitDx=0;exitDy=0;entryX=1;entryY=0.75;entryDx=0;entryDy=0;curved=1;" edge="1" parent="1" source="2" target="3">
                    <mxGeometry relative="1" as="geometry"/>
                </mxCell>
                <mxCell id="47" style="edgeStyle=orthogonalEdgeStyle;html=1;exitX=0;exitY=1;exitDx=0;exitDy=0;entryX=0.75;entryY=0;entryDx=0;entryDy=0;curved=1;" edge="1" parent="1" source="2" target="13">
                    <mxGeometry relative="1" as="geometry"/>
                </mxCell>
                <mxCell id="2" value="プラットフォーム" style="swimlane;whiteSpace=wrap;html=1;" vertex="1" parent="1">
                    <mxGeometry x="610" y="-20" width="700" height="390" as="geometry"/>
                </mxCell>
                <mxCell id="41" value="" style="shape=image;imageAspect=0;aspect=fixed;verticalLabelPosition=bottom;verticalAlign=top;image=data:image/png,iVBORw0KGgoAAAANSUhEUgAAAtsAAAHgCAYAAAB0JaFbAAAAAXNSR0IArs4c6QAAAARnQU1BAACxjwv8YQUAAAAJcEhZcwAADsMAAA7DAcdvqGQAAP+lSURBVHhe7P15uDTJVd6LvpFVe9eevqFbEgIEAkkgISQGIxvJgMAYYzFJxj6Y+3B8HmNA6lZr6G5JGKSWWkO3Wt0c21Jr7kEYzvG99mPO9QTYBtlMBpvJ+HB8DcbCgKQWIDR1f+Meqirj/rHWilgRGZmVVbuGrNrx+77cVRnjihWRmW9GRWWZL/yLf8NiyZg4YKNZw9auoclni9xBmUxmk1m6LMlMy1p30fKNL+KARWHUtvmsYWvX0OTNR3dK7qBMJnNWiM95+bzXOda6e5Zv+MLF9nKbs0qW33mnYq0PlE0k7pDcKZlMJuOJz4/5PNkp1rZLlmP4wsT24k3vAsvppLmxZuZuLrojcodkMpnM7MTn0nw+XTlr2xWLM3yuYntxZnaJNWvlmpm7eegOyB2RyWQyiyc+5+bz7spY226Yr9FzEdvzM6erzNfpC2fNzN0c4rNK7oBMJpPpBvG5OZ+fV8Jauv/0Bs8sttfSX1OxRi3M548VEDs9Oz5TJR4heaMtk+kG8cjMo3OprJ3bZzd4arE9WzXrxJq0cPY+z8yEdnh2+lkj7v22WyZN7Kdpt0xmccSjLY+4pbB27p7O4NZiu32R68h0TlsZa2Lm+qMdnR2+icS9O2nLdIu4f5q2TOb05FG1VNbO1ZMNnii2m7OvM5Od0wnWxMz1Rjs5O3rdiXsztWXODnHf122ZTHvy6Fkaa+fqtKFJsb1W7ZqaNWjZZndAB1i7ozejiHsv3jKZWYjHUbxlMvXEoyWPmIWxNi4ODQ3E9lrYPxNr0DtrYOL6op2bHdx14t6Kt0xmFcTjMN4ymZA8QhbO2rjXkNheC1unZg16YQ1MXE/ySa7rxD2Ueyuz7sTjOI/pTEgeFQul424tOmzbjHTc41gPE9eLfBLrKnHP5B7KnEXi8Z+PhUweCQuioy5NrtlePzrqXc0amLg+5JNU14h7JPdMJtOO+JjJx85ZJY+AudMhd6652O6IF+voUEevN/kk1CXi3sg9ksnMn/gYy8faWSP3/FxZsSvXUGyv2GOT6Lh560N2ZBeIT/e5NzKZ1RIfj/m4PCvkHp8bK3DjGontJXtmGlbQcZtHPpGsmrgHci9kMutDfOzm43fTyT09F5bkxjUQ20vwwqx02LTuky8LqyT2fu6BTGbziI/xfKxvKrmH58IC3ddRsd3hQdNh07pPdt4qiE/D2fuZzNkmPh/kc8KmkXv3VCzAdR0T23Nu3bxYgOPPBvmAXwXZ65lMZlri80Y+d2wSuVdnZk6u64DYnlNLFkFHzeo2He7PDUV7PHs9k8nMi/jcks8vm0Du0Zk5hctWKLZPYfUiyWNwBrLTlkk+VWYymVURn3/yOWjdyT05NTO4bAVie0oLl0VHzeom+VS7TLK3M5lMl4nPUfk8ta7kHpyalu5aothuadEyyeNqCrKzloX2dPb2hhF3bt78ltko4u7NXbxu5N6bigmuWrDYnlD7quigSd2ko/23YeRT2hoRd9a0W6ae2FfTbJm1IHfbOpN7rjUJNy1IbCdqWjV5nLQkO2oZZC93BN0RbbZMN4n7adKW6QRxt+SuWRdyj7VCuWnOYruDzu+gSd0jHziLJl9Qlkzs8LotczaJx0Fqy6yE3A3rRu6tNsxJbHfQ0R00qVvkA2TRZA8vEO3c1JbJnJZ4TMVbZilkt68TuafqOKXY7phTcz9PIDtokeSLwhyJnRlvmcyqicdkvGUWQuzm7OqukntIM4PY7qADO2ZOt+hgf20Q2bunQDsv3jKZdSce03l8L4zs3q6Te2cKsd1BR3XQpG6QB/aiyCf1GYidlp2XOevEx0I+LuZKdmmXOZs900Jsd8wpZ7OfWpAdsyiyZ1uiHZWdlsnMRnz85OPo1GRXdpWz0ysNYrtjDuiYOd3g7AzUZZM9OwHtoOyoTGbxxMdbPu5mJruwi2x2jyTEdsca2zFzukF2yiLY7EN9RuKrUnZQR4g7pItbZinEbs/un5rstq6xeT2ixHbHGtYxc1bP5g2+LpC9GqEdkp1ySmJnznNbB2KbT7tlpiJ2X3ZjK7K7usZm9ETRqYbkER6RHTJv8olUETvjzDukjthJbbfMfIn922bLVIhdlN3USHZVV1jvXkgsI1kB6+u/BZEdMk/W+xCdI/mqwcSOmLRl1pe4L+u2M07sjuyWWrJ7usD69cJqxfZ6+WrBrN/g6TJn3pvaAWfKEXGjU1smExOPkdR2BoldcEbdUEd2TRdYD++vRmyvh2+WQD5M58mZ9uaZOevHDY23TGZRxGMt3s4IcbPPUNMnkd2ySrrt+eWK7e76YclkR8yLbh9eC2Rjz+pxw+Itk+kq8Vg9Q+M2bu4ZaHIbsjtWRfc8vxyx3a02r4judf66ciY9qRu9EQ2PG7QxDctkEsTj/AyM+biZG9zUNmQ3rIpueH2xYrsbbVwx2Qnz4EyeqDai0boRG9GgTGbOxMfGBh8nG968tmQ3rILVenwxYnt17ekIq+3UTeJMeXGtz8Cx8WvZiEymY8TH04YdV3GzNqhp03DGm78Clu/t+Yrt5dvfMc68A+bCmTrxrGVjtdFrZ3wmswHEx98GHYcb2KRpOMNNXwHL8/Z8xPZybO0oy+usTebMeFE3tPONjY1dC6MzmTNMfKxuwDEbN2XNmzMNZ7DJK2Sxnj6d2F6sbR3nTDd+LpyZE8naNFQb2nljM5lMa+Jje82P7w1qSlvOYJNXxGI8PJvYXowta8KZbvypORMni7U5K66NoZlMZu7Ex/8anwc2oAnTcsaauwLm6+HpxPb86l0z5uv0s8jGe6/zQ0Qb2GlDM5nMSonPE2t4rlhz86flDDV1RZzeu+3E9unrWVPObMPnwkafADp/Mu+8gZlMZm2Izydrdk5ZY9On5Yw0c0XM7tlmsT17uWvOmW34qdnoA73zjeu8gZlMZmPQ55s1O++sqdnTcgaauCKm92xabE9XxgZxZht+KqYfdmtEpxunjeukgZlM5kwRn5PW5Ly0hiZPywY3bcW082wottvl2TA2/AhbIBvrtc4OCW1Y54zLZDKZBPF5aw3OXWtk6rRscNNWTLNXSWw3p9lQzmSjT83GHqidbVhnDctkMpkZ0ee1jp/b1sjUadnQZq2YtEeLRNiGk3ZEppmN81pnT6CdNSyTyWQWRHze6/C5bw1MnIUNbdYKCT2aXrO9keRhNC0bd/B1tkGdNSyTyWRWhD4vdvTcuAYmzsIGNmnFmLMgtvOQmZaN8lgnzxobeobOZDKZhbEG582OmzcLG9aclbHBYjsPkWnYqHNEJxvTSaMymUxmTdHn1A6eVztu3rRsUFNWwgaK7TwcpmFjvNXJM0EnjcpkMpkNRJ9vO3jO7bBp07JBTVkaGyS2c9e3ZWMOlM41RBvUGaMyMxL3Zt5m2zKZ1dDhkdhRs2ZhQ5qxcNZcbG/QiF0CG+GpznV55ww68+geOc2WmQ+xX9tsmcz86ego66BJs7AhzVgYayq2c5dOw0Z4q1ONyKeVZaE93XbLrD9xn6a2TOZ0dHBEdcycWdmAJsydNRPbuQvbshHHbKca0SljNgLt0botk6kjHit5zGROR8dGUcfMmYUNaMLcWCOxnburDWs/sDt1dHbKmLVEezDeMplFEI+zPNYy09OxEdQhU2Zlzc0/NWsgts96F7Vjrb3UmRNJx06wa0bsvezBTFfI4zJzOjo0ejpkyiysufkz02GxfRa7YzrWetB2xvjOGLJWaK9l7y2T2Otd2daL9bU8s3o6NPY7YsasrLHpU9NBsX2W3D8ba+2hThi/5meoFXE2vaZb3YWtq8R2znNbLMurKbOZdGQEdcSMWVhTs6eiQ2L7LLj7dKythzpxEuiEEWvH+nlNWzyPrQVxlrylt5mJC2raTsf8SsqcTToygjpixrSsqdmt6IDY3lTXzo+19dDKDd/kQ3dxrN5r2oJpt0TQordMO2K/zbo1EidunbHCbLkyGeF0429udMCEWVhDkxtZodjeNFfOn7X0UCcO7JUbsJYs1mt6YNRsRrZq1FRbZrOJ+7tuqxAnSCaq0D5lJtPEdONuIay4+llYQ5OTrEBsb4rrFkMHDsfp6YTRnTBiLZmP17T/1TaNgM5k5kk8vpJjbGICx+QUmUxb2o25hbHi6mdhDU0OWLLYXlc3LZ61HEQrN3rdD7/VMrvntN8niOlMpktMHJ+NkUBjTCYzC5PH3EJZcfWzsGbmAssT2+vomuWwdp5Z+YG5cgPWnum9p3yeEtaZzLrSOJaTgUBjTCZzGmoH43JYYdWzsE7mLlhsr5MrlsvaeWalBq/4BLRBtPcg+zsW1xuGblreFrutBUljk4FAbWgmMw9WePSssOpZWAdTFyS216Hpq2HtPLMyg9fsaF8D2nmSfb5g1+veXeWWWR6x7+e5zZ1kwcnAREgmM28WOtqbWVG1s9BlUxcgtrva1NXS5UFQYYXH9Qor3ljaeZRTtUvs0ENlmi2TmSfx+KrbpiaZsRpYSZLJLIzq+FsKpzqQlksXzTRP+Zr/xcaBs9G1pnWDtfLKyoxdWcUbz2TPcorJCQFOduuLvzcO7hAtG8IkUycDM2uLBVIXuXd94MeT4bUkE4eBySSZzMJZ0chbUbXT0gUz5yC285UpxVp5ZSXGrqTSM0WzhyeL7Ft/4O+gLG1wqmpI3sBsuTKZxWJhLb/yGH/vj/+/40RVklfMLLozXWFFo29F1U7Lqsw8hdjOF9AUa+OVlRm6sorPFM1ebhbar/z+74UBYAqDwhgUqXSpsExmnbCAJbWN0lrY0qIsLUpYFMbg3T/2j+IcnuRV0wcmozOZpbOCkbiCKmdh2WbOKLbzlTZmbTyyEkNXUumZpt7j9UL7thf/HQBArzAwRoQ2ban0Z5Hshm4z/cXMwloW2Sy4x7ZEObYobYmiMHjXP6yZ7a6tjCJqozOZpbOC0biCKmdhWWZOKbbzpSZmbTyyEkNXUumZp97rTUL7+9ArgMIU6PUMisKgQAFTAEVDvkxmfaHF3NaS0C6tCO8S43GJcUnvrbV494//f+LMRO3VMwvuTFdZwahcQZXTsmgTW4rtfJWNWRuPLN3QpVeYUdR7Py2YX/PS70dZ0sfm/V6BojDoGXqVGW1Df+KsmRnJfpyeFhep6eFCrcxuu6UkJca8lWWJ0ahEaUu8+8f/cVwCUWtcFtyZLrOCkbmCKqdlUSa2ENv50qBZC2+sxMiVVJpR1PdAWmgbAK+66fvQKwr0ewV6BYvswsCYAoUW2vWFz8Sci8tkpsYCgKXZbZnVJtFdohyXGFlLr+Mxz3TPIrjBcj6T6TJLHqFLrm5aFmFeg9jOl8OYzntkJQaupNJMgnRPpIU2ALz6pu9Dr1egr8S2MSy2CwMDo35AUk9t15wyNo6E0zJrSP14tZb+WFjYkmRxWZa0rIRnt0ejMUZlifGoxNiWePePZcGd2VSWPEqXXN20zNO8GrGdLzKazntj6QYuvcLMBNI9MkFoFwb9fg9bRYGiV6Dg5SP05UjAGBLbYNG9cPjJEADCqXQdrmkySvI0pdFY2z7t1NTYD6Q7Zybq6phX+XXoeudRV107NPOox48RWkZCa7etWkoigns0LjEejzEclxiPR4AB7v/RhOCeYLrUlsmsB0seq0uubhrmYVoktud0EtsQOu+NpRu49AozLUj3igqNErzm5u9za7S3ej1aOtLrBU8hEaEtYjtRTESd6Ko7TbVJswqaW5nZJFj+itDmtdvyCEBrec12SWJ7xEtKRqMx3vlj/yQujJgwlLPgzqwfSx6vS65uGk5jmhLb+SIjdN4TSzdw6RVmpiDdOxyaiHzNzX/HCe1+r4eiKNDrFSSy9cx2zYy2UYHynGKkq1ofksYnA095ym2irr6YedUv9dWVl7KnLm1bFlXmpDIS9dbNbPOjAG1JX4wcl5bFNs9uj0YYl/aUgjt8l8msB0scs0usalpmMc085Wu+a5Z8G0nidNwtlmrgUivLzEi6lzg0Efmam78XhSmw1Seh3Sv4i5E9g6JgwW3ATyIxMLqYRHmtsafMPw3xGS2uN45HIs0SWWHVNbSxKOXE+bHY0hWWxDbU7DbNavNSEvd0kjEtJRmVGE6a3cbkBoTRExJnMp1jiWN2iVVNyzSmZbHNtLm8rIylGrfUyjKnpNpbKqQaidfc9L3o93vY7vXoy5G9HkxhSHDzzLZbRsJl6JnsmPqYFpwqcw2tzmapRGzMNDaliomR8nTaaeqoo03dglHp51G3kLIh1V7NpPrr8mmaykjlr0vPQtt9SdJtoCeSyJKSsYhtWkZyMhphNBrDFAZv/0Bi7TZq7IioJqmGZDLdZoljdolVTUsb04o44KxhGs7FK2epxi21sswcqPaWCqlGAgAKQxtNXPtZbFmf7TaEaSSd/Hx7YYCiAIze4jImbTLq4nAdl9qa0sZxyS0M0G2s1JUqO95v2iRdk5/ieurKb4qr2+L64jqkrFTYLNuk/JPio00yxOHJra7chnbJeKZ9PxYKY1AEeYzzZc8YFAUwHo3jw8tj4oA2iJWZzLqgj64Fs6RqZqGNaWd2ZnuSY1bKUo1bamWZOZHuNRWaSPCDN38vjAG2ej1s9/turbY8X1tmtd0SEhGheu12otwKwRmlYUo1ETQXKme0SkACNsbUJF+UrXOlwddrSdwRLdoVZxHqsvJMNj36L1yzXdqSfr69LGFLed72GMPRmJaSDMe4/8f/aVxiSJ09THN0c2wm002WNG6XVM201Jl15ma2TcN5d+Us1bilVpZZOKova7q1HI9heHYb8LN7gh4RwYyg8bOybla7aSv8Zvi53TrMbS6PF/n1W1365vrFhrpNfsQnsCm2M7A13mI7Y5viuNQWlzlpq8tftx9vcXlttriM05Q1qVwfJ//i8OrGcXG/Bf1XzeNvKOVYoCPAGLo46mNEv9YcYlPTXI47AuOITKbDLGnMLqmaaakz60yJ7ZQDOkFd78ydfPLeBKq9Vw1JYzmlBYyF4XtwA5sWEIbSS1wBFqnxPxGvwT/O44RMVej6zYua+q0ufVxWtKmlM6mtkl7lC7Y43m2xnXHaOM5vFRta1BmKzlBEhmkkXbwfh4V567Zqnb6sqn3TbHF53G41fgoT+6PqSxfX4Lt0Hn4vQ94dI+owiN5T+YAxdXNYiriwBC2SqJozmXVhSWN2SdVMS2zWmRDbcaM7w9IMW1pFmaUT9WtDN5O4ZoFAzzrzP/5C3xLjlCTEDWVyZTqB6GaMo1nfYH0wKZiKCKrZYsEVb3H61hvXrwMDARanj/JNTBfYXi8gU5sWem3rlH6opK2U68N1n8j7mLieeHPpgvIi++vi1ZYijqdyYtvDeiq+DPKFvovTVvJwpdo8uRGVYyIlwms/L46pZDwNgdWZzBqwpPG6pGqmxZ2H4ohNoqO+X6JhS6sosyTC3pyuby0tTg2FtfyYRyQu9NtYeMQaPdTtUraaRW9UJWGZdZsut92my+cZeuexVLo4vP0mvtBlhvb7p1z49nCOSt5JW50/YuLwOL8mLqt+q+atF9Ex6bb68Gp8TNqOtD+q5TfSVHelAOlEi1d9/3dHcbPR0oUR4ajOZLrNksbqkqqZlo0V2x309RIHwdIqyqyMWfs3Fg4e/QM1sb6g2trXWV+LRlJVBVKYhsLqUkhcNaQaWqWp1LaEQpr8mCpXtSUQ3TrNJAGVyt9EbENMU1yaVN0iuEM/hBunULn8fn18Hd7nzaQTUD7yjX/fgqhbbDlbvhQtkjQwadxkMl1hSeN0SdW0ZePEdsf8SyzNqKVVlFkBE3t2YoIQlhqVMDQUlRI3qZnNapBk1AXUjVeyTKdNVOuwNaXMjzo7NVWb62mbrg5fl8yYt2WatB5pf70P2pU7KdGk+Bjtx3rbYtrZGmGQOFYsTGrw19EiaYskLZjcX5nM6lnSOF1CFW3YGLHdEX9WWYpRnW19ZiFM39eSI9YZtLpV79ftVMVGsM62lUlx7e2REZ4a6fH+fNFrh1O1n4aU6PZCuj3TCe7pqF/nXZ21djE126JJGMnU2yrZ6vOC84fNoDf606BWNFezAOqOmkymSyxhjC6hiiY2Qmyv0H/1LKVjl1JJpgP4Xq7p75pgzVQfl88ACbIWhqwNJDSDkFnauDiXK5orqQrNNgI4bH/si5CKGp2Bxgpa0raM+NaxCv2Mu6TT30FYLG1bMD1yvZAtk+kaSxibS6gixVqL7RX5rJmlGLWUSjKdYsl9XltVG7FRmznBpPKW3G5HVWgLUwvuKZKehrpJ1ulF9iS0sJ5HeZrYWdL/cbgmrn9SWkrfmKrisznSVDHTIskcaOPbTGYVLGFcLrj4mLUV20v202SWMDaWVEmmY8RLPWYlKRLVrl9/2lQfxdUJ0fnSppI2aabBPzJvE/CicTZRrEXnoj8Z8Wjn6/qaOkXS1bWzLrwZ7b7pczfQ1BSmRZI5YtSWyXSFBY/JBRevWTuxvUTftGMpBi2lkkwnadHvLZIsl0myRAujJibFS8Pn5YB2InsponPG4kUc+2Ujs4lMTbgEpYWDpia2L7Xfph118bbhHGoqZdf3bxsbpiBlTkSLJAtAfFXns0xm2Sx4HC5hqK+V2F6wL6ZnKQYtpZJMJ5nXnHaCWkHRNeYscE5BKGAXTOuOV6KIX2wQrEXTtFsdcbpZt9WjV263/rIjpzPuzyk4bf6l0K0+y5xVljAGF1jFWojtBbZ/NpZi0FIqyXSWln3fMlkzJB5qtUZdeMTShCgQNXwxdYq4pk1E/2LqIuLOlHNA09ZwqliYudoXqS0iNtltNT8PWXuDcBoStiVMbU1Dc6dmQtMmRC+ZefVHJjMrSxh/Cyi+82J7AW2enSX08ZIqyXQa6v/FjAKvDpx+DINpZwpdMtuMb5u0i/FAE1pgz1dRCVqsyDP19DEf7UfJg6QSn2IuJrdoe4sk8yN2Qt22KMKybTVodiaUMyF6RSzL75lMigWPuzkX31mxPed2np6FG9O5FmeWzpRjYIqkAVPmS814L37GV4xsY2ybNG3QbUm1R/ontTGpbHXFoSG8zVCYFH8q9A1XbCRXHAc3EHur0fS25cYFuoIn1pCkMYeLjB46njo4ZqXRgInRHaBV72Yyc2bBY25OxXdSbM+hXfNjTo6uZ+EVZNaCcAwsYkTEuqD6ZcBoRlsUteE4SdMoSGdFX6grhi2J2IZ4q4P9FrtI3k9LvKpi2k26rBWpvlTvXVSiIclKfKC2KYWzVW2papLUFQpdcVPtzVGCThIkN/x9iupBdDomFDchukNM6v1MZt4seLydsuhOie0Fu2o6Fm7MwivIrAUzjoMpsjQmrUSS2pn8kx/zRP9Kow6fl/qqQ3w/qQ+a7CChnZKslSx1opVpYwnQWISL80kqVinicJU2bpP7E5UXGExvWrUB1Tpia1LEPZbaqhmSMQDAX0HmuFrhnAiXH7uJ72DnQaI6zYToDlLbO5nMAljgODvFMO6M2J7R/sWwcGMWXkFmLUiPg3TonDHuj9pfEBMUVVrjJBIG1BSmqURHFU29BCZO54V2E801RDFJXzBxQfH7YIK9KXFqvxmLJnfRFWia65C1cL/Q6BfJp7YEQSVSq689aYcb75UYlasO71F5I+8XobWBCeZMju4wYV9lMothwWNshuJXLrZnsHlxLNyYhVeQWQvqx0E6NKJVovkzU7UsRuql00ylMpxX3Fn5smFcaWiMrcS3QQnBFkJbCFupynD7EVJFnDRGxfkkKqAuXxMN7XLh7s10IhuQvN5/zsyg0mlLrTbWxI/OdDs+dFINYXupDvcz7pbfL4oJLmiIWhMSx2smM1cWPL6mKHqlYnsKOxfPQo1ZcIdn1ogujIN6G0g6+L9pKTHbeDbuzyzoC3PL+oNkYXpplxd5uqXS8sgDUXDaN1VqTKgUr8PoRf+tJhV8XCJVbeU1vqyrRGEhWZSYbdkl0jZ+G0cx6YLSoYk2Ayq1sjFIljI4VU6IhUzEc70Lm9pWxGYqUq1YTxJjMZOZGwscWy2LXpnYbmHbcmjpqNlZaOGZtWHyQGuOZVolmoFFaQa216j3nppfbHSJ1VZxnxJZ2naXJsofRtYgAiqh4Vr6J2V61fawGvkTVpuuXN5V0yYMjOtsxCdOlBRQKVYCOGOQXyeOCo7L0fux61xcnKkl6Wx1LY0aYumP+5RhFaTGkKIhag2p9HomMycWOKYmDNmli+0J9iyXhRrSqZZmVsYcx8GcikmSKjsQGzrBlKqjzgWpsKkhO+QJHAY1v5MSZ2Mq4XGzGpoa5zVBYFx7aIUukrWcqoxjg7r9js9bZ1xcZ2wpkYq16aSO5HcN2YyKNUHB6j1AkVE/VcqNieMrFTYQ+FEwSa8GqGBpO73ExiyJhmobotaY1CjNZE7DgsdTTdFLFds1Niyfhfp6oYVn1obpxkH7lPMjOatch+WZvblQeeyIY2IV6WxppAva5JlGuKlygyrcH7+OOWlCoh6bCq9khDI0TtyGyflUE4Kt+qQY2gmtmVx+GMsFJtsZoeO5GldWc5UKSdg2A6dzTlFMsneRNPirJnhD0IMykzktCxxLiaKXIrYT9a6OhRqy0MIza8N046BV6laJJqOLaSeeJwuoVrQsItXM9Cx1KuX0tGldmzSaiZZxAvp6nf+SXWpWWerWW5s4VOyIc/qQOF9MwqxEzZNKqUuRLn0SFdvThVfa6k3VNicyx0HGLyOR7O2OnwXiD4Y2wRtGeDbIZGZngWNIFb1wsb3AZkzHQo/LhRaeWRvWZRzUf7svtn5hH5fX1A/wj5to4n3HbLalihPppSWYEPRqXKVExuERcZlIzoq3I2VjCMVOl8a/m8IUR2hTVLMbbpMtn672qA1B0S3qsgieJtIknimOBDc9haSEtSXGZRknXT41LqsJ3kBaHoSZTC0LHD9c9ELF9oJMn56FGrLQwjNrwewHaqtcrRK1wz3SOBAjcQW070N5P042DYm8iSAgkEhKTNUKobpSFDpvbTkR0qXxphAPNhVZja+3tz5mAr5TG22pUt8CsaWNTSn3uj4LhHacSpimthhfuqszAZWc+qJtGhvf8bndEoBFWVqUZYlyPG5T3OKpaVciaMOpcUQm04rFjZ+FiO3FmTslCzVkoYVn1oLTjYFWOVslaosXVk471IgTQNVtMAelrTci+XSHimGUyHJ6Wz8p30jUat5LPCe5ZZe2scGnkYamGpyi2YhKTLJv4npSaZqJc7S1nvBPV2kH1dbc8hhJGXo6WSnr7NQ41Omrs9v0PG2ABl7JM9vUOBLcnSLhwETQGSDRz5lMa+Y/buYutudv4owszJB8AGdOPwZa5W6VaAYqgmIaUhexVJiOi/HCkzULaZnULKhLKgnU5iJV2kkoc+hHT+L1HLHFTW0jfEwqTYNR7rEp9fkkJraiYlFDGZ4wTcKDc6FdeWGqSnti22oLDXPGZQTETz+pQDW6NfRxdASJ8I6SaGS6zWcBccbZ9UBmFuY7ZuYqtudn1imYr38iFlZwZm1Y7zFgYZIyYrZWtTvYkprSKSkRODoiRJLGm05azdWAvvayTdGuSpimmp7e1edoJi5HU7XJ1xynjveVtyqh86JaZ4i3NPRYkgnRTYa7rJPKkPhJ6QJIpRcGMKzYjTEozFwvofMncvlUTd5IWozBTCZgPuNlbmeK+ZhzShZmRD5AM/MbA61KaZVoMrqY5ESc+3i9LZF4a8zc4uuVrqi0KGwkVbgugov0QZRBskmPhsWkQ+vxaQNfR+/jTRPW5FNU08Y/je7rnWxxtbRZaK6jiuE/VbvjVrQonM1Pead1GYIYpl7ELhm18lfENe3SDzGZwgCmgCnmdgldLMrloffPKuKF7IlMG04/Vk59pji9CXNiYUYsrODMWjDfEd6qpFaJZoCXXlTWKU+NMvC0RWGGMoJZcm+LyC+9ttuvHK4RZ0FIHJrO66H0OmeYMpUnJK6xiWra+vKbLI/3fbnSkmpNaaZIy0kbU0fGpkqnaN2CuDXTEd8OJlfjJDAACmNIdK8TyqlrZvkCSY20TCbF7OPkVGJ79mrnyMKOk4UVnFkL5t//rUprlWg2UsucMeMXDolY0umSEg2R6LjCRFKtCIx0BW8+eSpjnT1N1JXThM9Trc3vuTC3ztyTqrUe/2uHUckVghjeqdroCe2uJ7S3aU8RR6hZbtlOj/oypm6o2irL/IOmkhXGKe14drsGAxTNKboLO39NrV8Q8x2VmU1ltjEys9ievqoFsDAjFlZwpvPMdiDNhQVXa0FPTqCnKdBTFprlVQox0k0dJ8RLhAget9OcnAhTtLsM+rLjzROX1FxiPanS430N11MXnSBsr2SkOuL2VaxxO8E3T7tBwuXJNkwF5YrLoS31zucBIpvc+4Qa5V9STS7JWkf4ZjZuZmby2SZz1plufMwktqerYgEs9DhYWMGZTrPQQTW55IkJ5oAloU1iQX5+nYW3S9TGkElKw5dRETda9wUub1OvLkv2wvcupJUi0nWGlk5H23xe1aRbO2kMqjY2meudEIbH1OVvRZMBirpo1VSfpC6xh7LU+Si2J97XYRTuR36izESQII//KyeOsTUhWJqV8Uw6JjNnm/bjYyqx3b7YBbIwAzrRusxKWGy/Tyx9YoL5QAJbC5CEUJCP+ZNX3lQY46Ia0oDLTx5qCVsi0jIqfEdv6sryXzCsVO+QmMkp62rRBG6pL0pF1pfqWur+cNrYMQ7VhlTdFZv0FzDDDFKbqrUSV4WlbF2CIEx2UglTTUk1SKirsIFU8rpi3PiqS7C+pI/NTDAAM5kKk8dFa7E9uaglsDAjFlZwptMs/uQ5sfSJCeaHEz5aIlj+wmRKM/Dz+uIvkTmjK9efOF2Mj0+lFOmitwoyY82Cp5I2IbRTdYVMylMtQXKEObVDvGOquWMkRVjaRF9IvroKQjPi3QrG/QlJ1d1slw5Xn5rUJQZUxfQ6KWlbz7aCK3PPzVYGV+2gtfMAD8OymmLdceNgTu7dPLJzMimax0UrsV2ffUk0t+EULKzgTKdZTr9PrGFigvmTkg+zGaLzkD/Fq9q78b5+50RLoG+qYrqWhLCehNTlc8ZlTK63Ka7a3jZULQrq0Ea7Tya4hhYVTbKnEqcCKm0NbElsNbioRNrU2ECcNC57ouCe1OoYqoCGlH5iT/gLksEP2diy5nhaf5z3pnXjmSI7J5MiPSYmiu10tiWyMAMWVnCmsyzv5NhYy/LMqCC/mFhfvZ6J5HcqcfhlKt+QVHkujJOlvogV1NVGPCeXt6RILULV8s3JuAQ6vCldPZNy1MUH4UHVsR3W9WMwnOImx2UmqMRXAhLVBzRGBkhKvSFuQyKlhbrPqFSnvRCXlArzSKgvzn/S475AzPXFwppsCsM2jWBcpV2YmTDGMmeR6lhoFNvV5EtmYQYsrOBMJ+nQiXCJZsRV+X1+Z/gHOxRuZs99pK7eK/TlxZUQV1gXFgcmyhehrFP6erz9Eh7EKVWfrD4iqd8SIW0IczXn1/UG+WarutpWVUabeiz4nsftqQiduNLxiordvo98VMUSR6pIgtLLnHM6N6HNC81Mh6ZwZXPb6+pKjt0NI/BUs9syLcZW5qwQjoVasb3y4bIQA/KBcLZYTX/X1lgbsSQid8TmiGxwM4gp4nApMy5M4mJSYTEVoe0rcGGVWeuqGXEKLdLiZgh14RpdT1hHuoagzGp0SBzuKvM1VfVd3FJFbJLlAvQ0cSCwm4xL4GwLbUj1Q52Vujaxo2JykK6ljarC2J7YlnrrY7jeaidsNIFHUg7MRGQnZQQaBxWxvfIhsjADFlJoprOspr9ra62NWD7xj36nScVHAiOVRJPSIyrMZXez0X7ph/9braQaItTnmmBKQF14XGpcR8xESRgryTixriBVWWoWOklTJRzPZenYVMokKdsY38dhuMe3oNKWhMnhbmxxmjhVnCNx31ZBf3lSr+g+S1TclDrQMhHZSRkAMKHYXvmQWJgBCys40zlWd3KrrbU2YpmwEUuwJRA3sdKJSJmTCiPqY3xcU5qqPQ2mRbQsv1pFiMsuqVJbSH2NlDbIWc1eW0I4OeuUe4MV4aJ7Dgl3Kmv6mWqBCt+CsB2qZVH+cFel03FBIp0mFMvNk9ReWus13PIYzY15znZLkiMpGAiZNNlJZx0ntlc+DBZiQB7gZ4eO9vWKTEpVW32EX4qmNFFcrDMiTeTljwiUahZUS22F5PF5UyXXUWNII5LBZwzap8IamZggZKJvtFk2eOMPCQOevlXesqkZ3Rq/VNKFQUE1KhxK1HqrUhVEuHZEgZHD4xREWIveC7Pr3BNmqsUeFtmyDMdaC1vSr7KeJar9zNRGZDzZSWeVAl3o+oUYsJBCM52jGyevpAXJwBWSeBoIBwevkxDR4jRRIKSD2CAkFXcaqva2KVvia4Qlk7Y0bEUYOg2Tcvh4V5fKEopkdn7FqgQqX1VoC94vLklUbG3WJG2+0qiIGxvA4bF9FSiBLiX1vmKR2qncmCq7ZFbbWotxOeb0Z4/aNpumyAyRnXTWKFbe3QsxYCGFZjpHN/o5aUUycDnUVU3hJpjk9E8aqZndCwqrShYvWCrSJZk+Dm2zT6TKn5JK9mbBLUjNTRYEcXWJ4/1G/Axq8zdWa4geC+i73HdoqxUQcZp4f0qa6myK81CiujHukcLShVZCKwF1UEInuEvbyppNpbHl6jyTqSM76axQ+YLk0ljYGFtIoZlOsbDBMzVJK5KByyFdtYSGsa31hYKlhtqTrY4wvlkC1dEu9SRL0iRyuGZpwRsnSiB5tCXR7jQE1Wvd3YL0OKiSLpPa68N1I2wi/WSoHsmfLsPPtjcd303hdXHVmHi/jvgWNBwKM3bshjHRl81dkwGyk84AqxHbCxlTebBuPmvQxysyr51n0uIgXFlbT0ogTUPb7L4d3l55V1eGDq9LU0syQxzIKisRTFsqUjOpBSF1QrdKuufb9JVeSlJNLwGVCKCl4BaBLSK7DeFDaaRttBlDn8pUl8DoAJ0njmuKCYlFdkAQ1VTK2aGVF7TzMzVkJ20qyxfbCxlHCyk00ym618cViyoBp0dOvZO2NkwhecJdy3/aVjSVVdOkJOI2xPtxmJifTgkKD7RlQzp5cc5s49VJ8XVMykeeC4WpkJ5BrgpVT5y2uX4uPw7WNNTVGMdo4d1kdx1xlng/CKtEpj/N0EuwgBkNq4GKnuZft4hHYC2tE55lspM2DfPUr/muxCllQSxk7Cyk0Exn6Gb/VqyqBJyO+9/wCrrYGwPDKkj+VkUR8eq3vTcOCgx75d/+Lmxt9bG9tYWtrR56vR76RYGiV6BXFDCFQWF6MMagKAwKA55NNDAFv3flpYyInRCm0Xtxykk05XVxNhEp1DnNwYucLSp2z44rcCbI5Dg/r7mvvA/TS3MlXn4pNC6zyS2tdaSRURGODaoqUYGhP22LrzI5Z8KSCOoba4GyLFFaCzum17IsebMo7RjluMR4PMZ4PMZwNMZwOMTxyRAnJ8c4GY3xY//831FZcRVTYGBw/xteQf3EM/jN8HEJ4OVvfkccuXKm8sVUic8i2UGbwPJmtieePGZhIYVmOoHpbP9WrKoEnA5qOV1IWZcAMonWeCGujQAqcsD6k/hM5/J0XU29JnE+XofU5QqJU1VMrwSoZtaufVaPaTHuT2tqy0wQ25DSoiHpcuJwXQ69p/6V8NQsdz2UsM6+uvAksfns3zi4menHSVvzCC6zUrTMbteX5r9gXMncGjf0jAFgYVy99bAbYU9V8+KYyqb23XpGyQ7aBJYjthcyThZSaKYTrFHfLsJUNx0ZBtN1ny7Ecvo1KnkVFWG0ZvAXcwny13YbxC8a3Y5Kg701SSrhvqAGmkpsJiUwU2FEWE9aoFKadJzuV3kT32j5R9DF9YVp/PvYJh8Wl1FXnicsV79qoseiTC20kbCrHZSyLn278Gqt/E4an+q4KaiOe3mvyrVcjxooFlK3bTPoV8LUVrU6fs8y2UHrzOLF9tzHRh5wm0v3+zawbmmmkl8MQAosUW8owib5kS7YplEnqF/zq6WpjkmovIli6uqW8FQcUBORKB+J5TjiNfJlmGmytqqNqMmjA6lFdaKbiBtRm7AVXmjPm1SZMn6rQntifwZIqnap2zFF7cEnEu3yNEG+YI8YLpPvcy142tpV40anyw/Xj90l7u9WVJuZCcgOWkcWK7bnPh7mXmCmE6zHySOwcEHmTiqW4mPBzf4zPkUSSz8wIhNiwYWaL/SnZQrpknxboX2BhGr+KkaV9mm9eKZACxJY/ouG1Fgt6nT6mFD8xXlCYrsCG8QOn4Speq+2fHdz5v9pqiVpJGcaZ2PgiUmp6/Ft5pTNxhGuyMiSynHYDrVITIUxbFzcktCE+Ryvy6Da0pbMnPGskB20TixObM99DMy9wEwnWMN+XZrJcUW072Ze3bk2viynsaDZbC+GaKvNmYxIXv4T+3FcCm3FBHTCeIvTRZ5jryWW28jsdihctBidRLysA5w/FMo1ZUUK2O+lGujL1q/VtKn6fN5YaEfGKirOqiRzbXfVsh+dCSlbCB8Txsep/X59WSGxUVUqLQuShbFur5JpUShjLLWhviVojOkaM7vQnecyabJz1oH5i+2FHBhzLzCzchYyUBbG8i+6TKU+DtDhLa+37ktykr5SdkRtfNPlvykuhaT3+YLcMkyStnDKMPt01atMdc+EjkVmvB9SbY8P96/JItRspoX0VyzCY6FdU1YlPLSJlixEOd2+f561COo4aV1YQCKeLGA7RJwn0+jWJRKlB8T0pIoWVBVzqg0g78ZBCl4+Ilj3p5LLjYw4osOcytTa80AmO6f7zFdsL6SvF1JoZqWsV586a5dktgE9mcA9aq/pcb58vZ0ofMACK5rJrit2WlpUH6AFVbyh7tIxOaABXXJIne9SenQSqbaEsROQSnXFFcFdLT2uV8R0XKOLa4NyVe34mwKqVc1+B8QLK5KJTkGqAar8VFU2zBP7IHVjlq5HSI5qT0N0JTgKqMR3mFPb2uCnTHZOV5mf2F5I/y6k0MzKWOMTwQrNlpmwwITUdb4OldHSV68a0fGT0kKZMY1JbZER4+xoNEgsCNc9i7is15jVL0v6fV9mqnWUjudqw0qTYndmGsoKx0W9UCdTvS/czHldwYgLDwmiWqVTQjtwZ81cb8WumnQBlUzKAp97Ujky+54qTbAWKMumFBqqcVK9wIREBqz65Qun1batA9SCUzKXQjaV7JiuMR+xvZB+XUihmZWxnv25Mqv1Z/jwOsULAH+Rb3u5n5bmttdf6SpaahKJDKm8YW2JTAFhfKOgZLRO5pAwgQqrlFcJYOKlISCRW00fp0rTHDsN6RnmprKr/k/sJprgdhP1NeIqpLGWHm0aX3h9NXWl8A2aHF8WbjCkxgW9tTViO64j3o8I2qmIizbuT5xybZlLO+pPRWec7JgucXqxvZC+XEihmZWwvgd83TVwsfDFNFmnEgLQdqmrcjIfQT+aET/J5PQ0FRfrhYmoDPXaLA6tTwnWTCFNFguVTAqWWtwZTSkBTlhVbBLpZpfDJFE6Y4IE0uKg5ZWyCWlt2Gr9BdsYtbY/NkO9d2Zq29U/nz/Vbi4sMRz5CEiEpfZCQ7XJiRrTaNus3/fl+DpctLWwJf3aZBpxrrc1bmcjDcbLYVwlGdh55mZ1rV/OOtkpXeB0YnshfbiQQjMrYQP6ckVNCAVXg6Az7k8UlngvKB0UaKAgbSpjCKWYnK7W9gpsldc2OpR2VWEp/daepitzteDIpMjAavp2qCUcuoKU4I7rcOo2UOgTkZ9tpw9O+HsB2g3KoMlFigz1husvdYaCO2yOp9oHPtmkPgoLpD3tDz8DnUaVbd0fBe/LC7eNquAbikqeKYmbd4ri4qLWiaaenpq5FrYpZKesmtnF9kL6bSGFZpbO+h/Yxv1ZEXxRb0PS28lAgnRF+/IdifRSRU1VDpEl7eSJSlljpwjBSVqzLrxK1Tqd1bUvEJMkuuYCV+AsaGjTtPhiqBIvsqNHjjDaA4EN3gkqkN5XfFEnuIWa8RknS1NN5ayomFZNG1RswD7Q8RH8gzNSnMjspcC+k/oM94kcFku0ZCk0dcPUzLWwTaHmwMssnNnE9kL6aiGFZpbOhvTjCpqRrjIUEEb+uM+S07lS+Jk5WSbQNPMXzdulkjja2zANXrtpwVZviBbeVQFely9te11qR7WCGtjnoTeZaFZZaT5JORcx78qwaszQJl+xc8Kb0/t6o9n3GSBxOjmzT6H9RaGp3JNTUHBdfHWpVhwQ71NbBAO+YXH79TTFhWhna5upIa4tbkxtHu191QIZ6pmI7JRlM73YXkgfLaTQzFLZnLNa9SK8fJxAseDLOr3Ke8N2es09q9Hqgs1vXcika3lUpezOaolGBF4guEVqTLIrQIuSdhnrUs3Srmo7YlI/tsO4vHEbagurRefQE9pUd9qAcKY6eJlMolEVwW0lVN/0pdNIbr+pPatvxqbDN18/W5zueipfyVT+8Mff9JdQR+yipP2+bcoVLqo6sOJC1xMz75bMvcBNIDtlmZziTDEvcmevP5vThwmNsBr0BZb/+od96Ud+zY6VWddgNji+eKure1xlnFQlCZIm0jlcnE8UmxDvtyeVMRXmaY6dNEDEV7TFvky3o25tNAtQjpO+kX5qYWmI+hQjXV8z0qqgn1S8AYlU/3z46nCBziNvXMGRUb7CKA1v6m17UonZSmcsvQmOryibm9E2BkWRauUpCerTS1zkFoP/ySdUG8zcvVs3MM802SHLYDqxPfc+mXuBmaWzQX3YqabEaoIvugZ6OjtKPxvhzCmUMFMkfONzVVKHJPICOpvPXyce/M2AC5lQrypzQkpBltjUGtGAFsK2jIpQBuglJdZa2FLFu5srn9GCy4q2OhPJDr8FJUaC2zdVhH21UEkfIyHVmEn4mezYvOqYjlDtD4InGqHHsy+grm1VvM1OhLPYbnPTOzlFijpftLF3s0h54dTUuffMkp2xaNqL7bn3xdwLzCyVDTtbTfiO1LKpXFLFuPhVqGSogZWJkx+ieCwAlF6KeCVWg6SU2bbqlkiqtjBlWF2yFIUOb05r4Qv3KeL8JFIDVJ6ghiCdCGYRr/Jeb5LXh5WlRTlOpU21hXPrdKBCQzGt6nOvLPxVPdBliIgMnC92yK74LbaLfeHi60m1ynuFq7Y6pUol7VBbHCfva+FKQl9TeLVaesOeCdJKOPRhOPeZ7ai8eRe/pizMDQsreB3ZsGt6x2gntufu/7kXmFkqG9R/fH7pYoua9MMsWDflyipFibDSlrClBUqfxsILybRgUULNUtpAFUl4sJW8cb1libKUsDBO0ns1JPnjMqtpnW3aplLnVXVxGluqTdKVJfmkLGF1/pJEM6Xlsirvrahd74eSygzbG7Y79h+sFn7Kfhbt5bhU4l3KUXWqtpGvyYayLGHH9Oo3Sl+Wvg3eXl934EvnG53Gb+T7cLwFZUnbSlu9OVB9X+nbmvC6zbWd6437rFRp6RChvqN9SiM+5QT48X/xc8ExFp9H4n1HKkK0jt6mhLLMkHENmNElk1lYwetKdsYimCy25+73uReYWSob1H9r0hTr/iReEXzTrRFbjlGWYy9uncjRgq9EaSWNEiaBICtZ4OltTOWPx5U4EmMUb13eMcYjlVYEmxa8SiBKnSJWnQ0iGjmvrlPHV+zmPJV48ZGyf8ybDiu5LdaqvIn3Y96X1yCNC7O86XAtErnNNi5X+nOMMW9h2T7e9XtJvndb1FYnnCU/92fYflvxh/honOh/8hdvqfCgXvZrQ3ptY90W5h2TXaXYF/pJxL0I6/BY4HAW17YsYfn4KMfj+BADTqeVm3HHPBZR+tqwsJYvpNPWleyMedMstufu67kXmFkaG3bwqaasR6uqM52CQSutjfF4hPF45MTGuBwrsSgCZBwI3KpwKVGOSLzUb6NEmBdj4/EYo7EXiGMRfM6OUCB6ocXCkgVUIAajvLJP5VM8bRwmAkzskPKcCIvtiDclwkueIdYiTgtaiUsIvWpa8YX3mdTn6hC71abDautR7U7lrYsfj0cYj/jVbdV9KWc00uGjhO/Upvzvx4gXxcEYkfRBOt23vKnxQWV70e3GCr+nG1AR6X6WnsLUjV1JNzp080M3BOPxKD7E2lF3rMok/TTUlbXhLLTZCy183cjOmBf1YnvuPp57gZmlsWF9t3ZCO/7APKbdjZAIQye4RWyVLEKU6CKREQkiEUUV4cbiazSiLRBiiXQuvcxuj1G6uEhIBfm5jkq548oNgIgyaaPURaIxsSnxXFt/XIcSYjKrXCl3PMYoYS/V6cvQNwCjksWrE6XcjuhGIdxY2Epdtemq26gcuTrrtnKsfRj2gRO2nKYc8zhgf410XeMxRiMdlrp5C8fHeJTo30iwx7PYgW1u4zEt9cqr9nN882nHbokVlU9tHw5PMBwN40PslMjyFBWkD+3Jh/iZot1Zb0YWWvi6kR0xD3o3fP6XvjkOnL9v515gZmlsWN9FzelS68gWet7vt3z9Vyvb6J2bzZaLsXsWsAVg8DO//BsuR4rf/r0/xFc+4wtR8POBDfyMuIEFDJXjZtEB+lidl5vIuma3ttXN9snMHy+HkJlB/khe1rtKPh1Hmy8zuT6Z19VK2XFeitN1Vuuh97zp2Uu1ZMCXJ1uplnOEaRDbaC0tgYjDGjZa/8vlRXXrOGvF1ypM7HJtkTXR3GeqnHAtctWO6ha1VcLAvmvsLxamqpywTva78z1/XyCol8eQskP3ry+PjonAdvGHGoelVUumnN0+LB4nJd/clCWJ/NLdiNGN0/DkBKPRGFeuXMXvfeTj4UE2iZoTjgEd87TjDkr+Ey0Tk8OUo3/mPzQf95tOjUvnA7s/kx1xWqpie+7+nHuBmaWxYX0XNadLrfO2iNh+bhBLa0aRntfmzD/zy78ZR1X4ii9+MgwMikKKsrCGyuQXRokTgEWUFlws/soxC1IvjvTa11hEBmJKvmQoX2y0/DSUOH3Js4taqLlN1tFWv8xmWXzp9c+VTa0NF1HvNpXPC0K4mw6pU2Y+ndBVNweV+rRYpKJ4X+flZUJKOFMdqkxVR6Ue13ehYPWb1O3TUZmSXpfHeSA2Slt9uLZTbHUiV9qj+0vSyhdToWyQOuXLnGpLjSUt5OXmScaULUNf+HHh2+vHMs+MK6FNS51Kt4RmNBphNBzi5OQEh4dH+P/+wn/RB8xkGk44xolt9YhPvpX2MkcVIG9rxXZDZRvIwlu78ArWheyIWQmXkczdj3MvMLMU/Ol9Y4ia083WhRfT4KdBaoQ2ze2152Q0wnB0gtEJfQw+Go0wHvJH/KV8hM/LGNwWLU2QNbQsRkpeKysf5cvaaP3eb7xcxYkoTscf6fv6edNLDtwyFbKHwiXdyC/7cGt39ZKXqNzxCCPeZN8vSZClBiqNqlvyyJIFeXXLRdhP4RIGXa72gywn8csYJP9oPMK4DJehaNskzNtAba3UJ0s/3FIM1V6u1/mqzt7RCOPRsLKERNorZcVtd/5SY0D2qV/0FpXNaf1GbRF/UB2yJMr3x1j6K/BbenmQK9elI79I2GhIZY1GQwyHQwxPTnB8coKjo0M6oNqeSFqlq0lUE5wJWfhVa+EVrAvZCbMQzmzP1YdzLSyzNDaw36ImdbGFZJP8TDTwrV//3NY/mkHpgJ9tMbP9//v9j+JZT/1cFIXxq0aMpWUkPNvJU5g8a2n56Xkyu2j9LKylpQsyo+hmRvUsZGUmWs1OljJjLDOe1bTBelqdN954BpNmnX09JGA5zKoZ3URZbpmLvJc6A5ujsl0afQNRLVs28ms4E1yxIa5P4qRePWMsG/dVpbyS/RvNCgd+4q3Rv7pMN2Pu7Qtm2MUvatbflZ2oA/qTBf60Q8aRlCWPGiT/WJ6NljZT3Fil131Iy2u0H0Kf+D5UN2lyMxfNah8fH+H4+AiPPvoZfPgTV+igEhHWtE3AxDPbOiJ1FpCA2pnts0vFV/OmZZ9uNmfeAVPjxfZcfTfXwjJLYwP7LdGkRNDKIZu82HbLSNRFNW25z9NGbAPA0z//CSiMgbUl/dy0FtiytAQWxvK8eSS0rLVqHbYXUbR8gNOxYHJiOhJ7Lq8TQn6dLpWj1s2W6iP+eOOyU89wFgFV8lNXrNTnBJ8ShFKGyuPrkfehwE5tsQ1uc34koe18Gohh9mkgDrW/RIxW64mXclglzlNhsd3BUhRZelHTXi+KeR+0D1eWEtg6nRs/qr+g+tyNCd9XFCZCPuxnsN2l6mstuEmglyjdUhLxlb8xcPWx3W4GvByhHPEnLaMRhiOa1T45OcGVq1fw7/7vj8SH1akwAF4ga7YlAFC/WOmjgv0stpPE7loIS6mky5jshCkwT/2a77Lz9ddcC8ssjQ3rt5rm1ASvHLLLC+f73/BKF2dJAbNgc8GEuha/6p73VqLr+O6//FXYHQywtdXH1tYWil4P/V6BouihKHro9XooigJFz8DwDLuRpS0GypNkk4gXv6yFbVVp4/k5SRnC+UQ8cpBDFeGLZhtdnKHSlbCVYG2Ds5MjpTzJF+QF0s9XtBbGhfv+i5qqyg8jgu+9SVXS7qCN3i7vFD8Lqkt1FlffBHkcqjLXx9w/1KU6v7fPtcfIGOFol4/2CPaN4S/npnyZQMaUh+oCEPS58w0LazLQp3W5o31rS35l8c03B35ZC81uHx8f4/jkGFcuX8FP/vqHgjLmgQHw9jteHvS3xJDJkb8Mu8UAt9397sBF/m3Ub2eQpXlgaRV1lTPvgImYp37td83ZS+1OopkusWF9VtOcmuBOwPJB/uP+O1/pz19KfGksLAx/edJMKbYB4Lu+4Suwv7eLoiiwtbWFXr+HftFD0SvQK3ooej2YwqBQ4shd+JVmI6HiBYu7KXAiV6cXleDR/VJyPtfiGrHry1Lhxn8JxQI0A6vqqp0lVHFiO73KDURCpIFtE5Ep/lFikNL5mw5df1AfvQnT63T86m4AOFeiGbVU0xtXqY4TIUyCmX2AqB+8uTDON2pAuATa+4QxNJ6g6qykUe/jOEg8qXZfRjz2OGF8g+f6hl99G3l5CqwT2ONSHnNY4uj4CEdHR7h06RI++NsfDcqcBwbAP3jdy9g+3yNyvFUEtyQDcNtb301veN/7LOW9s8lSPLGUSrrMmXdAI3MW2+GJLdN1NrC/GprUELVy+NIq/4OZbRE6dQeqtRYwwKunFNsA8L983bMx2Blgq99Hv99Hr0+z2v1+H72igDEFLTVRF/+K8IxmFUn0cIQTo6gIH0HKk3wigKg8SQMuJJ7BrkEJU0KJs8h+2ZOUToBFAlOyRcFkv5rdNYaEMaRM1wj3pwYlFOErNCK2xR/OP9W2VIwDp+G+cPuAr0/i2Lf6RoCW+TjP8GvgVUBuMCrti8oH1a3roFTULpdE91XsQ3AZiMW9EtuSTNqh8hqZ7dZ+k2UoAC9d8jPbQ35u/PHRCa4fHeInf/V/+HxzQiwhsU3t9X7lFPHxY9gxMrMN3ynhCEiMhzPK0jyxtIq6yJlufCNzFNv6zJfpPhvYXw1NaojqBO5CmhTb7k9wKnPCgpXKq+95byVNG1743C/C3s4e+ttb2N7qs9jegikMeqaAKQp3sSexojKLPpTZQWeSF4RO3ATqyXdKEKyEu4T56sLlCjFSrBNdLN5Jr5BAC/LHBTltSMKrKlwpg7ZMhGPB7ZNZXqlf2qNL0jcrJu4vJaLF7iChBfuZ0kVdEZdWaaRvPxVI7aWlMCKY3c1PWQK8REiXS75xu5RHBHfKJt2mWp/TpzOBDZLY1SVvxDccyga5unQl0gf83pevHsRlQY+0tOCn6NCvYI5GI5ycDDEaj3B4eB0/9et/4PPMCe2Ot9/xMsjYcb3EDZVXB3Uf0DizXd076yzNG0urqIuc6cbXMiexHZ9BM91mA/uroUkNUZ2hVmxHQkN2SczJRTcU22GOdnzbc74AOzu72N7mddz9Pi0jMQZFwR/7GxGVoZjxYodtjCp2gqHSCi38uE1KsBuekBV8tUppwLj66a+fTdXlkNBLC0KBsqVmclV9gT1yA0Gz/9RMLlmJ4rA8rl/7UGITbfXimO2LEyq0H3RdIVXBK/pU6nJi21qUoOU4QcPZx9LfRgatEty689yNgfhelS83ZdbSpzOyjMW3WxurbfDtkPKVd102qUPqkf4y3F/G+RTuy5Kj0QgnQ3rM4eHREU5GJ/g3v/lhrnc+pHrm7Xe8PBjz1L5wdttb7BNmsT09S/HKUirpMmfeAQFzENup00amu2xgfzU0qSGqU9SKbYEVgRysWujQTBit2T4Nf+XLPwf7ewfY2t7G9tYWTFGgVxiYonAzl7KGG2yDFzJxad75XowxkjYI8+IYblbXt8+nC14C4enFPgs4roLEW8GCW/la57NUqEV6VjvZPJktBy0Wl31B+0a3IfCHvOoKxHCOlzKdnQ14YR8iY4RKU/WzbRLmbyA4LrBf+5p8JCHUX+wNpea1PUG94h/QEg5ps+E13SK4OaPPL36gN25f4lL2W/0UHd1vunwLWCvP4B7h8PAIR0fX8W9+q3l9dtrbIarJjbzj9a9IlMh2koPFVCKL7VOxNM8sraIucqYbH5DF9pliA/tqQpMmRHcGJ9Jaim3Z0+LuVfe8R8XOzrd+1edja2sL/f4WAIP+Vg+2tOj1Cpiip4QNP4WEH+smOKEkM+EKWpLA6VQ4NY/jOF/cd5JTz1a6LUqr84o9gYBTiO2+rNCvEM+rSoLy2FYqW/IpuyLf6Fen9KR+SV9TpqQL81Oc2B8Th6V8IMQ+0r7Rr/Te+4XyhWXH9SKq28oj+NS6cMOfpBSF7i9tb9jvkkde3eZScz3uMYhVu8Qkv1Z7iH/1a38UpGmm2s4q9T4HKPodd7xcDQcuk28M3A2oHwUuSRbbs7M07yytoi5yphvvOKXYnnACyXSIDeyrCU2aEN0pkmLbXXgZvginDlhjzNzEtuZb/tznwlrwMokC/X6PZ7q9WJJna8Ot/S1AE8lp4eNEUhDOIpLbUqgZdUqjBBaLJif0XSnxed3P1hZFgcKA1p8LIr7Az41OCDidzv+ePbVLltSQzZxH8qmy+T+1hNNJO+G6NUwPLpNm4zmdtN2VFQlj9+xq7QfaF9968eai+eZCyuOx6OJFoEpJKlw878Q/+UTs8yb4BlGxFEvjR55xTWkKY9Dr9WBMj76Y62zionQ7lS+CcYdCd4N7frZ7brlqB+UtAP5M42d+62MuTlCtPhW+p6plGgDveMMr1fGhfcbj2P/0VFBAs9hOh2Q8S/XOUivrEme24Y5TiG196sh0mw3sqwlNmhDdKbwAoReTmtkWREyRXFGzzCJMSJwA/MrvJQfhvcOXctDl3V+tRXS6dFKOdiwpsFAAqLoDwcrJ0zscJH+t35M69c2IT+Ktprdcgitb1xH6N44N0MJXfKT8CrD4TpYg9npcKs4TC1dKK73gQ1P1uXZHvo2RMtPJfKCIT1vS86YBP5boUwnld/YF/edGBn0BboMkdr3GLQtFok5L/uWyldH65ooSuijvt8pY0+/DjLX+cH0W5vXdHBju8sBFcQs5ma+nOh4QZJGbGb4RkMdVqga7toXOdMRiO3pb2cukWZqXllZR1zizDQfgH0s7JfGpI9NdNrCvJjRpQnQHaWmx0iokQrSwpFJEMPhXek9bvE9/LO/4/CQWXDpOqMOS503JXIMXIPxFtWgLhZC2JtpV77VoUSGML5j0Y9ob4T/KF7SVqTY5MDhBbGg1xpdQLZ2I2sX9rfMnt+DmIKyJylKbGkOCTk0Fee8AsXqMfa7ecdUUGufjnZSzdamJeDIpLq+ZtNCO7KtG1eJMiuyqraeC8lvwKUXsDOn7hmGSOTWtu+20LK2irnFmGw7MJrbPtsPWiw3sqw1sUius+5OYuY1nDNsSOzPaT6kJiZJwERciFAKRVyUUgCGuXcaqLU6l4DiaCaR3SVhPuqUH0c+jh1u4REE+0vczrLI+XcKlbF2ZhHGZwU/Jc5oEkob3+FV8FToisFNtPj5IzuiypDyetVcpBGerKiylb2Vf/KWskEA/WxvZ5euOS41CvMvZJBXLY0+iw8ScRIKT1EVwHW75kA9OCepwHHg3+6Ta7xrJmB7vfsxU25WZLwn3L4alVdQ1zmzDZxHbmfVgAwd1iya1SLJ+8MWWLrMsJyYINy96MeEir6/fVFYoiGVWOMoZVWughdOMVGb2GkoTA9h2y0HWcjluSY0sT6grS9dFaaT9YQ7x9ySiXM6vgaOjNLFQlrZpJS/xsb1+k5lRE7UhtXl83WF4tQwOjV79eyNr7qNwgH+pJcIvjwiXuzhPsV0Vv0fpob2qbpQqpExnuKY42KPyxiNDCIaZcX8U1f7XbbNW+0neeB+4LYhvQ2xHpomleSs8WM4QZ7LR04rts+mk9WMD+6lFk1okWVOUeLDuT9hgOXHHM49GfwSf8pAIgPDiLcLBixo3he3iZyUosyXaQvcqM6a0I0l9cxV+34sXv5/ygX+vZ5sD0RO6zPuG9yi+fvaZ0qTrJLzVbplLw31DpShxRLzpNA6JUJ6KzdF41ef7QBun6knfPDBxe2SnrvKatlfKDQR3XSYmrsr5SSKkTdFSGkdcgCdVM6Wmv6n4Kjasw7s+syDa9cucWGplXeHsNXoKsX32nLOebFg/uQvfGUO1WS6sXj5oRe0T0juZ1SVx0JZYq4TECl4jHaQ7il5T5YX1hAnI5Fh9MZzRNhqqwg2VReXpND671n7VItmbwVpaFatuRmjz6UmUxfgKwhlbnVKVIeGGnm1uCgMUhp64wU/90BvZGZZD/qpItaBK73NplG6LTycENzgyJiPfmUCUeip2pEh2Bu8b+lOxq5K+AckblxFbJmMkFadIxhjwrVFI0P5kxqpdTcdLJSiuMHMqzDJdurSKusTZavQUYjvTfTZs8E7RnCmSbgR6ptMpPj3zyYIvuGAY98eR1DYBXqz67BRQET1AUH46HpHsqFjZ0JdqhrikDVbEqwW13wtGU8A9glDCKE1cLlH1Q03CSRhqfCjStV+8/2gTsezFNAls+XGXAsYUKEyBoihgegXFFfxLiPJM6orE4/fcyZXmKUJbiao/GPY53fiocCXUK66rLSxOGBJnS5jZgkTdlSBVcBDnxyn3WtiX7p0OqIRGJNZm882S70GdQC9h4jfxfmZhxF21MJZWUZc4O41uKbbPjkPWlw3roymaM0XS9UH0o0LEtaFrMwuPSHSzGKj3CRXqRbae2k2tS/aCSpJLukp+LqNiOOPSh6HqvbJaVJUuUmsUEXZapOpIgB6zIsW7un19NEcb/XNr4QV6trHOJX4Pt9BmSh+3tYr0lrRBni9emAJ7uz3s7/Wwtxtu+7t97O/1sb/Hzzx3orsIXKi/9On7SJlljPtdSdoNbxDcW35jISI7+kKpZLDkU+obutHxLpLCtJ+lrNjnCVS7WsE3m4K2UXeLH7bSDkmgbiYk3obxlD+64ajo6JThKiwQ2MpPqh8k/UQfZRZGqhcXghwvZ4qz0eAWYvtsOGK92bA+mqI5UyTtKDUtEOFSucKKyqZN3roQd7L2aRqxXpNKTVpOuNrVjoUuluyRxwe6sIZyQk3OmXReCy8MAyEMlE43ihiq1CCecXvkjqo/JnjGIel8DdW9OIzysCWBgPV20b6fpSZhTSJ6b5d+1IVuIqiMovCbiPP93Z7baIabhDfV4Ov1LlXiONEGEc+SnkPVazVPGM516kFlJY3E84BlG12vOCP9Jj/j4ojFbZK47jTSvkDXMslsUTpKE2euWOz7Wm3aBxoapn52O7aNbK7WMJlEZZmpWKoHl1pZF9j8Brf4UZvNd8J6s4H9M0WTpkjaUaJZaL4G3//6V8By++ID1KU3/Eev25Vf3VPp6fpMpTgBxaLqtrveGYavDYs2uGFkqaiGVAFxH0u/G2Pwvrtf6Wc3WV15kdVQmXMBz7ryeuqPf+JRXDs8wmcuXceP/sS/5pu2RLYGGtM0RnaQ2G8LxHDPvustt7t91B5f+pjkm0fEvwRqff8yfvK7AKzFbfqXYzldsrqa0Mx0LNWLS62sC2xugyfMbC/xLJWZgQ3snymaNEXStUNOOfIqF3E3D+insB10WZbHAqt49Wk4Rcr8Jv/lC/p6bYsmrk/VqYKmtob7zQB48J7b8eA9t6Ena7PdjLXq4+pbPwpcF8snHDSz/TlPfBy++ClPwhc+6XH4oZd8N276nr+hh0IjlfbELqgUEEd2cItmy2ffqkXHGyVTeThKdV582IJz0Dt5E018xzPcPrYSkVkwS/X4UivrApvb4IaZ7c1t9Gawgf0zRZOmSNpx0jPb73j9K2SXw1Mtti6FKUiC3X73u9y1v0IU+K433Ypb30Iz25k2RH3Au6me0eg+NNyVD97zqkSCprLiGN+ZNtwNePSxK7h67RoevXKEd/+f/wKY8EVJxEVNSjw5wRmD+undb7kdt775fiDhobgnDQzuv/OVgKFZbSe+Wd+TAtel0ElCzhzu59rhk8V1EunQzGws1ZtLrawLbF6DJ8xsZzJLIr4CNTBF0rWF5p5FGMUt9l/kc180Ky3KcQnrrs3xrJxcsPW2HsRWn2abnfkI7YfufVVFaBsWXO5Ti+SmCVtiqPhqMljccPEcPu9zn4gnPu4AP3zT3/SCP06qCOKaEmYScN+447M6CIPDEoCFRcnHsLsVahqshsfKpI6sMFXizASW6s2lVtYFNq/BNWJ78xq6WWxY/2xYc+aCXIlpR12oq09FEMFdogyKmEhytnyxJLTHxG2ezKW8lm5zyZTQDiLdUgH9tw3plIa71Alv7l9jgCc+4fG44dw+Xnfzd/vwKL8miGtKeArifp73tjos+3gKK9wabRboklt2HPqTMOnozKpYqveXWllm3iTEdu7RbrNh/TNlc6ZMvl4kGuefDiGzXrxnQbNhluLoKh3nbiZRXS2xkJl16wLT26E8xW8nyRwXx0L7YS20kTYiEdRAswUGukADay0e97gbcMOFcysV3MscC/HYW1a9IbPVWPekHUR7lW6pBGQWzVJdvtTKVs1mNTYhtjPdZbMG37TNmTL5GtC2ReFFlwQ4v5/xYk4015++1J81lI/4bbPXVLxao+18qJ3p7o9iL2vPx3HtsNCGWBhDgvvihXO4cH4fr7uZlpQEyRIEccmEycAk07diMcSend3L9ej551bEX4hMvCPU1PdcLc6chriXFspSK1s1m9PYSGxvTsM2jw3rmw1rzqzUuyEdE6wuabwot6AhS76MI3QQv21wGYyOV0t0HnrbqxrzeZokX114Gm+H3xOT9vf2cLC/i9v+9ne2bld6pz3TWb865iW+vZvaOcytwU5SE9HwYVZNjsaYzOlYqmeXWtmq2YzG5pnttWAzBptjhubMkGWtkUfApdodhqXTtKLuSl2pY7No1zaVit825XNxJkxPy0cowOiEnK6pTEIKrEup48O07l2UdbC9hb3dXdx4YQ83f89faz3D7eIrCSsBFSan2Czo0Grf6tShGObWe+rzrMqa7swqad/jc2Cpla2a9W+sEtvr35jMGjDDMJshy+YQPWaCdJF/dgWHqjgdNslzzRfqNiWsG+3ao1Lx27p8xnURfTPR/wMKDlMpXXq1x+/8+3ALqYuJc4VlexvpJg74v3/3D7C3t4snXNyjssT+CTcALq6SqBKw1qR8PA3TL+9KT1OHdugeznSVpfbOUivLnAYW27nHussG9c0MTZkhy4biL7Rew8Xe4f0guP4Cnbi2J6kvYX1oZ79KFb1NYQAnsAtD4tpthcFD976a0qnH7Wk5HvtV71e24CkjtElYGO4fCadFvYFBAf8z78//6i/DwcE+9vcGeNnfeiHbTWmpTfW4uEqiSkBAc+xqiVx7CriESQeX9FEcHiM3QZFdE/M1crrcmcks1cNLrWyVrHdD8zKSTrPegytgg5qydGJhxZdeHUabEnCVuESglbLa48pXW5dpb6NKxW+b8hqQPw2AD9z3Gjx872vw8L2vxkOyvY2Ftiss0SF6KxJhxkRGxJ5XW5A+LsNv9ELCe2urjyc8/nH4qi97Oh6+99WuDVRE/TImxCYFBAZXaI5dPAnPzcmesCRry6CCSleo1P5XQxWSMNpPps10kqX20lIrWyXr21Dz1K/9m5PuwTMrYX0HVZIZmjNDljWCWhe0kXeM/gVJU0nFyPO2CSeOCpq5rMkSrPG0AG67653qud2LY7Glh6Sa3owWNZWQABfuhPar+Ukf1Ae27RraugpmJFVc0hJLaZNxsvyBn9s+Lku89A3v8s+AThCEVxJVAipMTjE9KV/Mn/pajAHeeeet3tE6aeIGRp6TP50zqGAL4La731WNmujb5tjM/Fiqp5da2SpZv4bmme3M4omvLi2YIcsGES804Iu0zGpFs1xeZPtZL8mptyBChRnj/ixsq4YsbksTp1KbvEQzjpXc/MfwkosP3PtqAO2Ftuo61cNhT09uBxGmTefU8e6fGzsUWalHhJqlZTEP3P1KP8bitHGNFcNjuyoJKjHTb9V/cYqFbIkg6Mno+BUIhLa3lcP5GI7LCzc9gAqYgpYs6Sq48Ba0SpSZA0v19FIry0xDntnuJBt0xMzYlBmzrRHUQtdO1WADg/vvfCUASxfkQBQZ8PyjDzGcS13p3VsmNXttAZigIPeHYuUHc+IzhEpSsQXOICcmKF6Vl7SHbPZeCX+OXvaD+kTcsuCg9kvbjbK9Jq+ypw5xiTEFjClQFAWKXoH93b6/sUk725UcRkdpk4T56/Al6TJTuVrUqWev+TnuZWlx/bhEOR4D1qIsS9cf1tJ73Ujd96CecLtRTzuTUjcp0o8hqXaBSuNOcv3ANzO+Dp9WApKlT7hZAmg8aip9X0HbJEG+fqm3vuraCPYdcOtb7q+mShy2VSanyMyPpXp7qZWtivVqZJ7Z7hyTTt5rxIxNmTHbRmH4Ykoziiw+RI1KuDEwBYlALzTrhHYVI39kiz0vu/pVJ+E8YTLeY1utgT8psrIn7cxqwG3ya5gAST16JaIlMykzFJY/Xpc/IrQpkpZJqASRHa4YBdUoGnB3YOoSEtx2w1tIY0UOFxvbprL6t5La74VJm+sCyGZnK485Ywz2tsObuNqy2DfSN7FeduGyAy9U3VjmzeWp+E5DpVEaNQbd8cLhzhBVWMOymEmEx1mTgapOEdrueA5Thcez2twAUlvgp0k2ZLrEUntqqZWtivVqZBbbmcUw43EwY7bNwvAFWK7SsiG6MHMaf6EOixFdyXthZJIGiVbXMQaw9Ic1LOdyM9Jks4gGw0/q8GJCt0+tXQ3uEExSeIWCx5fvinRCJQVbSsrfbyq5gfJ3QTc2NKNdOEFXV7qOCWpQWl9uKUL0DLP80Wl4390wyIv+G1bm+yWuK0b52dB7UxTY3+nRjH5RoDA99nsRquEyvkGKHUlQk8Qu2ZRfOLvhxH6IxP98Gl+rL5N269pb97SQVG9KTWGcL5rjZIy7TUWB/RmU4DEUHWfj/bgsekPHfdgFme6z1O5aamWrYn0amcV2p1ifgdPIhjRjlSR1YnBlFZFN4SK801ffpLKoIZW/GbEhaXSsomJEA5ZOgToBJmaHJSbq0Kh6SLj7grQIsyLMYFHSngvzik98XKAwBns7PQ5Wfk762+OssVG9XI8NhDCLRk4ruQ+PbWVzhfrmqrqkHnY9OVW84DMk8YJbBB2Mwe4OiWzxicQ3dYUjqtLvWlef30RKVxJ79HiTMaftmGgT+9oPOf0nRFfDBQf7yma5+dM3A8pT7fCZ1K6W2BzdusAm5lJIZkqW6vWlVpZpIovtzpCPiuyBCVgbrrGGXOgjOGCCDqwhIThaMH1dKgMLQT/TmRLn/uZCRJlXJl4geiQ/S0xVnBZXpGm98JK/XjzRjO4er9GmGXkqp1JlhKtS1WVLi+tHY9iS6wZVbGO7+O11J6ylvnStYV3SphLXD8ewZenb6bM0Y6hTDfiTCGOwt0sz3LJ+PbjpgC9fxD20XYn3rv2A70eVZiJqCAT5JjQyGFpR2nDoSal6jIWVSpDh9+w2dROQGps1uPI9fiTQHlBJkllDchfOk/XwZhbbmfky47ifMdtGUueL2+9+Nz/mS1/4m6FL/uR0tXh1O1FRt0ii8CqHhBeJQ/niHekwr3x8seqdEt8CSRMloiuiTjRN2lDDAolEkmGhLUsn6PnUzoZ0EUyo6KgpFodH1D551YKbG822A4dHZa2+8iJc10P7Utf1Q/Lnda5Lp6lH+duQn1KCW/YL8VdUQiy4gxpDReuI29iIFrcSkOiXuJpwLPBrJcxn8n5gX+gbPp+igsvXFp0hMM/gtrvehdvuehff3PgsmfVmaV25tIpWSfcbmcV2J+j+QGnFhjRj8TQ7KiVDDIwTKbff9U4KU8U4gQM3RStZ+aW5zji+aoPogeZyJmF5dhcsCJ2yDGrkGW4V4gnTuRer3nC5JLrjsn0baPaa9o2BE440m21QFD0vtPkxa9pNVGrKSmV7FC27FhaHx2UYmWob2FcqZjIyU++Fe2BTS6i/ARQJwc0z/m6GuzCN49rFxOpXbPSj121N+JpUvYZvwAI7pPzJpIaK4Gpxf8L21mRrD/sgLun2u97pP+2JSARlMmnqD83Mkshie+VsyFFwimacIuvmoi6kIgjf9ebbAWPwzjffHjiNrtN6drSZVLJaKeYEscozheCW7NZaFtlclirTvQ9EBVkptko6J4j0Jm+cD0Roc1ygokgkyUw1rcfWSyP4i4AstEl0ywyu5G8atDWejGZDDQx2B82nX3rqiVgu5daUn8CZy29CkytOZCQD+0mCZSZbBPdej/ylZrhF6FIuX1utq6D7T179Rv+aaCyZ4PK1MDWV8asj3R8XIHuhLcpv6kVvcUoLdTxUyktkBHD/G29VPg2pNGMm5lJIZkaW6v2lVrYKut3A/JztldPtAdKaGZsxY7Y1JyFElCOMMXjXnbfSTiGXWT8L67Cgx+nJEWxrHOrEAIsXrTxAZSazJdKBq3AxcZogqDolayXMzVzzLLYoEDaEBJGfvXfCuSWh0Ga4zBAfLzPa8gQO+TVOsiHOp2x1f6VFEWxLtQ3SPl229BHtHR6XSb/vDlSfcf9RPllGwuu0udmuHQmF5kOqcYRqF/dVWVrYssS1wxE9f7tMS2NlmcvvI7kNgQ90K8k/ldHJn0RIGh+eSCvhiXbHaH+5vlHHhu+XsA+r1MXH/qG7r1QJcPZ4X8DZFvKKN72jUjKqh14D7VNmFsPSemBpFa2K7jaweWols2ASZ851ZEOa0UliMWvVxldUElc8CzzLuaZtJqrIn84S+dzSEDvV1b5mPaoS4up9PBPuZrxTBFrHOY4FKNUrs9vyeLv9XS20jS+kYl9MTQIl3vyMuhLaUoWuht/r2W/qcovdbf3ourhOFnA8C00z0fVCux1kHNnFM9l8U7K323c/9EPPfPezsF6mJuplW2QY+74pJYD7PGpqndCG69oJiKMTNlXwNpJ5PNse3cN5wnhKEib0LfMBqaIspHqx09K7VOLM2tNmNM6FpVW0KrrbwCy2M6fjFGP7FFnPAP6qKhftUFzKRV1futWVWOmJ4OKu0IJBBGyAEmdxNOmAsAcDUyhE7wCAE2DO4mqS5CxkbJ/bd5Vqn6BStzON00t2AxGPNKtNTx2RpSVkh9bbaRojCcMFVbY4Hdep6t0dGNq2w6UnYQv9LDHljUR9wqeCL8f7MtwEJbh5Dbf4rFDLcUgQRzcRUr20W+Fq4OpcH6q+FXzW+vY4uF4/ntJ5qL64rYQznxrufeze+H4CpAhpiC5RfWIRNJjfcVrddiviXqWmH4ni4qvmZtaY9OhcAEuraFV0s4FZbK+Mbg6IqThFE06RdfORC69cUUu58FKY+ydP7lCzvboMdS13kHAg7weap0mMlVRXyXaIENBX+0AgWIuSlxqUlRsEyhPaQGpFxKHGWrXWO9rEJ7qtouUCgVVZCsCetBLtZ2mNkS9CUp7YnphqbHUhA7UulbYmTqm3IN4l0h2r33sx7HLptsT1tCY1kKg0WeO+t+efUlLE/WgD1ZlEurAxme7TGkSg0g5twbEROcGNY1d5aIFE63FMYw98fKq06q/gq6IbFOkaCudYqZdtp2NbVZ44htzZoGz0WEvq/ZnZUHKXL50stldCHumZZuSiGojVsgy3QABEoqIBl0wEBl/YfW4lBay8USIyrkbEQhBAv8bo8ngVrNJo4n1CZkgDU3WVrEfi/IEvgrZJXgqRL/npx/s5ca7EnW9H9FqDUVsT6VZL5rAU7oYJpfrZV7D/fW5VTkTs21q7BHVTI0tVvOCOl9+QIal6q/iapZ+cuLSosV5hnAfcvs/DSzH4fRIXTF6g9Pyqq9a+tfTViaplUpj3alirCpcxaqnNLqzkzR3nsfAu61qSWUOqYygzG93zZP6C5Ero3kCYmlM04RRZNwTvAfdOOcXA4B2vf7nXepM8xqLnVW99j1LSIenQ1VFrj42aGydMuCIRFBC6kfYkzBiDB956qxPahpzJvg8NSZtSV7tObZL5NZRiAqzGRJT5ewG2eyp8bU31pkp16cUefi15ltXaErfc+W4vIF36Zh9gBlvWmWD8GOD+O18JkJvccexuGqObCH0zedtb3+3eOyZ/mBAxXerMYllabyytolXQrcblme2lswGXjA1oQreRj5LV7FVyU7PaPPtV8lfMSv4FdNl4UmyGLZ5Jm8+WqIg2JPb15uKiIJUqxoX7PwBpVDx4z+20zhgmGtinGeTaikQ5NYYmUjqrjOyw5Gp9I1aLz9dUQsJMRdhOmuEGiqKHB++5TSa0OWm90A76Tu9EWzxU1mqrNoePU4tSH+t8sNJ+KWcCt1/akp/+4s8D86FpFGSWzdJ6Y2kVrYJuNS6L7cxS6dbw7zBKmfiLNq+FVstLEIhyuZJzhsrlffJW/RenWO5WTxTbnFjhl1k89LZXazVIPpQ9Wy1QRK9s6dFM+XzuREt8AW439T5G7HYFTLU8I0VzS6pUU/nW0jv6hICW5zz0tlfplTinJB4Z67C1N9+Cb5h5HEJe3R0zCWyIyOb4MjFO46ozmczqyWJ7qZz6irN6TtGEU2TNJK+hLLD5ffhaT+Ja77au0domHlx1Y4w0qp8V/sC9r/Hh4HsTWLzszvud0Pa3GjFepKbQPaFzN+fyNKWhdkxub5pUW+BKkWKby4wWrMh9nSudlrSQn0lwF2y0n42fH/H47crWbF0CFtzyR26eLeTmWn9KJYI8s8ks4HBJs7SKVkF3GpfFdqY93Rm3ZwqaKazIHMXkC++ES32nOa3NrPXovQEeZqEtEVoEvveuW/GyO+93+1R3Wwv8zHgYqmEhqrYmUuVV81ZLiT+foH9iYV2ps2OtxcvvfKcPMAaAZcH9ai+4VR4hCEslSFDXiq6gj7eqrelQ+UTKksqm3kp+QkWfIDQxm2+ay8wsn6X1yNIqOrtksb00zvZoPtutb0F0dfRPc/CbCG7vy9irrS7pmwe7IfaGC+M/hQE+cB8LbfIo55FH1dFdzfvuvt2lwWl8WJvJW9qm7HS8HhtEKKvrqY9NebApvXOZW0Tu31uKtBbGGC+41WMYZ6XRng6TPh6rIWE/yPs4DYIRnMlk6ujGMZLFdqYdpxivp8h6pnEz2krQ0Hv+qL7GsanL9+YRNr7GFRxBvnr43teoZTc+nlzrn0ZCj/+L0gU+jQvxBNnUTipHKqwO36cmrqUZrfBaVWjaJWPIEoMCBu+/+3ZlG7+aUHBTd1Ttr/PbptLYHa6L9VNxvFPkxtCdFzIbzdK6eGkVnU2y2F4Kaz6K19z89UPNtKrNL0CoXmTDdbNniIaxyZ6CUWu0q/CXDN3WUGBFcMdbG6ZJW6Vp1jo5yylBfuhMTX02NRbrNknAglv8myozFbbppEaDeMi50Y1L5b+z6KwzTO7u07J6D2axnVkoqx/ia0xCuNBF9mx5tdpacUbwEkBuIsGSFNqBb7XarilQocVRSmq3KKIGbdRsNAput5tI0xrVUnIyv2+yWx4KbvHwvX52uy410FDURhPdSonAZmf44blI5yyy7Eznyd2/MLLYzjSTD77VkJouJJWiBLdeShLPj51dyD0stNUabZ1AezaKqo3TxAI7hc6fKot7MPjEAlXJNTVNYqwprg5vTcIucrZ6X4M84cVaPHxfveAO9ut3NhB++og8wlNGmHNtOE74u5TVZVGZjWXTj4DFs1oPZrG9cFbbwavk7LZ8Poj//CU2FtyaSsCG4tSHfnGQexqEdgLxr/NxpdR5omur1iNC24urFaLuKMSqWmrvPlhk00oSF9Q0wx3ve3wPbSbsRHkaSa1PhYkJMhvGUsb+Uio5e2SxnannFAfdKbKeKdpcKiWNkxqkUgInV8V3S/RFve22RMJm8V744iC3hELb/UCINty9NaoU/Z5wyVzbRQTJo9mIas462qUCWwzAiW6RpFVp2p42eZ2frPzx06fah5NL8g6koiSvL0ML7hgXUo3aeNLPk6G+oBjZgmGYyWQ6TBbbC2WNrxRrbPqm4C+n/hKrItTHytRZrS+84fV6enT+WctoQXIIcmAcJ6LNRDPaBqTz/tuHPopb3vAOnUURlxbj+wDW4pY33E9lTWj7hOgKscSK99uI5dMQC223rAEASku+DLMQYlZsnuyzXi9tyfcpvhQR3KkvprqQIIp2qqnXG+1XE7VPS2za9yzGD4spNTMfltI7S6lkFayuYVlsZ+bO6obzJsGXV3eVlf2E3DHuz2QS2U+NVgILw7cvbik1vyq0vayzeNYXfb4KF1oYzUmoCyzKIE+L/I7Y6pBYWK8a8RtAPyN+y53vTA49h2peXUsNjPvlQ6OGrazhTgluRxBFOw2p1xL/tJa2LZsmbSaTWSVZbGeq5PN394gE7Uz6NpFBymmzTaRVonaEQ5D36sYlC+2H73t1HOMwBnjf3bfxjja1desAkGB839230TOlm8ShkkKTZqQDod3C4TTT2ZCghro8deXJF/Be/sZ3BkalzAvbGrVY7bz8je/Cy97AvzSpnq7xgfteQ+8jnzZ7btPgBUOFAQr/EO14/IjPjE+SOWMspduXUskqWE3DstheGKvp0FVzNlu9CNiTkUMt5Oeca2a5p2Da3CmRtQiq0qLy4qAfopHZ0TjWCxOWJw0t0Co3JT2hjGCV2Mr/VZuEOpGrieP1fhw3C3VlGGmmUTcXCO5S2Kvev2FbpTc4lmdt3//W2/DAPXKjEuaZKLiDYCl9BYRDpbrNiHHqmUW3AYtuF0LeVOkW54FFlZvJnE2y2M6EnOIce4qsmQjSc3JxldDwi3mOVFhMlKZNljpOk3cSSZkVvjhEaJNIi2NBOViPeG3i08UaqUkvSVbR2b7QOqTCNHUid16k/eHrnSz0qX3kN2l0Kn26HoehP9530iHeReJGYwx+9Ec6LLjV4IjHSzBu6gbRBKpZ/I0KZLa7oJsWEeaNQzCz0Syl65dSydkgi+1Mpsuok52/GM94NWdmz+mZRxnNiAILXhxaaCcxsrk3zeK4rkFG/ui8+gYoRWNkQ2XabtmdVFY9dXmbRbZyF+f3paTLm4jLFtyt6GY6cW1tR2e42WWTjrxJ8Y0kPykhL+l/3Dk8nBfe8kxmA1n+cZPF9kJYfkfOhVOYfYqsmQo0g2351V29rfujAlIX6PWkbgzF4aLXGoV2vB+HCc6Fka81kt9PzzbQGNlIKKlEWJ2OU5UnbW7lwNh5kSPFb1xMtbRwpr3uS5NuLwiultYJUmOpEV4iVvGlgn04dV/OxDLqyJyGpfTQUirZfLLYzmQ6CK3LJgkCliJhfLBXf3FGc9RcOcVJOSmpErqWNJvBw/e9uuITShC8NGPlj5TD7xPF1tGqngZIO7UXwnHapA/mTWwaVymeC7dJy1PSVHKoH75pJ7gru3OnYmMD06QN4Ucuur6VzeP6f/ZKMpnMksliO0Oc4kp1iqyZOqz/IqQIb3chFrGjvieZ/AQ6QctkE5lnnyelVJPQvvfVSoNUxYgQ52+i4sf6Yh3TlB9jXP7ZSplFcLdNlyQ2U/zjlGF4k9LCfYBOJ2UgHMxecOtcypzoTWzmOuHGn7VASZst6fh3fWfh9oPwzJllncf8WSKL7blztob+2WrtggnECgkP0h36vcRymJMrK77ozjgQwmy8N0loSxhU00WozQCJHPLly+68P1TcNcVq+8LoROKgjyznli1OV0fVkGkEd2N8Q1RAYK63x0u+UCjHrdMErbHuD+GHAeAEd8OXAV04valLdioSY3ISbd2aQvzjXBOPb3mbqCQRdAqmbXVmI9nIYbDcRmWxnVn2mMu0RIS2m/FiWRNfZ6PL8MKZ13AJy4kUloK+DBkKbbh2+9sNFziFP7wPZRYR/MM19SVoE9N9EOeVHCbdQCBRUryfJrRF5/Vbo9A+Jf6+RGa2Q8Fb11qHdX/IWjVBblX+lOAOynY7Yf3rhx7Rqv/4hjDsW0qfyazveD87ZLGdmZl8gM+H1OVSRExKZKdYaV/MUHmYhffCFxgAhTEo5FcGWWkZlyb0iPjK7etICYgC43Led/etePmd7wzTKWO13ZXyG2tvclIsr3x4SLqMdOgUmERV02CBW97wTrz0DfcnCqL596SNLB6tf8vh/MqP9Za88iz1WsHt8ONkrsxSYOyORsLE6kMCDkiEzWRUJpNZNllsz5U1PPGtoclni2aRjSV3YaWuSsBkwiy8F77AgGa0H7r3VXhILx0xugDZCSVq0mE6rBLPXzo0VOf77r6tukiYkZoqRSia4qqk+zcVVheqSaUQL+ktQDLVNayp0ZXlFXqvUhNh4VSjDf5ElVgqgl8A96XJGsEdVEc7NRbMzLzLa8K3UdeaHi+LZZmtzszKwntp4RWsguU1KovtzEwsb4ieXYz+wT5ZS6I3iXLvFsvC+pwLlvINWGi/7VUkgi1gvCprgVprHek3ncTBT/QrTAGI8BaJd6pGpyoWyDDfv1Vb4yZIjvBfUy2mdguaFbexvkDC8B9+1jmMwQNvvR0P3PMqVxYV4a0Li+Qw6/4EsRXiGW4R3GGS6I3fiZt3Kk47JKYmUZtaapPJZNaDLLbPMonzeBtmzJaZN9XPlJfLDAMhzOKVi4QbiNC+HTDgdappfFnG7fnUIuJ0/nifkDrBopsDYmOnIrQjRi+d8E+VcNI5vqmacgtbma4/eEuGhJsuMxUHGxad+CRA5/KBtBeENSEJg1+KtyS4Rez7JNEbv1O17hRMU9g0aQPodsKP7FXTDSsymXUli+1MZh0R5TGteJmRyqW2EjCZMEuT0H6Vn9Y3AGQGuKLc2hJnTMpAJcu47lNuTqtWMDxTL7rVoixLtbEAtxZlKVsYr9OEGxcqr8mOMnBmkdMT6VJhAt+VcF5/g1L1QbhRrTb8E5GoU/LrIGvx0L2vWpngTtxbzI141j5A/Ob8kfJh5qxSO27mxcIr2Fyy2D6rzHjQzJgtMyWNF3MLkp+RiFkaTbbVEGZpFtrGcLuCTKqNcXON2hLRE3FiboaGtcJ1FACZyQZKW6IsxxiNxihHY5TjMcYlhY3HtJXlGONyjPG4pI3jKZz23TamtGVZorQlYEziCRaW4qyFLUt6AosT7npCu+QtFvOWwiUfb/7OomlT7tD7KVR/huhyphfc86TxGJ1HjXWfrlhqO/xLJpPpOOapX/s38+E6F1JnxQ4zo7kzZssEVL2oBYIB8I7XvxwAzeDB6RMS2DzP65CndLz63vcH4Y5Y50zJaTVLmGWy0LYcJrb6/NUZP6sC4rgUQft5x8K6km+64x3O54vmlf/rN+PznvQk7O/vwVrL/Uh2BEJOm+PcJ2teGF6KYmBw/fA6PvnJT2Jvbxf/8w8+gn/0b37dp1O+bkfKF6pHjOzHvVbFxdBgDuIILreu7Won6CID3PQ66jcdHNbnd1I1n4poRY3gXNOSd9zxMkBGuWHniq+4Au9l/+5Vb3tfUM7ihu/CCs7MkYX30sIrWAWLb1QW23NjirNqF5jB3BmyZJJUPelCArEtM5N8ceWZxRgRiq++b/5iO7C0avZEwixNQvt2Ly5Upkr+mNq0Ia7dgQNC4XXzHe+Q+5mlcOv/9i14wo0XcbC/j6LXI/tZQEtbxBaJo8lOAxj9oWTJE8u03OTa1av45Kc+jXPnDnDX+/+ZSkc43zc5bCI+M9kGPHjPq3wov4ncXbfDJDozkcdab7sfLgYved3bOyO4xSfTEIhtcAcZsV1utAX/bnliG7EjMx1l4b208AqWzeIblJeRnEWmvAhkVgFLiAl9JRfmBciHUw+TML/fk3cGapY1EtqmIX/ANM2OBZdlDVPahNCWyDltUp7bgEc++gjKssRoTEtIyrKkV1kyMi5R8kbLR/R6blnmwWu4Of9oOMRwNMTh0RGGJydhW3iTd/yL4DNuNtxKS58KgLtKHBk2WQXOQvWY0F8hnOZLkzWjaXZkGbt84DBDBW6ZjvuOglWu4rar9ElmdW0mk1koWWxnWjHxJJ9ZGHWCW56gAZntbEGbVEmtUAloJkzOe2oJqmH79Rpt1ZyIakjA1AJDZ7B46RvuV7pGBDK/jfTizFtFd1v8i1/6bxgOhxiPR7wOmjdbwvK67LIcB+un4WZuqSARaCVo7fR4PIItLS5fvY6T4Shsi9viNdjtt9RNhG+SxU13vJ2Cuc0zI4U2QgPGjRmzYsF9SsS/zt/SaeIIfxhlMpk1I4vts8YMZ+oZsmQWhJF/sQKfUycli0kG1hMm9wpBwg1CoW2RuqEwapvApCTuOd2Ct+nm19+P0rJktFZr08lab0Z0+cOTIcqSapI5TWtLLWFZhNUU4IQvRZTWYlyW+NKnPw3XD6/PvS1B1S6A7eS3N93xdq5Pao1rjzusoZ8rwyCRTrqTq1lvwS19yl9Ohe9bQC/DavDZQllFnZlpyb3UPbLYngt5aGcWiwGqU7/6c+uqWvVEUfFlWvYrJSQDmwmT816t0KZQLxyqltRWX01akXTNKtPg5jveAdK5XmQvm5PhEGVZAs4PEU5ohYFOk0VJLC/pGI9LlNiK8s0fqV9EouXlKSK4rZvejtuAagfGNERVIqPdaZ5S0ljNMuGbPt+neoZbnBy7rTPWZzKZBrLYzjSST+WrIhYnsbio9kw1pJlGqVMbUU+YhfcahDbJimpFYlc1ZjLOa5H7Ym/edMfbSWjzbPa0iCCKt2k5ORl61WwMjClC+aedx5DZMgvOM99goVZajEYjjMsxHviJf+czLQELEYSWBfc7AOM1Yki73g3GgstSzWtRfTLNw2skuA11f2CJ61X55MUHks0T7rEzmYWxceNu8Q3KTyOZC4vvqLkwg5kzZMk0kvaoFgFGPfpPCC64Kax/RINhMeYxfNGWH0MZo1f0AACvue9Bla7WvImE2XivVmiztmwpcpKtrsuYSEytFyxewl+GlJnYJibFz4qY/+Lv/Dp84ZM/H3t7u+j1emrZgLfPGF42ZAwKUVjcv6X0Mz+J5PrhIT796UexuzPAPQ//Sy5ovu2oc73GAHzzADwcPGZQ98aEktT4geSKG1JJUN15yQoeC/jON7yS3/FxZ+m55tSh0qeF60pr6dONeEyKHyHiWhrMz1A3Brj9nvf6DEv7hGY5tWROx0J7aaGFr4LFNiiL7bkw4aLRFaY0c8rkmdZUPetCZhHbSljXPmtbUEX8g9fe7MV21aTWhFlFDPhwAxIXD95zu186om4MmqhpMaEz1yZkdcO8RL7A1yC068LrIxqY0MD/9Vv/Ip75tCdjb38PW1t9np5VSwcgviRhptfqOwHJ/T8ajXB4/RB//GefwN7ODv7+//lvXNpG4nZNsFnTlNQANYJbU9eJNIDi8qm9UWAtvu+X/VjAd77hlbjtre+Og2t5xx0v47X5VLvqen4THzf+V0Bf9bYstjNpFtpLCy18FSy2QXkZSSZJfJHLrI7kx/ByYZZ1nZa+WDcRozdWM6fo7DAr72mhbYAH77kND95zG+sFy5E2Xe009li1JbOKcCLxSoKLfJd0aep0G9UxNTp/opx//G9/FeOSvgxnxHHGsLimGW2DwjVMdTsVxeVZ/mXIUTnGkz7niTg6OtbVVG2osWfatDXBgITzMp2X8GMBq2mbC0+ENhMMAj8auvylSQO6cXI7Ctd+EeGBQ6b2zhxZtpcymfUmi+2zQj43rg1yCVUTXeF8mw/k2TB6TYryBvQs6SyEuXkvFtpvvc3VQ/a5WH5VJJWQptpAo7Y4TLDgXxgEGVEtJSrZqm0RROUPh2P6yXO9sMbIn6QjKsYZGHoe92iM0XCI9/zEz1XqmQs1ZdZVYcE+t9QHUGO6GZ9IJ290SzwIIpYpuMNlXFOQyJb2hLxPZMhkmNOO48z8yGI7UyEfoKtHX6uT8lCWlchrXboFEY4RLxAlPBbagH9cYavxlWxKstZGjBLa8TICcDVBWJwAUKlOs9VggePjI5TucX+RAJQtQJaPhCGlLTEcDTEcDhurnBtR0+paSraSzTfd8Q4KYwFer0m50RxfV7bDD8EkEj6t4K4rbxIzi+3Gdk62pj5vJpNZJVlsnwUmn6MzK6Z6kSR5UZWHTUzZ0TPObIe5vMqRcFo6cjsM/6Q4LYfwcSJkKoiimqbJMayQ6MkUhr4cVyN+gpBkvclAhzZ3sun1sdcPDzEej+kLdEAg9GiTGe/IazqRpV/CHA5HOBkOw3QVYovbbjVEUamUFqgIboC+4OfRDVJEBbrYmuTRLsBFSPg0grsS1JLpjtsE8Z2IoT+y8stbNYt182KVdWdWTu7+qchiOxOQj59uMEHeBNdaEWPT9l3BYngawjp4Lxbab72N9y3PZhv+ohy9T9k5sb0JkulFo1j+UhxaCu2AqjUSorc6mtNVQ//sE5+kn1x3YhssrGTj5fUJx5FHC1h+4sXxyRDHR/Iz7Zq0RbGt8RaSDgWqUalUFlCC+34KS/RNEk4mqXlUOfR+WKI3TAvgh+99Fa+N97j3gZ9pJ+H6RqZNL4iFzuqkf+SA8zexq2PlBmQya8H0V9tMJrM84hkuoKq6WGnEs3WTKIr2h38sbtxeSmg7+3Sa5NwsEIkjERkpiZFCp9efA7yk8qMqniCkEu0DprWljnQZPuSf/eJ/w2g8co/xc8Jaq2zeyLXiSxbjBS/LKEtcOzzCtcMjX01Uu25T1aYq6bTVEIcKTqWwQCS4DQ9vNTJSgyQVlhyXTKVy61LKKJnmOdzyN1lXAjPFsQWQT9xxnhiz7WvOZELyyOkGU54RMmvHFEfaFEkziyYW2fH76Ho8y9x2rNnrqCbjEC20oYR2LJ4aSMkKoSkulIH6iSzWPd7vtEJ73oi1YQgxHo1hbRmKbNWvtd6kDDyzXeLJT3oiPvAvf4Uj62qbjSb7A1RwKoUFvOB+/TtgTNRXloeP3phaPyRJ1U4+pVf6pUm0Ftw+3yTkOfbToK11tSVuoC38xzeJIb4CYgszmUxMFtsZIJ8ul8gUnmZ1Y0VcKwEerwm1kEfqtYd+qryZapEcEs9o36OEdpwpUQ83bQbCnCKqZbt2OOqk0K6Hajs5OUHJHSJCyxh2Mu1Qav5CrLbRAPTlyOEYo+GYQ+PxMT+mLTmVwoIa4/rKULtc6iiTuKFKfUxInMbvP8y/aKpTuPeV4mmnEhwx3cy2f2Y27XLJwd0w+UZOAasarZlMZjamOSNkMpklYS1JKpFVNpq9TVEXXof/Ql6VtJgQEeDjDIAH3nobjCwHqGZivJSSFk1PKDHo1zBFgJS4dn2Mcly6GxJNEFKJXq50SdVxdHRMvzJoWWSx0HaCO4ZFNwlW+mXQ0WiEo+Pqeu1UfadlYpkTE/gkN91xPz36UNovMfySan51hKZTtcGYCTPcyR0KqKs10MktiFujC/AusW6bdC5YPlM2OJM5Y2Sxvcm0PP+1TJZZFXKNTVEJ98sO/Gt6K2t+BCc9Hvwsq8QbAA+89VYYNoP0gZROiBagFy8WdGiVODx0gLX05A0SHSXK8Ri33PlulOMxynKczJ3eCQMqUQskrMvi8OjI3TyARbZf7hD1SGRoWZYoyxJHR8c4Oj5eWpsm1qKCa1LwTSVw8+vvd+KRbjrqcqhBGA41TyVrlMjthj7+QNMa7sqOD4jNMABGw5FaAtT8jwrgmyspRKawK06MwjpFxUGZTIbJP9c+Fzp6kmlpVstkmbmR9rhxf4B/8NqX8kVV1kDrRAk4KfiLj+4pICDxIjOg4BlR+RLjD973QFhOABcYvrj377/7VhQF1eOFdoiboOM31RRQoZNPRRZeaJc8G3rtOn250NoS1pb4of/94Uqe9E4YUIlaIKEfDL71uU/H1z3vOdg/OMD29pZPQ13o2m1tyf1JcYUxGI1GuH79EB/7kz/F+37iF1S5i2lbbHstUVRdShmLhQHed9cr+Qks6hc0g4zRTL91f6Jd3eIGQ1wyvzRHP5c9JgipRhOGfn4dMCjHo6QlYiIdpsZ3NC8VAd+E0BigXPRel0K8+t73u/cJk5fMyg3I1LCQnllIoatisY3JYvvU1F1COkAL01okycydtNf1dZTE9hS4KzOtFzUsgEmXKbHdhKR1uzK7ZkCaoIApDIn5okBRFNgd+Ef6CdWP0L1AqkRNgUUotK0tcf1wjJJ/7pzENgnR0pbB7DDlp7zeChMIHO8fy/UoZMZTd5JDp6U4EZAass0vDfJikvrr8OgKzh8cYDAYeP3FNop91oa2GUPrva9du4bBznlAfWKhb4Cobfpmiz7ULAz/FLzhmzr2gQX/fLwrws+8ap9WSLQb2mPBG9kJ/VGYAnt7PRpj7AhfbL3YVm+jPoGuOJGf3uj81495TJX0lBcZW9KHgJTDNuoZcWPcEq2ylDX0EsevwZDRvijVWLTe2278aeOJboltJHyf6QIL6ZWFFLoqFtuYvIxkU6mekzNrhBdi03UkCczwmmyghKRcw+V9A8bCDySnB0RYmIrQZs0huf02XROSkBAi40XwXD8cBwKI0gAWJHSsErb6JgIgCePNShgY+32SinF+jX+oxRMGiwXektFw6H5J0roqfb1uTBR+g6EnkQxHI190Aie8Wdz7sGhMpAjs4E4OO9uj/aSEqXeP+8WhoGLpx9KWKG2J69fpR37ocYhx7zHKrshVCVQj5W2QXo8Hi91tw+M/XaiPUiPMNU1u67xtrjp+E1avUqSqE8MS7u4ma2NoJrM0stg+Namz43qQT4mroKXXlZBJCe7K7GK0q2fHnNAGp+O0xs1U6mj/j4SZmn01BgXv7+36pSqku6SkuMTT4UWKmt0tLa4dKaGthQwjNlE7lFAFzSK7dPzYPI8IHn66i6HCSNhSDpdX30e4Ogr2id58Gl8GLxdgaW1hcXh0jHLMs/MSoyZSAa6jUKLbGFhb4uTE/2qk1Eutk3+yLEP7hk//eiBwO03QOB5LPMtblmMniv3tDPuJZ+ll/EjjDftEwsRXzk6+aQB/KlHypxYkwNXNlPSP6vCw7+WNczaFBvF1G5vLftrd8UtZfCeqqrgOyuI97cqRJAkC61wDwpI9rtQgNMqi32YymY6RxfYmUnOCz6wvWjbJpbcZuvSKgNH4MqrlOOlnaIbWCwl+LQz2dnouv4ilWlRUQ6oKTkeI0BKhbS2uH41J+EnbLKdWqjTWz84HYq62S94HBvqEPpjeRdqLY7w4jeMCW1SplM736dHREca29F+UlDZHIqwwBkVBNz6Wn0RyfHzChukSxSDaRGAHNxwSp1rsG6gbYmFB4lr7k96yhZGtGh+ejhekj0tuV63gri0ncr5CblxkS4XFQ2l3QMtsqNSwbLKGjxfJ6COT1AS7Jul410cuUOoQX9T7e/XE4yeTOdtksX1GyafB7hFcNvlqL+JDX1jbXmSdYFNpnSj0yooTuyRulo5UBotCU8CYAnu7PTfTF4jUoMwqNcFJvLbwM7tOaB+WtI428oUTTxweC95WBmgfyBb7KS6HRWwoTpXQjeWTm9UNfVgUBR67dBnj0RjlmNf5+kZR7sAg2iz/zPvh0XVfbhFuuk6j43S7nNUixaXfKT7oBxZ7KHnjMSYtbR6bbIcbYWocCVb6nmbSgyUlMiZU0mbiwj16zGibA/sNsDfw34GoLc/ZpPxgGwwU3xp/kxbGR8/ehvgl6gtpRGdJNS6TOXtksX0Gyae/7uMvpP6K/YP3PYDX3Oe/DOXQ11t9EY6Etk8QBTFxWtICBsYUKApeOhKII34T1V8NFEhe+S3EtVSJKtql9hwe0q8sWg7jNy6P2J/UH1K43maArI7bQT5xgjZoW9xOEVicBwUJXwB/7iu+CuMxtbEJJ6r5y5DjcYnPPHbZ1e0Xcqh/fLMk+1yS/K/Y6cI4WOpLIv0FL/7isdSM+FDVYQELmuUvRXCP6RGH1Pd+fEwmIeiZWGS7fWk3/9nlZVO6j70feTiV/OXVMtF6r5CjOGq7GMh7/J7e/eCPPIjX3PdgKLKrNXSYGudnMmeILLY3jXxe2wxEaMsLX6StPK7PiU1JL8l5RlALbknrC/cX/8Sl378WKIIZ7cLNrFbES1CUNkrKIumgxYS8c1mViCIhZd1TIK4fjv0j76LyQ+q/oJhiomipRIeFO5GtJK5PyS3XIi0QbLJEgcSWBTAa0WMMpYSQuG6a2R6XY3z1n3+eBLKQ91vVIZVGVWqSMMNvDIvhQBBrLPefjK0Uru/CeMNmQ+oQa0rwow5pu3Y4dk+hkS9OJoqrgcZsbL7urzS+3Xs7PV4nz8cBHwuEHJ/6pmOSYZKXX1Vx4ve/+yMP+TL533qifZXJnD2y2D5j5NPdepG6ZP+9H77ZXdg1sdC2fpUt/Y01t9JIrix3/ac1wSgM9lloh2IrHkliaVxDGi9R5I0W2RQj7bh+OOLHr8kPnkgaslOEiZfznthHk/GzuRD7/B9KwTqLfKHEoZFIb4YI8NQ/Sa89OhxSW12Afo2x9IM2wyE9iaTa+gh1wxa3SeN7kuO5zwPba2gzAmS8+XoiuHg3nvlHe8pSHvVI4U5wuxL0frJkwDfH7yf+cYRLIZ2+z4K7UF8WloQ0XvnmFmVYf1ypdX8UXBaPIQPg77/2ZhfrU/t3TX3RTSaO0syCyF5vIj4W509+zvZc6NAwnmDKhOi15qX3fC0fMvQcYQOazXrfHb9MCVY+0id7X67J7jnbrCzrTNcXWxFHJKzDHFoY6uu+FtqGErKuoGdp7+/0OMwLbXrRbamzDpTO6Vf9V+SQn832eNFCQlsLqzAdZaebCvDzp5sEdkqcuNsRJ5QolP8Dqs3kB3rPIZzAhxGJOxuNYV+DfC1Bf/Knj+CJn/V47O3tqkf0id/DmWVrLa5du4ZPffJTeMITnwQrP5JijfeBW7ag/lKnE9LfbLtOrfuJXBQ1yJmi2q36mlyifUIYThTeuHG9UpmMS6nTjUFZ0tSnH1TimXApSpuYqNqh01n9TPEIssG/l5+Vv85Pw/HRMoYlgJ9mo4MU5Bv3px65QdLjUjzMDXzNfQ/48uOKOs/aGbzWzN3bcy9wVSy+IXlme5OYcN6eEL0RGH3x5d/peNm9Xx8nm8gLf+jZ+NZXPxMvuO1L8Fde/gx804u/BN/1A38xTrYUUqcBbmWlU1NpURNuSSLEwQAvidjboY/LvcDUAoZyS8kkVP0Ww6nU3yBC7esZ7bEX2iqcKrB+RLvZ7XiEhzZ6YexnKn243GRIKn2TIEWIDS5AiVp2gqov7huuxtXNtQZJrl2/zk/iCPPHRQHgdCWOh0O2XyqoONWbx19odCQKlmh5NfKnklb8yK7kePIA/0sMCifoXZDeFwHLfe5cy76HX1YkwpfqqY67eF/CLJcv/6BsitH9I10HWVLCbUdke8XB1cOUcGnjuqPUgZ8oTo5/ffO1niQHViazcWSxndkM9Pna6AsZ+GP5uitele96yXOwu9PDxQt7uHDDHm58/D4e96R9XCoeiZNOQcvKGS0M45w+zgW49wbq4qx1TkJ5UDYRmVwXb7v81BE9kxtf1xM6KgELEKfxqn81EnL9cAw4MeRFkUuj+peIvRTbx2kj11UFt39+NXjMmKg6L7gTcFvdFiPi1NXpGY/HGJUFyrGFtSXFS5Jq89zSmqtXr3GIt5kSeCFKIlvkZekXGKlfowzMTdnuDeennNBtWRF/8ZLbTkV4SetuliSNwxnMf8PK3b6lmWVaSmRx/cj/YqivJUSPAUqaTodEvYKegXfHAz+HO+7FdOl8c6Xc596wr7xDEh0d4Y5ZntnfDJxnMpmNJIvtM8JZOI15cahmnHj9q2u/nNP1pjHAFXMJALC/tY0bd/Zx0O9jdHIVx5ePo8RtiSupQSVjecICKUpi6CPqQODwRRjOD/4n1YuCvuQoBfjyRGiL3/jLkDv0E9S+9FBoTxbYMbHAoraJCPavtF27Tk/koCdPBBldxXEwR1beS/uA6Mud+ibG+URC1DgiR1M/6IYr4SgCrknIOeJo5dhefwtf9JQvpC+Fsgj2VlbHED2pw+JLnvEs1SFO5SahPlXP2q4Ta+qGQHKI3yp5UoOBfUUCF9xwq1pB+5TU970tS5/XpYuw3v+HSnBPotI33gQVlPgXt0/GEQz2dmr8Byk7UPphnOwb9yeMcP5LGOqOzE2Dj7lMZsPIYntTWOPz0wtu/VL8tTu+Et926xfHUZNR52bDAlEC5Prmn+5Qg2Thcgr+GfLCFChgMLZjlGWJz9t9apyzBS06pvb6QoonGZXEt5MuzyJiSvfIPJ9EfvKbnjhSmB6vhe2hKORpC1W7QlemRAChdalDlSVxOo0BcHgsP7UuIZZs9clcprB26mwLEW86qaSU1DJgJK/GDwYaTyFSc9w0OF9b9bXUBErExqJ1ODzG9vYAwzHdZEhsrG0F+eKgcxX4jfYztL/ENv/rj17QqQy8VfpPxQVt4E08F6SP3kqdGmof+7qmsWS73/OhfsyAhan+10jF4ASVIridktcYfixgmCrIpuvhtgaB4tcIHRQkcVnbNGBd2dR2Zc4q+QuSc2PFJ4eG6huiVsYLXvFsbO0abA962N7uo18UuHr1Kv7lj/xu8sITUNOgl937fEB+fts9uYLeP/zGX5t88WW+/fan4/zFfVwY7KMwBS4fXcGVq1fwr/7+/4yTEsli2cgaW+uYMnmL9KEdOr0xBu9/yysAniX3CWQmO37VOokVGsfX4UWIv3Gw8H9EDFsLvPQN71SutPh7P3wzl+2FdKjOxSiQjCxLACV++O/9qASvjKpMV0yIuvOW78bFC+ewu7sTR7slDdZaHB0d49Lly3jze34iTuZoO+aXAVne0HjUR8fBNOzIyw+89Ta11EMnkLdhXGuf+IGaCOax626wLF72pvdWZ8FTJVQCBD36pyNIP23maYk7ow2nsulUmTOKuXpyroWtmsU3JovtuTHLGWiONFTfELUyXvSDX4z9/V0Mtvew1etjNB7h6tF1HH5ijJ9+8Hfi5K0aIV+ElNncUtap2hJgsfaBN/96nC3C4IWveQbOndvDxcEBAODS8WU89tij+Nf3f7TFQVlv6C1v+zo8cMevuP26kupLaEd9fi94jQEeuPvWII4EjApqnG0U61NxISLYpW4LeLHC5fzyb/wORqMRrLUoxyV2Btu4cHCAnd0Btrd66Pf76PUK9Ho99Hq0BGJclhiPRxiNxhgNRzg+OcH164e4dPkyHrt0hes2KHo0U9/r9UGTsAY/8cFf1SbOnfDmJSQRFPDDL/4beOITHo/d3W0XlhJxR4dHePTyVdz13n8KtJeQnST0ScJDKiiONcbgoXtuq8a4LqA38Q1jo8fcpwE16PErM+oWeNkb3+3yuLxBIX6ntuwpSZaTDJyS2NEJXvKW5/I5IrwPfvhNk86zE0janwzMTMFcPTjXwlbJchqSxfbcaHFmWhQNVTdErZTvuPlp2PusfRzs7GCvv4exHeOx42u4cvk6fvrtv0fjf0rjtdguy5K/QCbrfin8H77lN5svsjB40d/9Epw72MOF7X088slPoCx6GI9KlGNgfFJie7yDf/uB/xpnbMQAeNl9z6e1uMbg/a+jxxGmLJmy2UmSZaiP+h94KwttViDJ9ADAyykmESepTkCr5Q2W/ohY+ZXf+B2M+SfKR+MxYC0G2yK2t7HV76PfK9Drk9Du9/ooDInt0XiM8WiE4WiE46MTHB4e4jEltq21bt06jEGv34MtLf7Zz/+GmDd3DAzefsctvAaeQohUb8P5xoB/Th2G/cOPmhNfBU4lkXnp8qN407v+MaXRRa45fjglxp4KkrfGGDzIM9zWyg8bKb8mxmfSYzwm/dt0GpXChYGXrN3yxneHsdU3qZpnYl7lzMpNdz2XXGRCtT2t2P5L3/9EnHv8Z6EclxiPLOzIoD/awr9+4LejlKtu8XozV+/NtbBVspyG5DXbmZXw0w/9AU5OjjAsR4ABekUfW70etrd7lCBxjZ2E+4i9pC+Y0RKSarxR/6givxkARU//YIXF+YMBbrhhHzc8bg+P/5wDFAf0Bcq2GBbaYOFqANxy7/PxsnufX2lmvD83lNB+/92v9NfF1HnGxuGpRB4vKJus576wPpkxwK/8xu84QWytRa/gL3YaNQ0uWVV/OotcnCS1NJvNTxTp9Qp+agPQ3+pzGI+xBfGWW7+XRpIVOecdKu9CF4fjlOCxwuLbGHYYbzKWL5y/Ee+885UTfL9+VD0WRUZvrbW4+Q3v5Ke4KN1X8WsCyxnojsYFVeAk1KtRCnZ/YQzef9crddDGQu2rfrfBWv1F2Hb0B9vY3y1w8eIebrxxDzd81g56B5cTp5VpS85kukGe2Z4bKzwJ1FRdE9wNDPAdtz4VBxcPcH7nHLZ7WzganeDy0TVc+fR1/Nv3/X6co4Jvn8E33/QslMUQxZZB0QOefOONsHbsLroGJFb+9MoVgH/0Rp7mUJaWHrc2Boqyh4MbDc7v72G/v4tHPv1nOH/uAOe392GNxWPXLuEzn/4Ufva9f+Jqb0JsfNl9/Kxv+fjZyKyrwfte+8vu0j2vPgvLIbH2wN0kAmD5xoOcEqTUSLQBi7wEXmgLLFZiLeKSyBuLX/nN36V0ZUk/SsOfSADA9tYWDvb3sLuzja1eD0WvQL9XoN/vo98n0VyWJS0hGY9oGckxzWxfunIFly5fgbXAeDxCUfSwe3Aj1SrLi5THK03gcMDSFwn5UxIfVYA0sOGnvFh6XkdhMDy+jud85bNxsLdLj8dzZWl4ACikP0hEex/JDYbldcEcHPqd++i2u9+dnq3dALy3Il96F9Crm+H2oe4mW2X1otkPVumVwIOWnS39QH88uh8kPfUcXnqnX1ISv5lXL82rnFkwAF5y1/MAtkOW6wHAj775N6ay7dtf9UW4eOEAF3cvoITF5cNLuHLlCn7yH/xhmDDsHL2TacFcPTbXwlbJchqSxfbciC4Cy6Sm6prgbmCAr3n+jfjcr/8cnNvdx/7WHv7wo5fQ2xujV4zoi5JhcgAGf/nmZ6A/MOhv99Dv0xM0ej2eXZGLIkpc7O8Ga7VpQrDA5dERih494o4uECR+6YdTSIhZC1zY28Fub4A/eeyTOLe/j/PbB7Ao8emrn8FnPvUZfPD97cX2y3/kG3i2hz7itlZ+jtsvJ5kncb8bY0hoy5HuBIp7k0ALFP9FyZgwnIVEzRlFC+7/+J//OwCgHNMv8Vn4JRNlaTHY6uPgYB87AxLbvX6d2KY128PRECfHQxweHeHylSu4dPkqhqMh7JieuvH0ZzyTqrYkCtxNmAhc9yQbSSYiVx4tpzIogS5CDjCwFvizT/wJvuxLn4n9vV2K57gq2kleaPvyCEuDtCryBLkZYjZZcCPwpPITv3U9YQweeuttbsCFY5hwYttCensy6kuRgFToyw36inGC2wXRm1b1tWCWcr71lq+E2T3Bzu42/vk98TKN9hgAN939POcOOrfRzrRi+0V/9xk4f+4AFwfnAFg8evgYHnv0Ev71Oz8cJyUif2baMVdvzbWwVbG8RuRlJHNjeZ0WkLqO1wcvhFvufT5uuff5cXAa4437T7/8Gex+/PH4s08f4o8vXcLB4wucO7eDra0+vvmmpwAAXvCKZ+HbXvMsvOh1X4G/8fqvwOOeuI8bbtzDxfN7OH+wgwv7Ozi/u4sLu7u4uLOLG3b3ccNg34snJ2Bo/+L2Hi5u7+Pi9h5uGOzjxsE+btjZww07e7iws4cLu7s4v7vjZ8P40XjgWc7SWoxPRvirL3+Ga4reEs2MYGHJQnPRiNB2gpZFgdxgOMEhmyMazyqjF5/6S46UXi68KSTu1/7L/+DnePMPc3CkMcCfe/aX4Dlf/iU4GlmcjCyOhyWOxyW9DkscHY9w/fAE1w5PcP1oiMPjEY5ORjg6GeOI04zKHsZmG3/p6/4i9dl4jHP7u7Qd7OL8wR4unN/HhfP79KnFuX1cOLeP8+f2cP7cHs4d7OLc/h7O7e/gYI/yHRzs4dzBHs7t7+H8wR7OnaP3B/u7OOByd3l9OY05GnEAK+7KgFCBgWhvwj8PkG4QpI75oodDalslvn5lCb+VEGstbnrDO11Iaky2cncdKm98zOs+sRZ44K5XunDNaaqflW991bPx1+/4Shw8ocANF/dR2BP85R94UpxsIm4o8wSG/+RATXpM0UYDoFfQ0j2AniJVlnLzXYMYwef2TKbr5JntubKCg76myprg+WGAl9/3DSjHpa/MWrz/9b+SviLXGPS0pwzx5d/9LJw7dwP6RQ+DYguXjq7gypWrGOweoOgb9IsCPVOgX/BmevyrdSE0qyJLQ+QLkrx+0MgzpY37spyIcM7tZmU0n7jyGM7t7WKvv4vh+ASPXnsMf/bIn+GzvuDzMBqXGJ4McXI8QnmlwM/9+Ifi7Hj5j3wDILbxTCnNogMP3vkf0746JdIiLbQDZJccEwiPcLbbz+BqP3nqZ7xDrEv7a//lQ24GzAIoy7F/XrS1+HPPfgaKoof/53f+B84f7JOA3dpCv0efZPT7ffSKHgoD8v9oiNGQviA5PBkCAEyvh/G4xNHhEUbjMYreNj73sx+nZqupDSQMQD9Pz+LVCTd3M+HHhRO4btxIYgAwOD45wSOPfAxf9EVPwcH+HuUJ/Elp9cwn3RDy+4QCtNbi9rvVcgQA73wDLwdCaAYA3PbWd1f7uwHr/pwS34yl4etTNSs7DD+lxPs1Mbst/eyD65GZ7Zr+o6L8DSzt0qdrt7z5vRVnt6qzBW3L+Ws/+DRcuOEJ2DIFtntbuHx0GY89egn/5v4/nFiG7tuX3ff1gAVKWaanjhF5ffiNv6ZyTOZv3PEsnN/bx/7WLkblCI8dXsan//TT+HcPt/sEEZAOUBjgpru/Bg/d+avVuDPK3Lwwt4JWzfIakme2N5CFX/QM8PJ7eWkEfxHNGINCvnimDTDNBv3BH23h+PAYw+ERdoot9EyBQX8L/a0erv7+VVwc7OHi9h4ubO9ivz/AgNMo7eI2Qao0iGawZHY3uug5IrHzod/7KEwBntkGRvzjNhgaXNjZpxn1c/u4eMMBzn/uAN/xd5+Jv/rKL8I3f++XcHlhLX5mmZaSvOQtz8OL3/JcleL0uBYYgwfvvhWwLAhSjiJj2B4WH2Il+8i7ijNLOpfXJUgQVvjrv/375GMRqxLFoqd6PaR0BjzGZN9IHP8VvcPjsFcAe7vbeMITbsDnPemz8flPegIG21sYbG9jMNjCzmAbOzvb2BlsYzAYYGewRfFbfQy2eZOwAaULtu1t7Ay26HV7G4PtLWxv8aMJCxorbHXYXrFVzwCq/TQmcH+tq1Edv5NgnTkf1LigcbR4fB2qNlW3tRY3vf6dPK4MwMe+b7bP1+i5VKP4vVXRUMcOnWfkB5pKvPdNt/jBOmfalGgAXH7sEobH17HT20LfGGz3trC9M8A3fc8XuDJkpMZbgPODz0VjmG5aaTLDJ6/jhTc/G9/xQ8/CN/1vX0BPDOLzrHwaZcoWhWjkWOPt5rd+LWAtbrrrefiBN391nDqTWSpZbK8zU56L5om/kMhVh0SbPH4vfZb2GADfeuuX40Wv/QocXT7CcHiC4/ExYC22elvY6m+hvPEY20XfnYQhFzd3kYuu8Lp0A1gROSJCRLAZTtPA+173H3D1+DIKnlU3BihLmpXeGg4w6PVxsDXAxcE+btjZx4U9Wl5w4cYD7D9pC9/66qfjG1/yFFeLPB2lLEvAltQCS0/OeMldz8VNd//FyIJTwGtWRWOk5u1EVDthzcpLBFhScDu9wWm5Ddr1Vb1HAb/x278fdhGTyqtnkzXVEGciv1I+ubmg3rcoDD0loidbYdArChbHJA6KAigKeopJUXCanrxyWhbT8ihBl7ZnYERfSPsN/0JncP2PDwoR2fE2BVayhbO2TVQOl0UQHZqLqs6Xq2qQIc1j6abX38/jSQaYjBXJQOFJ77Px9OIbQ2I6bCTtqzjOL9W8540vDSqo1HUK4hGky5b3w2sjHB1dx/HoGNYCg942tre30KPvDre3R24W5cbXgP64MS7pVJ4E460hBn3AbpeB2B7zp3/XP3UYZ5kKy8v0pC++/43Pwfe/8TlRqszZZVFnpTR5GclcmXB2mTeJ6hJBC4F+rZFRJ1gDg/e+7pd8XMT33fSN+Pj+J7Gzt4WtrQJbRQ/bvR4+/ZlP4ML5i7gwOAcY4NHDy7h06RK+8LOfzDnDYWrBF8KID//hVYy2jmH6gOmRyDLu18flUWoh1rKQLi3smJ5MgtLAmCM87gk34PxgD/2ih8uHV3D56mV87uM+Jy7CMbJjHI9HOBmPcHIyxMnwBNevHWFw+QI+7xn7fFHmb+0baogpSBw+NOGj179yyxfh37+/5lcs3TWPvxzGvrHqY21NLMBp1thfOP31M745ERGh0jqhR6++W+jNb/w/f4CyLGH4GcgiUqwFxuWYvoTIy0i+8llPR1EU+K+/+/s4f+4Au7sDDHgZSa/fo9cezaCNxvRjNiN+zvZwOIS1Flv9PrnWypp4i3PnL/pjQ9mdguyvji0gEhPqQl7yLzp+7I//FE99ylNw7hwtI4nxZWtxLD52A1siAAC33fUu71MD3P+GV/DbqM8McOtb3lXpW03ikFkJNa6fGV+cKli5xxiDh992O++RE+JxGr7zCVyfOcGtU+qGkOf9jSLnd78mT/9e8ZYHfNmSdUl8+6u+ADfe8DicH5wHAFw+voLHLl/BT/396hK4JAZ42X3fgD/80KMYb4+AvkWvX6DXo06Vm0oR47qVlfNsaYGxAex1PO6zbsD5wT76RR/XTq7i8vVr+Of30peohWl8JT+2I/1hrYUtx7Al8GNv/a04+ZlhGh82MreCVslyG5HF9tyZ81WkiURViaDFYOhHZCzPzsKqR2QZg/e97j8Eyb/9pq+COT/EYKePra0eiex+HwOzhZ4x+NBHPoSLj3scbti7gH7Rx/XhdTx69TIe+5MreNazvjg4MCyAj/zRFYy2j9HbNuj3adbRzzYCgAE9XplnXLQxDi8SZTbKlhYlSAhaCwz6Bue36WfbHzu8hEuXHsXRYzv44md8Vlq5iIqwFkfjIY5GJzg5GeLo5BgnxyN8weOfQD4D+ZAeHUf5HnrDf9IlBfyl7/lC3PCU8zg+OsG/efvvxdFcHi8dgaWQGqEtaFHmhJsPUL5LOJCrEB+KCBVBbYxBaS1+87fp5kAuepBX9vXY8tNI+MtQX/7Mp8HaEr/9X38HN1y8iN3dHQy2t9Dr9ehTBn4OtwFgbYnxeIzxeIwTXrN9cnIC2DGOrl8DMMa10TaOjo/wVc+mpT1eLIczwbHwcgLLUZ051mlKazEcjvDIx/4EX/z0p+PcQZPYJrTYVsOGUb7ivqRQTiCPbxRY6DSJ7dRw7QKxX0+DL4rfqRdjDB6653aXghC/xsHezy6Fpf6o8y9cf1UCK+P/FXctV3B/84u/FL2DEuOjy7jxCTfi4t4F9IstHI2O8Jkrj+HyJ67j5/7hR8NMBnjB3/ky2IMxn2d76PfDT3UMnxroC8/e2a4fePhKhJxnS77ZthYoYbFdABcGBzAwuHJyFZevXsbVT/Xw7//hf684aJK/DIAXv+W5sNBPgCKxDWPwD+/6z5ML2VDm1uy5FbRKltuILLbnzhyvHE0kqkkELQ4D3PK26hNIDF+nHng9PTv6Rbd8Ncr9Q+zsbGF7u4ftokdrBQuafRR+97/+D1x88nlc2L+A/a09jMoxPnP9Eh77zKP44ic/DX/wkUdhdsb0yL8ef7TvPvIveHlAj74AaQoUoC9DuguAE568ASxQDF/t+UIAizGfnEtLj43b7W3DwODRw0cxRh/jssRwNMboZIThyQij68AznvbEQGjTK2BhcTIe4XB4hIP+gJ/x7Krn+otGoQ0AL/rhZ+Ngb4DReIyT0RiXP3kNP/8wPYPW8J8H7+YZbX6GN5A4n6QVZhUulC6mcvU0qQIDsa1H4U2vvx8v+e4Xkle53SJWaFlNiXE5diIGAL7smU+FgcF4NMT//NDv0kfLvA60MAXo3oTqoIsofblyPKb19KPRCF/+lV+Nre1tnJwc49d+67cx2N7G0z7/s9k6tq/pYJEZTNXauuSW/1hYnJyM8KnPPIYvfvrTcbC/69PELmOSYjv8U9uPWvD5Nhncetc7fSJFnQ2dInFPNwu+DFUal02C+zYK00K6jgaxrYW1vsnU6DTWchn8T2a4G2qvRZ5vPemLiN/8imdga6fAYLCFrX4Pj/zWH+Czn/05uHjuAvb6eyhtiUePLuNTn/gU/v37P4ZvfvGz0Nu32BrQF5Jp+ZQsv6JHpvb5WCyMcedZ+RaNa41rqzp1qA4u+akjcp4tYbFbbMMY4NLRZQxRYDwuMRqXGI9KnJyMUB4afPD9v+PaJsT+e7Gsz+Zzl3yqVpYlCW3fqWeOuTV7bgWtiuU3IIvtuTOPy0ULEtUkghYHnzdfes/z6U0wiugk+rHLVzDYKrC93ceg38dObxt943+9T9v7ntf9Il74qqfiwoWLuDA4DwPg8sk1PHr5ErYG++j1SUz3CoO+MfR0EtNDz7AI45O5P7GHF0rS2LRUgS6ANOthDD2lRD72TE6zcdvGKDG2JUblGGM7xnA8dj8ZPhpZjIZjHB+O8PTPf6K/sLJgtyX4R3bIFqHgL9Q9dOev+sCIb33VM3Hu/A72twfomQLXh8c4Ho1x5dIVfPBdfwBjgAfvujUQYMlzifhINdHbEl2AVFoSELFfJDGFG0M3K4WhX4K8+Q33w1rgJf+vF5H/5Rc9aQ/leExLSNTNhzz/ejQeYbDVx4VzB9gZDLC9vUWzaj16Ggk9X73AuLQ0s83LSE5OTnB0dIzLV6/h8tWrXCh94epzbpCngwg1yo7NIV9SX8nYqhDNWI5Ki+vHYzzrWc/G/t6OJJHEyTJiwW0hNrCvah5/5kWNL/a2u+lnwmPWQmhrarpmGoJ+Vm8NgIffdnv9uEfUTTpa3bDrftfEYlsj5x1aVkJlvPwt759KcLsvVLOQnCS2X/jqp+Hc+QNs9QbY6W/jcHSET336U7jxxhvoPGsMrp5cw2NXr8L0dtDvG/TluwmmQN8YPs/SbxrQmaCA5fMnjBuqwTFjSz7v8SM9Af7iJGgypNLBqgwLi5EtMbZ0fh2WJcpyzE8fGmM4LDE8GuFn3xUuMxFe/JbnVm5y5GboR9/ym7qyM8dcmjyXQlbN8huRxfbcic8iCyKqZkm1erjCW+75OpS29LNrfMI0MPjMySF2tvrY7Q+wZXqBkK3Ya4AP/dH/xA1PuBEX9s5h22zhuDzB9fGIH/fnxTWAUEGoL+v4WViFpS/dgB8xV5Yl20JLTmjGlL+gk7hYxhdVo2fByxLDcoRhOcaoHGNUlhgOxxiejHByWOJpT3o8z75awPLPyOuyjMFHPvVpfPBd6V/M/JZbnoX9x21hb7CFc1u7gAWuj67j+tE1XPrko/jgQx/Hg2+9NVgTHRPO5no/iSWUpTINpfypbmICbSIZSJFSGoObX09CW4qNT2yy97f/2jeTT1jR2tKiLGlZyGB7mx/9N8Bge7situkXQGlGezQa0Yy/EttXr12nGbPSohyPMB6NcXxyjH6vB1ta/PSv/rfApkm4UVEdHgHf9x1fg2c888uwv7cT+hWUNy3GaMySB+VmjF8T/SmQ8PP7t711Q8Q2k3TVFITZ/TFgAJrdTuhsTlKB0skNNB37QOLcwEbrv4KIT3A+PnLwsje/b6Lgfsldz3PHOLgeC6AwwEN31gvuF9z8+bjwhAs4t7OPnf4OTsohHnnkYzj/+Au4sH8Og2KAk3KI66MT9IsePWYVPfTkeLY8zrhOOb/KecFhqbn0BXCL0o75nMetkk+neHa87jzt0EVbi7EtcVKOaKKjHGNYlhgNxzgZjnF8fYgPvpuW1r3krucF/WN4GQkAfODNv+EL1ZU1OX7DmEtT51LIqll+I/LTSObOEjoxPkmtkPGYvuwnP0Tg1uLB4mBrGwe9AfoThtkjH76OP/rEZ7B/4xOA3jaG4yGMMdjuDXBhaw/nejvYKbZJaLNotpZP5LLJxS8unG15/+t+CRbAmPOW4zHseIRyTOL7fa/7JZTuKSFh/vfd8YsqgMqTuJ4xGBR9HPQH9IjCwS7O7+3i/PldXHzcLv70yiV89NOP4sMffsxf6RXGAPsH2/j2v/sl+EvfRz/ko9m+YDDY6mOvPwAscFKe4Gh4iGtXr+GDD38cD95NQhugC52VmXvnlzRWZqZ8QPCaFNr61cH18bPNb76jndAGAFvyBRkgsWEtXR7dF60AqIslJwTYPknkBaxkkp9Ztz59r8DOYID+1ha2trdUee2QktRQS/JjP/2fnAgR+ycTjuEgi5GN25Yo7ra3vnvjhDbY9tPYH3aVjDN6d9Pr31nbja6v4whxvrsxagn3oeElbjS+qT8LU+CBt7zCH2c10LnJO4WOCf6SYQM/++AjGA5PcFIO8ZHfv4I//vRl7N54I8zWAMPxCACwXWzhwvYezvV3sVNso28MjHyZ0f2qLm+w1TEtrrUW7+Mvx5djC1vSMrGyLOlYH9N5Vj7tix38qeufxh/98UcrxQMWPWOwU/Rx0N/BBT7PntvdwYWDHdzw+H389dd/Bb7tB5+FR/74Os/A840Bo+8LOCR8W4nPbC7Nx8yiyDPbC2HBR25U/IJrqxKdp178luc5keNOcHxBoVljFlB0xXH5/ufHPoOtfWCw3cdWv4+tfoHtoo/tYguy2MTySdzCOpHt54CkXPqlRxJdvEyCk7zntb/gLrDCD7zpq2H5o0XZer0eHrzzP+Ll932jlExGsliXEiwvK3jva0mA33LP80kQuGbT6sUSwNDSU0mG5RgnQ3o6ydGVEb7gifRkDMvLSA7HJzguRzgZjnDt6iH+3btpLfa3vfqZOHd+FwdbA+z0tlHaMS4fXcbVa1dw+fcNvucvvBBlyY+3EsGt+sCALvDe57pv6C2JmchBhn/NzXAufpV04n/xoS1pnfgt/NPUrsyIOORvffs3oijoZ86NAcY8+08z21s0s72zg+3tPrb6W+j1e9jiH7YxpkDJaUcjmt0+ORni6PgYl69cwdVrhxjzT8GPhicoLTA8OUG/34e1Fj/1H/9rZM30OLck8D1QCaxFR//Q974AN9xwA7YHAxQFzeQDoHXuoyGOj4/xqU9+Ev/gH/+8yqWoapm1pyqY2uOzyjFA7x68+9bmjqwgN7PhcSD4Gz+4c4gWfSIy9avkeekb30NC2qUO+YE3fzWllQNG1f2jwaytwgAvuOXZ2DoABjvb2O4X2O5vYavoYVD0USBc0mEtiWQS2fzUJFB9RVHgQ498As/8ws+Jzo/ARz79KTZJhDnwOQfnvG/YD0XRwx98/JP4kid/LnsovIH8b//td/GL/+jjPoB52du+IZwg4D6zsHyeHavz7AjH10b4/MfTMhlrLT7wpl+v8WsUGu1+581/Hv/ywf8cBq4xaR9MyVwKWSWraUAW2wuh7Yl7RqLiF1xbFVXht7zi2fi8JxwEAheGRacBCtNzYhssjv/w45/GYLeH7W0ST9u9Pn1x0vSD8kW0+QsAvbpqDC8BMdG6a+Y9P/wLtYfV9935HCf+6aNNgw+8+ddwy9u+3q0tNMFSC1+S5ZlyAHjJXV8jl1XXTr8mkYTq2Focj4c4GQ9xPBrh+GiI61eP8ZQn3ghT9GEMifProyMcD4c4PDrG4eUhbnzieewPBjjo0/rfKydXcO36VVy9PsZgb4BLn7yK7/mCF8G653er1sqNhLx3r3KxUp3I+dzFjMW49FkwwGyYnv5b3PLG96iiQq/X9cFE6jKKPR0RlNzVC+H2734+9vf3sLW9DQAYDYe4fngdb/8n4dN+NHoYbBrzEdy8FwhuijUNw04GXCCYG3AlKsFNeSmnlWfCyyEJg5vf+O5awe3Wa1fENq9F1pkM8C23PguDffqRpu1+D1u9HrYL+nK6w/pGv+e1Pw9Y4Ju+70vxtKfe4H5LAaBzwSeuX8Hnnr+RznPKm4+dXHPvZfDJF5YP+BM5gDqvMMCjw2PAAJ+1d4HOUapTf/ePPob90Xn85MNe4BoD3Hz316pzGufhA4+yG5Qo+bGrQxwNhxgOxzi8NsQXPP6i+05Myq91od9y+9Oxt7+L61eG+Jl3/W5dsrXi1E04dQFdYDWNyGJ7IZziijCJqOgF1lQlquw7fvDLsLPTR6+wON/f9Q+UlQsMf2Pd8Fq9P/z4o9jd79NTSfo9bBd9DHpb6OmC5S0LKZoloecwj0teQiLJ1I+LkLj3vyz5z+77Z/iTR/nXGhJ83xue407yItR7vT4KfoSgE5qMXNSstXj/Hf8B1gIvefNzyRZ10jcFfXmPLiLhDUAJi6PxCU5GJzgajXByfILrV0/w1M/5LBL4FjgqT3A4PMbR8QkO9vZwbnsPhTE4Hh3j8uFlfOoTR7jhs85hd7CFw+MTXL96hBfd8M0Yj8d0zeQLMZnkL/QGLJ6jGxJBLu9y8Q8vgmGnlPylJ8sz2y/lGe2UyquGtEBlmin/CuAhsHISXbCRzCq6w2xpwZ0mFNr+iAmJZ7mpRHUe4Vw6Hfi4k5vdl77p3e78pxLgprueB2uNEsFiEwBb4kfvIoH6gld8KXbPbWMw6GOw1edPC/v++y6K97z2F/BN3/9M9PZK96Snzz4475amEQZH9gRbvS3sbQ2ic6P6joEk5y8l0/IR/2mkeKMoehiZEjDAbn8AI7Pr7N8/vvRpjPkpJMMTiy98wkVXJ72Ekxo+jsq31uJwfIKT8RAnoxFOTsa4fv0EP3u//0Jlte/CkG+++em4+Fl72NnexvFwhMPDE/zU/z7d9zy6SLXdU3LqAlbN6hqQxfbCaDpxn4Ko2NPW8h0/+BX46b///8TBabiyF93y51FcHGFn0Md2r8DA9GEsX0BYlBr+smGvKPCRT17BYL+gGZZeD4PeFnZ6/aroU7tyApfZ7JJnSugLhpZEfK/nn7vshC3xntf+QqPwePGbv9p9gUfEdlEUKHoFekXfndAJWa8I2HGJB17/y/iBN/ufWZcLiQjUXr/vZ8ejmRtY8AzMEMejExwNhzg+HuL65RM8/cn0YzljlLg+Osagt41Br4+yHOPy8WV80+434ycf+yAO9nZwbmsPh+NjXDs+wsnJCEdXxnjhjfLrnVSf4fdSP12n2JYaYeE8GCwlYfhiKMtGAOCWN76HL/ahsxtc3wxnnDn/iiGfx6GLp2msbyo1Q7gVPmtbwc3CVm6642hUBTT08ca4/ErLioDkBLDypUmu5aa7v5ajwl/tFeEv1vzxp69jsN/Dzs4WBv0+tntb2Cn6FRuEj1/+FE5Glr503KPjvbAW+70BT3JQufKlRvktAy22yQaywKjjVvKHgpvSFHzO7hX0pXk6b8uniBbXhkc4GQ0xHI9oEoe/CErnUxLYhaElKZRf4lQ72S/HvERPPlE8vDrEz76bRHe1tyTE4Dtf+2wc7O/i/PYujkYnOBwNcXQ8xOHlIX7m3b8b5Vsfqm2eklMXsGpW14AsthdG+gR3alSxp63h21/9Fdg/38eVS5fwb99R/8uEuqJvu/XLsHt+CzuDPnZ7fWybLTfzLF/QkwH98U+MUJwfY7Ddw2Crj0Gvj0GxRcJUF+4/ESR4toZO2PwEkZE8Ko4uOEWvh0KJbb/0g2haQvKSt/xF/xhAfjKJiG1T9NDviYD3VtqSvnT3wOt/GS958/Mw5iewyAUPAHq9Ag+/iZ4M8LJ7v8FdlFIXAbCAPxoP6YLAsyeHnxnhGV/82UGeK8dX8I2Db8T/9fGfwoWL53CwvYPtYgulHePS4WO4cuUK/ur+C8LxkJjdDqLjdK4fOIYvYnE+umhSg+cqtDnTTHk7SDCeF0hC3505arTkRHw2JbjfeiuHUKx3b3WttsYLbR2XMMzSTHBchr4hpk+ODH4L/9kJXRg+dyjBLSX8ySOH6N1osbu7hQEvy9sptuhmWUpNDUgLXB5ec49RNRYAP/++VL9yW5iCz7W9YPKA6veiPIBvTOiLyqV7rCec2DZqiaHMuLNv+FF/8p0LMl8mLijvI59+FOXVHp761BvTYltK5EqPxic44pnuo6Mhji+V+Fl+Znds/QtuexpuvPEizqnz7GPXH8OVK5fwU2//SJR6vYjbOjWnLmCVrNb43g1Pftab48DMPKge+KcmKvI0NXzH7V+JvfN97G73sT3Yxhc85wL+3Jd+MX7nv3wsTuoq+vZXfxn2z29hd7CF/f4Ag96WssKAztYGMAYfv3aIwXmD3cEW9ra2sd8f8DO2LZ1UYWEN1AEg4pB3BT7xW1uiHNMr+OIksxvxeu33vLZeaBsAz/mmJ0cXU/pLJ3MA8hElaF9maay1+Kq/9HkoS/+ow4Lb2+v18PAbfw23vO35eO5ffaoX2nSlCA1Q9IseBsU2eoVBb6uH/l6BT3z6Mdx47hwAYFSO8XVbX4d/8pGfxPkbDrA32MZObwDA4iqv4f7MI5/Bsx//ZV511AhtfWNAveCRdmuxrdNJrwHkj5e96b3u0wehzueNKHs2leS4Pg2+GzNMQme1wmejY+Wnf/7X8cJveh6gvrgYE4e6CYY2/SJCOzh2fIl+/hf4XPMk/Cn+lA5jNYMrthlj8CeXr2H3xj72drexu7WFvd4AWwV9vVyOW/qrbpvdeQIYFFvYMrSQz4DEPDVHcqtH9hX8aZdLTcne97pfwm/+3EfwF/7KF0oNYqZqpm4Z2WCMwQOv/2X8hb/yBaEPWGxbFvJeaBsc2yGOxkN89oWLuPHGvfrzbETPFNjpb9F5tl+gNwC+8C/ciN//1U+6bAbAN/7Ak3Hj4y9ib3uA3d4AAHD15CquXb+Cq5+6ij/67etBuWeKiYM700R1EVdmTnR3ZP61V/557JwvsLPdw8HWDva3dnDh/AGOH38Z33bTl/mE/pyKF/3wV+Dg/AD729s419/hEzqdwP1HewU+9qlr+PTxMfb3t3CwvY3zWzvY7W3xjI6aAeeNZsNLWMhj63z1mjDcL+vQJ1iXpKYMA+Dme76WTtD6xEzTKU5Qk618meKyLPiHWdRaRmNkPbrBw2/6Vdzytuej6PXZL/pZsnLhos1a/yMvdDEBdnsDnNvaxcHOABduOMAjj34Kv/eHH8Pziufip37vF3FwcQc723QxBYCj0REOjw5x5dEr+J4v+VteGEQCQV1iFZEtymVuvoz9EGwcHAttnb81KtPUedcMG7mztcM4XdwNbbKeNeQ4nRafjY97ADe//p2AoafkaPzxrG5KBe4XnkbwgtoiuFl38A8YUUr+crN0rkr35/HnfRa5eTYFPvynl/DJo0OcO7eNg8E2zm8NsNfbhuFHgJYlTU6U/F2Xshy7SYtEwwgX7AeoMQYPvZG+XEjJ/EXhva/9Rbzvtb/okr/vtfSlcVeEeyPndfYL+8Zai1vu+XofZwFrSzxw5694hzJ0w1Fgr7+Di4ODQGRX+gII2kATNOTfnWIb57d3sb8zwLnzu/jOO74cL3jFM10JN3z2DRgMtulRqwCORoe4dngFVy9dxc/9H59U5WfWi2jMr4C8jGShpE4Cp0AVN2vJ3/vKv4zLux/B7v4+9rb3sNvbBWBwXA5x7eQQ1w4PcXTZ4mfe59el/bXXfiX2drew09/CXn+b1mdznJFhbC0eefQx7OxtYdDrYbe/he1iiy8y/CzuckynQPUtfOPWBvuf5Obi6NRs6fms47F8rEhlFb0e/uFdv4GXvvXrYHr0M+18OXSP+wPbxtdHgB/VV8qTTcZjXhNOPxmOgmbKi14f/R59xCmFjMsxPZub14yL0DZs9wOv/xW8/L5vcBcA30EW7/mhX6jYcss9z0epLnoyc2NgcFQO6WPPkxGuXbmOfr+P8+f3cG57B33Tx7gc4tLhJVy9ehnfduGFziZ9Mad6wo9WvQDwa64BP2skeZogoe3rmenkofomk5k3E4ZwLf6QoGPhwXtuY2HqznKgQ0hOgCwdWSjLeA5EdR0WPMEQR7CwlOOSZ5X/i/ktWLbro59+FHsHA+xs9bHT38KO2XLHP93Ey3I+VSDkx7vofGuKnjsPSD4S6bRcD/L8bv7ieK/HvyDJn/jBAO/5YXp6idQk/nvZvfSYPqvWbNPvL9AngnLOlHXbchMhdtC5fuTaQDbTUhZZM07nq3Cu8FNHl+n7K0dDlFd6+LcP0eM9X3bv17trjtQFvuYdjU9wfEJL+AyAg3O7OLe9gy3Tx9iO8Nj1x3D5sUfxr9/Fn/gm+mudOJX5p8q8alZvfBbbC2XGs36KqKjTlvydf/cp2Ns7wO5gD3t9+inrEzvC1eNDXD8+xuHlEX7mPf8d3/m6r8DezgC7W33s9ujxY+6Cw1Z8+I8vYXDeYGdA67J3+9so+MdI9Gx2aS09sYSzkiilE7gxwENv/E/+0XuWLnDy4yQidkt+xJ0pCvR6PfT69AUg/QVJug5avPd1/sdoXn7vX6ILIwv+8ZjFsxbbBih69OVG/yVHXq9djnnjCwAvYSlYoMPQt+xDSGjHB9hL7/k6ulCHX/gPnkleAjgcHeNodAJbAvsD+VjT4vLxZVy9dhmXPnoZ3/WMv+kvrOqCT9cTJaLZL7EQEDFeJ7Z1+pe/+X1uP25TK8TMODyTmTNzE9y8hjtACW5/kyuzt+EA90dkSJAnVtzGuJlcEbiFKfATH/kg9h6/hd3dbZr46G2jx78k6YSt5cejymy6axOXWRR46M7/hJff9w0knNkO+lEy+iJ6ILYL/ul2+X6MMfSBuBLb4CZrl7/0bc934llm1aWd1K4CRa/PZQLg60WpJlfkXEPLWHqVJ0X5Mxv5eWRLHI2PcTIa4XhIotte6uPzv4BnwtVvK4CvFyVKmtgYDlGWFvuDAfb6A1gLXD66hMcuP4pLH/sMfumfXnJ11XTpWjCz6TNn7Aqrb0BeRrJQFtPBM15HAv7l3/sjXL1yGdeOruLq8BoAiw/9j4/i/GAPBzs72L+wjb/+uq/E3u4Ae9t0YgfiJll85FOPYu/GAge72zjY3sHB1o77qV8ScHRiBPwvBpJwlo836dfFxqMRbrrra/D+O/4D1yEnZrpIFG6NdvjlxVg8uj1j8PL7vhGvuO8b3Q/VSDgs8O9/7D+6MjTWWsAUePANvxKGg64VPIdMgdRIunHgcnWOlNAWyGyZhRoD8mUiqgQFDA62dnFusIvd7W3s8rO2D4fXafnIpy/ju57+N+nmQ8r0xdei2xy0X4S6XKT5oi0XyJdloZ1ZI2L92haXzZIQvvkN71KxfC6TiYIAEciAKWhLpTMA/sWf/jsfkDLUHWfySRTwf33iZ3H+s3dwbn8H57Z3cG5rhx/lxz9ykygGgPshsLIcoSxLjIZDABbvfe0v8vKKuB0Iw5R98btX/MhfdknjUh6445f5PCLnNL90rmqsz01Jfbyc/+k0K9eSqtAGgL4pcNDfxYXBPs7v7uD8wQ4GT7D42KOP+qU1PIMPS79i2TMF9vt0nh3o8+zoOq4fXsXh5Ws4+LzPc3UBicZmOk483lZDFttnmJ98+0dw9dIVXD+8io9duoSLn32A//77H8a5wR72dwbY29vG/tYWdgv189Z8onn/Hf8Bjzx2CQfntnEwGOBgaweDos/RnIifSf3AG34FD73xV/Gjb/lNFnB0ghRBN+ZZ7+FwCPBznL2k5dnvogCiL0LymTm4IFCs/PNhfqqLXv/K932dmwlyxyLPJH3gjf8JL73n+eqs6i968ebPu3QRlvTv+WFaOhJDSWidtlx4LP80Ml3g5SNg2gbFNj3bFsCoHOLw5BCHV6/ib3ze36Rna/MvpCUv2oyURu/Z6OiCYdmeSlnG0GPIWIzX11IDZ5opbyZzCvShPQ0+jxLcVh8zfKxHx5APpC2+lzcAfvrqz+PgxgH+5adYcMeJOMxauPPWT135BVy8cQ8HO/S9jp2ePx+LrdfHx2wif5olM7iFzF6LQ0p8/5u+GrC05trC/26Byxc1zJ0j9anBOSlhP+OXjyihrU4EJvChmsRQ0HUC7ikksbvCPPSeBPQOLgz2cbAzwN7elvpODi0dpE9ZqWwAGBTbOLe1w+fZEQ6Pr+PqlavYPb+Pwz/5hKojk5mNLLbXAXWCqT+1zcZPv+ujOB5vY29nCwd7+7jxiRfwoY88gnPbe9jrb2OHhba+1vzJI0f4ztf9ORzsbWN/exsH/R301Q/KAJT4va/7pcrp88fe+lv4sbf+Fu2oGVQ7HsOOx4ABxqOhE5zuIqBepSJLT6ri87f81SdtLbIFjrclz+xyap6dNsbg5nu+zi1toRxhPpkViU/1kvo9P+zXjGsMwCKe97kCSSpPAqB6XDL0+Mfrh7aE7Q3Q272An/zYL6HoFcHMdtxSRBa6chO2ASy2+dFjdHHk5/1y+NRwppnyZjLzoPk+tJboqMHNd9IMtxOx+qa+co4RDM1y87H5k5d/Dnt7O9jfHeDchV3880/8DAtOQ98PkVdrYQqD/2J+C//28JdxcDDA/vYOzm3tos9L29RJA2NbYre37Z6LT+u8+SlNIMFNxzYfx2UouJ2toCUrRqaSVUVWngrlKwaCyYYqD7/xV/mcxl/MFG86H0Yk+sqAftn3AfdJI98MVLJb9jKd4KwFesbgXH8X57foWd3WWpT8JXf3GwuqnMKQv4a2hOkPsHvhCRhdO8Av/JNP+URCpf5MN5nh4F8QWWwvnO50dooX/dBX8vNZ+zi/vYuDvV1cvPEcfv+RjzqhDXUa+/AfX0Jxwwn2dvrY39r2y0sqNJ+NfuxuEtwymyqzDd9351+gE6IIcUCUcHARcLOw/AUcej4snWgdYrSDLhCuTp5lp5M3fQnHFL3KzI5g+SQ+sUcjE2TzQtuXTxcXaS/NBj3HPsfVxbUCAPb6A1qqs7+L3c8q8K8++fNuXTnYN1KXr0BKUIYbbrNLIr4j30jYy99yOqEd9UYmszJiEdcGl4WPARJj7lBrPMUF5xBj8JOXfh77+zs42B7g/OAAB7s7uHDDOfyrRz/oxTuf20yvwD/78AfxmSGfZ7cHOOjTp1v6oKK3FoW6jLvZ6cL/SNcf/txHeKKCbTL0K5QvfsvzABj6kSr4E1XQNvmk0ZI4pfOUF84vv+8bG5xhUI7o+zDW+vMO2Rh9SsnlwZ33dJhRv1vAVXF5IbQ8Ru3CwqJvemGZfJ14/+t/uToujJxnd7G/O8Du43r8tJJKZYn6N5TYR5mZyGJ7jZj3sf3CH/oKbPWuY8uMMSh6KFDg/NYe9nd2cP7iOfzPP/1jAMB7Xksz1B/++KPYvVhgd2cLe/0BBsUWn/G9IBTe+9r0MgqNn+H2J0Bb/v/Ze+8AOY7rTPyr7p48uwAIgiTATAVLpAIBMEgUo0T7fLYky5Llu7PvZAVSDJAs+fyzhcAAgCRAne+ss02QYJbtC/bdWbLy2UcJYJDEBJAOBCkrMSKH3Z080931++O9V13dM7PYXewsdsH+yMHOdFdXVVd1ffX61av3AlrqC9ldkyAhbINJM9S0VBlq9hQi+RDTcvZ0TK6R40T6ZF9JmiARuBPLlVI/qY5dregrt4V9IMK1t10SS2wnM8I/L3XKy0Yk2Uffc04GQxnWji3I4esHI4G754QAqzDR3nNKk1r60EyoIT6z7q7YpRMGt8Gkr0uRYsDoEqwmAHOJBq5e/SWLf3gEdRGAfIu+/+2B76KQ9ZFzNXJuBgrAULaIoUIBw8NlfGP0/5kx7CgHX9n1/7Dg1GEUsh7K2QIKxqtTxGQi9Nq8IRCB21G0GXLLI7uglINQhySnhrRRUIchPn3LRbhrzSOAvYpoCcEapAkXW2cdclRfHXJIL43P3H4Ft4OwStQ25gXCCP8u7l/3hNkILpRut7P5JZvGoxMRFB3atHILNn1hCzZ9YSs2fYHcEJJ5jLwYyFxgfQc9DB/8w7fFeV6ggZybwRAL3EMLcvjlz72lN7/2OJRitmAKA36ASIXt1zG+8Z/+AdW9o+Swv1VFJ+wAAIYyBQzl8ygPFfHT3a8B0Hhx7yEUhzMoZD2U3CwyyjVkb/PjZEG7y5mzOI9Isx0dNBQurgLNhMMu/DjCI/NqT6gXTjHkSCRPLrCUQ55HxLVUVFoC1rWxA2Y6YA8oiUvjgnZUOUP+7K5LNjNF7cr/aY1lejlNqJo0NSWvgGI+i/K8HL5+8CEoM/V1Q0FBaUvIlhmONeEwtaIcPrv+buipdCkL2ZO+LkWKGUI/bhgP0dhggds6GhPAtBRgF6LwoePei9E9h1CrVTDWGkMn6EABKGcLGMoXUB4q4ttVemn+yr6HMP+EIRSyGZQyeWQdl5UJETeIckN4Qcq1BW4uGtdvuBRQwP1rnyABm5NoTeYcYRDimlsvNjUmTiStswbYZA6sACHPIpHAzXtPoLHi9ssjBTd/rlp7oeFU13HhOC5c18U1t15MLv/Qi2tNBc2vT99yUU9SuWNl3BuK+WjgrpUPR/NDGCLk9rJuFIWctReJUW/XTHUyjouhDPvknlfAv/6917mGO8URIXX9N2OY4oi0LptiDv3BGV75seMxtHg+ioUSitkSck4Gml3PVdst1Gt1FMtDyGdclNwsHDgkEAo5S8RFXibUrNlOcn8SV697F7TW5FM1oAlEKQXHdeG5Lhx2v0e+XUFlsjcT8ZENroPjkODssoaatDN8HTMsucSSQDp0hhAtu8r9UOMQQRuXWOKOSmueRGjyiId2j/uWVVw/bpxoogyBpeEyPBU+Ye5LKYXz1AVwXAfPuM/AdRyj9lmmlwPQ2IZtpp1DaNT8BuqtDqpjdfzacb+IMAxIVc9urvjueCKMlqq34Wksx3kxH7haA797Cwnak0aqzU4xh9BTo3kYKPAYAnDPbZ8zwi0pB2glTosdM/9jBD6t8X9+/FconTSEofIwyvkhZN0sFBTqfgvVdgPNZhvZXB6FjIeilyO3fkY6Bpar87BdbYu0zjo0L+FP4yke57wyx3wjAuZdax4FoPGJG84jIdn4rmYf2q7DfEla7M03PIpP3nwhdOATgyhFcQgU+9sWd3ymIblOzJnClToMzPnouiiegkB4OeBAPNKeYnvuui7PMXRvm1ZuIV63SCfJPySkR/7DqXOofNf1AAfw3AzPFZHG58cvPo83nf5Wk4/wbK3ZRq3axLf/+Hkzp8RgH+Jm+dTNF+D+tU9aJ44uetR6fEz6gtmC2VfxVLM9RzCFuWFCeP/nzsWCM07H7h07URkbRbU5hobfBAAUvByGcwUMDZVQyLgouTkS8th0Q7NQaU8IghW3XzFunRUoME20mYeEQoAmCCLSKEOjiZZPLLiBOmwLaZkF+Vryj01lu64EVxA7Qt5YBIVzWsuZiHmy4OsBLjJWrEy2rDU2UeJoEiJBW2G5Pg/L9XI8rZ+kY/bHakQtbWEE/hDnBueSv3FeEi57BRRzGZSHC/j6oYdY0LYdeDO4rbZhG03Y/B1mpUBNTdCOLFxSpJgzOJwioBc06EIN4NNr/oSFaXJLanMQjVv+x7xch/jIG34T9VdqGBsdQaVRQdNvAtAoelkM54ooFnK0cujl4IDMPWgzn0R/jDhCeIKK0FgWLI9MPYTrzD1qXHPLRRZZST7Mi+ABrACAhNFrbr0YD6x9gv0YsknIuBwb5aOgyTe3UhQLgT/EtyLUI0GgVI5wLJ12uJ8SblWj24ghScfUduJe1rQYpVGA2yMuAjRQqszHn31hC/6MPUo5UCh7BZRyWZSG8viV/ziOhps/n77lIly19gJ4GQ9Xr78wmTLFQDGFwT0DSIXtGcMsewCYK3JDCoVsBue+53zs3rYLY4cOodqsot5pQCmFvJdFOVtE0SO3SKStiPss3bzm0ZiQKDS04otX4DNfpOXF5Adsj+ey4EsaGcmBSC/ZYkopnNM+D29rn4+3dc6n60Urw+RORJ2kXbqW/pJWhQLScEQy1iCLoG1fviO/HUopvK1zHpSkF3/fPAFFJSUImG9AJjQNYLleBm1tOtI8IYvQ3QUNerkJQxPY59xgKZYFy0yAnbJXRDFLE8E3RODmCRWIqvU0no4mRQBKcSRPAJ9dv7mrvQ+LHn2UIsVcQa/hdjho0IVaa1xzw5+YF2rRJhOHcFoWaKHJZENrjQ+/5TegXsqiWhlFpT6Gut8AAOTdDIayRVZo0LUURIvDrge8Ebyrzhw4RodYGpyLe2/6ATaveYz3vER10FC4au2FxL1IxgSIIEoN16VAXQ+uf4pX/VgxopirrfskvhQFQ3TerPqJNptNR0wdLJ6VckXgprT8Xc4JNM0tSboVSLb33fy4WWXU4rYKVj1BChGB1sBrowdQPy469mdf2MIcDZS8AkrMs7/Sz6QEwKfXvxs6DOG4HsIghOO4uObWi5LJUrzO4C447Zy1yYMpBoXeg3NcCBklj/fBdRsuxvlXno7z33canv7uy8nTBM7s11cvRamQRdHLIqM8nPKmU/HfN/wjTn6bCyfjAI5C1s3Cc3iTimhZWeAGiMSeefg1XHDlGQBPNlKE1PmCK8/ABe87g/7y5/z3nW6WAWXS01aELxMtjIVxyfGEYDGggG27/wnZ44iEFWubbW23qUuvhmNSZ2k5ygPx9EKmCsB+b7dJ+/f3PYo3nXdmYsk2SgvFbRVlBWhguT6PJketWavN2ioWmpc7F/DSroPdzm4oRXbY0BonhSeZcPWS7xIswU7shFIKWTcD7WjAVfinQz/CLxTeAIDvDeRGDPYEyc2wS+3ELTd/td/c2x+poJ3iGIEtcE0UMs6/+b0n8YH3XcgSt6KBwRlGgjnILEIB0ApvOvENeHPxLXhu9J8AVwEOkHGzHKQmck1Hm745Yi6AJepk7FI7jbCoAezUr2GxXmxeyH/5PUvxnce24+nvvYzl7z2VKsvab/vlwvCsWVnkFS6iTig4uODK05HzA5z0poUcVIz5TpQjzCfyVxjBaKNNOayYUCLcJnlZfnA+HMRs5EcaxRNcul9HRYI6t++TD71oZ9IT73zPSQC1qnW/tD9HzA2lfK01QhXA8RTOPG8hfvzDfQCXc/6VpwMAMo4HIITyFE5fOh8/eTzuFvCqtRfQfXAdHZe050opPP29V2JpZz3mJMHP3kqnmu3ZDOagGC+NB0U+VkWTcu2Giw15WnwGAPjgH7wThVwGOTeDrJPh4wqfuf0KZDInAV4JoXJhGyRoJiQSEHlpjhk8EE1Kr4e9xyGZMMxHtEJ8D0SsUcU5BXbkn8EL+WdROitkgZw11OIflm82LlZykVRs4pjk36OhFedkTUyu6+JXrr2CNvywX9bYdfLTFmy1Jnd+mibRp8InzeRntF8gbZNyFLar7bH6mzYXTyWx6Jus8QJrXnI5lIbz+Opucim2HU9hm/O05ER9KL9CAFC4epJaF1b0pEhxTGDqGm4am9fc8KdG0BYhizgtAv2K/GlrrdFqFhGoPHw4CMQfdRhiabjM2ohI/q1jK2F2viIgg8xOQmh86QufAABsXvOYSW+4T/jWXgm0yE94ln46eMe/eoOl9OBPQtA26GpHuwUiSJH2xxw3odxdLDw7E3G71N/crFS7dxkA8LHVS3nTvGE8c+/x3pG2DVF288i6DorFDD7wB+eYFL7vRzybyaOQzaI0lMMvf5Y03FetvQCfuun8mOIIII8vXEKq3X6dI90gOePoTw5d4KQTveL6jRL10BJ5WZjbvCYKP/7+z52L0nwXxVwOZQ5Py4mx6+UmsKCFYo52w3twoJmMZKNJyJtYwKU5nof7bv4hrt9AvlBtAjY10ZI6OqpZixNwQBvZ8Chk6xpttSXU6uhq0O3BzjkSci0hmBMR/2m0/+EEHDp0CCde3gG0aFvGIW5N/0T3wtor/isTqaSCEYxpolwWLoPmTUwyQcPYvVP65c4FcB0X3/3Jk1h0ds7YhdMyMpmOPB0+YUxHbA2NfFeOgxAa1XYDtUYDIztrOOvMEwBEk6IGmY5oaxXh3psep/uaALgpUqQ4tpBUtk4CJDwqbL7ls0bIIt4VX/4csdCMQ42/f/lJuEtCFPIZlLwcPOWYzd/LwmX0Qm7ZXyvl4HznAjgObZ4WYVdrIAgDLA2WIvB9BCH5tQY0Pn/7A7h63buMAkaLhl3qEuMP19yHgLhMeNMcjrVTjOstnlUKqD09H57rIrf0gDmWvCbi826YtrReYqSj5MXjLgmcZhHTf1h1LqXka+SvoxQevG0brr31YvJCxcodranSwtc6CBCIIgMarutxO7EjAA4SVPEbqDdaaIz4OHFBHq7nQWttzCIhL1eg+7h7zff5Ho4eerd0H0wq8WzA7K5wKmzPOCZB6UJOyeM9cP3tl5LgJ+TFZA8mLc0beTaveQwfXkPmI+VMgZcuI7w2OoJiIYOSlyWNN+cValg2hOIHm+qmHAXPIy0ECcdJ0k6AidEI29ZGS8ovsqUWgbBb2JaM4jqKt7aW8e9IiOY5gAXMqD6Kz1E6S+i2sCO3HTBV5vaUTTbxaYf/8n2ZlxPxTCLh2CUZa1OgsRznsUbHxbPuM3A915wXW20dBAiCaDNqzCOATJq8zOvrEJV2HbVaE42XfZz2lvmmljKBSltOZqc8d1uKFMcmplHgVoqCxQjHibCtNW0e/LvWYygWsihmssgqEtLCMMSyYCnCMMRT+ikWjCV/hfNE2Ha2G+FYgzYCnhssQxD60KwIUezV6bO3bMbV699t6knVINJzZO+Jpa2Ooa8grHBOe1nyIMD3ZwvW0XHirH54Lks8e3iCSfAsv6CEgY8gCBH4PnMk70fhe+QK4MFbnsL1Gy+Lc7fh2RCa5zgx39Ex0xN5KSFhOtABKu0G6s0WwgMZLDwxMWdFbxe4+4bvH/7WZgATrsKEE84WzP4Kp8L2jKM/4XRBxmryeA9cf/ulLKwqaISA5XbKxu5KFaViFqVsHnk37mf0lYMHUSplUczkrOiRoqnljXry1h8ERmZT7M0j0pDQrBUXgyMQ3xON6zDEWxpL8VyOTB0U2IxEliqVHI3ykwlAxYRrG3HBOWoCqbGN6FhyguiFTQ/8MS6/9rLkYYZkQEJxGGpD4CJY25ygNQna4Ht+1tluyBrc3jpkIVsEdyNsc/u4vOHTWgkAFDphB5V2HZVKA4uH57P3EnYlpqjdH1gn5iWHR6wJU6Q4VjENAvfdt/wujXUWuInrSKBTSuHbtUdQKmVRyuSQdzNG0UDmI9E436afApjvFBSWq/NJQHbduHYbMKZlS8Olhvddl7j4WecZw3Ka788IhGblMKFxpoKZaxXObi3le7TTJFuKyEFbbkfNmdgx+1xvQvnNf/MruPmrtyQPM+iutWYzG1YABWHAsQo4laK0wqn3raUVvBW3Xx5TetC8xqu2wrH8xmDaidvKcdj8hk1R2jpApVVDrdHGCYUiy/Sy4R5QyolWlXvf6oxiwlWYcMLZgtlf4VTYPipIklQfTJL4ReAWco/L2Rq79jaQn69QzGVR8vLG5RsAvLT/AErlHIqZDIpuzr6Qhe2EppVtCgHeic8+ro1GuouY49AAzm7SxPBcbpsRIhVYIyBEyX8F63/9Jvz1X33T/I4QL6tn0WbGSRzvlXYcSLvuyHEETAPJKN5ekVY7XrAI2tvwNGu2uT9YGJaJV+w3qb1ZKyXCtkPXKUVeWUTjBSg0/BYqzTrGRqs45biFZtK+7+YnYvU4HEytk+02MExXQZPs2BQp+JGZzJPziRuX48FbthnOUVC4+9bPGYFNa97jAo2v7v97zD+ujGI2h5Kbhwbbaevl0Qt1SJugbWFbuGu5Oh+u4xrttswRGswZWmNZGCkglONCAdjubDN3FQmhtGIoPG3z9Z3X3oE7/uQB87sb47VQcvxKDftdk0xPILrUZnUxguQH2gcje1lCCrzDLQbF9yQb2UVDTdfRP7awbjTaoEaStCJsyzE7H0ChGbQw1qyjXmth8fA8Ssflbl7zWJeS5WhiwtWYcMLZgLlR2VTYPiroRzoJTFLYBuiaa259D/+gQS5C3r5GA8W8h6EsmY+QsO3g57sPoDw/i0ImE7PhtkOur9h4GZMaEZJobIXVSNhmYU8EQRBpCZL3oo3mhJceTSIhfzuxvXSZzClCTyFbIAxsP/Hjpe+DSGamL9FkIJlFE4FmDfX4fCu+X9nWM2aCQhOIeRnhCVc2EomQ7jgO7vjzO/CeT14ce0GpduqoNOoY2VvBmSefOHVBu+vHdGDaM5wkptD5KY598GMx0afj6vXvQhj4cFwP991M2lMFhXtu+zy/4NLmxf/50jexcMk8lHJZlL08FBQJx3qZ0W6HYr7AwraWFUCSDi2Ts8icBJbALf9ordlu2BKizR9r5VF4mhJCATi7ZfNscoxOpFWS1wgmcq1AODTKS3hWceA0uk/h2RC0iEDtBFbUKL5/JQFxbBttCXBmrR5Ck7mJEaj5mmbQQb3TQqPRxre+9AKu38Aubfmeqn4D1UYD1bEWTlt0HK/MUpveueoRuoF+zTKDmFAVJpRotmDuVDYVto8KJkA6kyT8GBT5+oxAG3QqQRs510UpU+BoXED9NQ+V+YdQzGcxnCkY8ogjbkqiOWyvrQmItNuW3RqTOcx9CMnT9+iNnyYUG8okV3hraylTrDkzvlDdD1YhouUFptrIBGsuAGKCt0wW7KoveYNy1/b968itomhbSCtGbyIkZNt2luy5RPFmJyVmJFFrhQgx1qqi0mii9moLzrDG393xk1g9bPzSZ38BmRzg1wP83Z0/iVe7xz1MHEd08QzjCB6IFHMfVvcf7km4ev274lzC/p3BY/DeDb8HrUMo5eDbtS0o5jMYzhZJ0cHDX7yQRIIjsBwcGVI/zce0seFerpICt0RWtCC8GyNKm0HlUHTsnPZyOWinmCSE9+S71EPOTyZvyYv+yr1oAM9nt8tZTsPtZ/GMvFSYXyJos0mPEbRlHtPEow+sfxJXr7+IVgzBLySK8nB446PkK/cVak37ZBpNtA5onHraPChFzgVmi7A94eInnHA2YO5UNhW2jxoOQzoymJPHJ4Cr17+LiSkyJZFOdpTDdr5EHDvHRlEqZlHO5NmHaB9wRhLa2yYrKcOYNVhLdxDSkyVLSmgmJ1vgTOLs1jJrEkmS9iRg2oA1/eag1Cc5KU0N0g4PPfYUlryvl1dNEaqjXzSJ8scyHdEhB7LgxLQ5il5oHKXwjEPBdkSDQpobuQ+r3QG0ww4qrRrGKjV4nou/vX2HqZHgFz/zC8iXM8i4DnIZFyMjo/jOf/1ZvFe6u2gcTCrxHMGRPyMp5ggmwL9Xr38XNHufCEPb7R8AkJcfBeDeDb+Hr40+hHIxh6FcHlnFrlZZa02KDG34AKDho8HmJ7KiKOYoHG79PEUbJrer7VFgMMMFlnkI17ffiDyb971EHDjeXY8HuQ/zk2C1pc1PE0O/WgM/enkf/DdGsSQixQd/McVELSDKCzGFlMBsMh9QpEsXrucYA3eps/Qr/5FLJGv4OsBYq4ZqvYmT5y805zetfFgqMt7tDBwTLnrCCY825kxFgTSozdHEYQjHIqjJYvkVJ7OQRldr0Js/8YOG0kTErx4cQ7GURSGTRd7NxjMxzJV4oBMELqwTIyAuR5OqhgjLJGeh2xZuzcX09+z2MiwKFk+voC2TGf0wJ83d6SMXuGmiA8467WQsCpZgn7crkYI21Ug6qgt9wiDAUr0crwUvG4Fb2u48dYGxx37W2Y7d7h5aPZDNlNbLS3LCVKKNcRS0AmpjDbzpouPxk8cPAACuvO7NeNv7FqM0lKOw77kCPEcBroMT35zFz7ePSeUniLlFgEeOI3tmUsxSJOmpB5ZfcUrEh0aIjFKf977TsG3LK/DfUUWpnEUxm0XByfI1SV6lsQoW7iLBnQOKcbaGvzQFtNmFnViul2MxlmAXdpqXbvGhbV8brx0J2YuCxRFT2IknDVEaMKtqJjbzHREnTaocqbX9IRw/r0Q86xLPCq9K+ynhW76GpiMyH0kK2rJS4HqeiUis7L0x3L+m9GRjKsDh6MOhAvYdGMH/uPVpPPnQS1aiOYA5Q99zpqIG6qz3/IZYy6aYcYzT7raAOglctY5C8iqlrDd9IUBiJMXeLA52miiy/SBTunmIbSGU6hLVRoOEd9mQE5mTENkqyK0x6fXYxS0CohF3NXC25U7KLg9MpFOCECyTPrVJpEEyRGo2tUy1oG5I++/IUfTG5AnxwR3wTnjf9/G0+NflpEopnO9eCNeVTVHRBtToCeFXKxG6lUycdhqg0q5hrF5HfVcbnUyIwrwMCoUcsp6HvJth7zTURiOtCurNdlwLPi6/jXvydYjpe45SHAVY3derJ69a/y5zXBnzBGXGgRxzHBcH2g2UcrQfxt6UTjzKvCT8ZKiTc+djtmmZeRlniH2xcly4HHnX9gplwEM0sskWHKmgTfehEWnehWcJPA8oWNr3qB2mhjjfaJ3csG7duwZtRBWtduCz9xFfeovazHXZgwvtg5EMzFwUq24PvuMXjWqnjkqzieaBEN+885+SqXpeOhOYULETSjQbMGcqasBr3XOv4sc0joCD7rv5Cdx7cxT8RBAJr0Tee2p1ZFwXeSdDU4St+QVt6JEIZqQNiM4pMGmynTBtjIxc9WkmPyJdDYgXjT5QIEGb6C3SRLAMfGSCttwV10XrELmMRi4DIlwJ0CN1nUZIvc9pL8f6X7/JPmO+kScSMs8BqM1NOysxH2HbTNG4cGvSpiCyOQxDjaXBUizjSJWx9qfUKHg5FHI5ZI9XmL+ohHnlIoZyeczLFpH3aGUjCEPU2hWEfhNO2MCvfv4XTF37Y3rb7dhA1O7xT4q5hl69dt9Nj+Pemx+PNJ4KsZSaV8p2VSrIeg5ybpaUC7IxT9MLtg4DLNXLjNu/SFjlsStaWrMnI9qAHpUlfrzlJT1OmAqyjKYSmx8jITh5zeRAz7bUmV4GOPgZbzzsZVN9ZKD6m18KOLslNucMU5R8UdF8FpLrWoD2G9ELiuKXAXsm4jJUfBwHlg90sPJe8/eCl0c+k4E3LPEY5gimq2sGjjlT0RhYs40jHGwppoY+bS7jO3l8ouALP73+XbFcRJjcdaiB0jwPxWwWRTYfEaK8+4Yo0uTV6y8yml8FCaMuWmmmHRZgjWBuTRYwwVfILaBMGopJHoDx30qgY1MWrpNgcpdIjRoaOY+YMaRY5Wi2JGJltOnQnsimGzty243WRybJMNR4+iv/jHf86hsQdAJoNstxXAfnORfiWfcZE+lNIC8IyzRNMFpr4/bvmhv/FNdtuDQq1NyOQiNootpsYnR/FWedttj0RRAGaPgNtDsNtFotNGt1uIcc7G37ePx/76HLe3Jcz4MpjgiDe/5STBCJLkj2yLUbLuYxDOtFXcYCseNr+2soLyDzkaKbNXykxb++pusNh8pMrIDtalu08VGxlyKQuRkFueK9Hey/WvjBdd0owJXFZc//zQg+8v73RjdgkLyzqcAWsiMBW6BEiBWBlnl2espGFwfp2AZKOiLt/qMtr+Cs95yAwKfN5zQnkUabTPXIw1NsDtAam1ZvxYoNl0fHALTCDiqtOqrVBk4//kRKynfVCFqotJqojjTwrT95PnadSWjhXR9djMf/d9LscHpxWKY+bILZgDlRyZ6whG1M48OfYuLo0eZ8qMeZiUMBH/rCO5HPOZifLdIjypPCgVYTxTwtayqwEK4pAEsYBPA7HVpOE//NTJBG8BYil0dfhFeOMqlBmnEowN+ZR/7UDpGX45C5iiKNwdntZaQS4DuddhmXJ7IQ0ebDfIbCG2uOVtls01Kv65HGaNDCNgDsyG5n8gcFINJAEPj4yWO7cNr5xyEIAtPm54uwzRMvtbXG0mCZ8VIA3kUPaFy/bhOuvfUSqy2lbaNl1dF2DdVGE0uGj4PWIQvZTbTaTbTqDQQHQxyshhg+tYxiKT+OKcncJb5jF4N9dl836NGMcui6DRdbZEUv8nff+H18ev1FRsmglMLeeg3lYg7lTJ4i+4rGmj2PgLlXVt6QCHKlZCO0aLJZOA+CAEvDpWRyZuyNFRzHg2vsjdlcI6bNttHjBqcMNs/QIUKfzFzyWapro6WN+aARZhMKl+lBnIs0gB3ZyKxENOphEGLn9jEc/7Ycua5VDpne8MZIM7clhO1+TFf3G6g0G6iONXHm4pMAE1gOGOvUUGu0cPL84/Fnf/i95KUAgPf++zfDOy5EuZTHVzb8c/L0tKLfPRgcNsHRxqyv4LhwF5x2trVBcjof/hQTQ482n6K9dgwKeNt7FyOfzSLnZaAUEcDusRoKBQ8FLwtPOYb8Q60RBr7RTJOkSvXQIMKhbK3KicabBXCwLZ6jHJzTXo6T9CkYWfgaLX2KoM7XnSOeRpSiSeGIb7gPzEZEqr/Dy4Fa0xJtELDbvNjLxKAqQzjeX4x93i6+ZwWlaMJccFoZe/+xjvLiHLWj42KPs5smJ56gwjCkJecgMJ5hoOgl5zPr7wIAnHfl6VSQ0bbRZBH1nUKoA+w9MAK4bTRbddSqFTT31dEcG4Je4OL4U4/H0HAJnuvgtHcM48dP0obKFK9HDHY8zEr0uGU5dMGVZxA3Mk84SuG8951OJMaKhFcPjqJYonDsGbj00i+RYI0mWwMS8AoAdIjX8Bp24jWcpBcDAJbwxkej4Wa+XYIlWKJOxhJ1Mk52TsEeZy8LssS/iutyTmsZ1zz5mWbQDZgXCs+lw9mMQibjwA8RE2SnV7ONrrwUEN88KeeVwtBJWYz9KETueKqPI9GP2YOW4o2OgJkG+0DDUy4ChNBKo5SlYHAamvoCGiFC7Dl4CD/+4f7YlR+++l04/dIyhhcVMG9eGY4Czjh3Af7l8Xi6FMcOEv7J+j9WKeYQFPDBP3gHbXzzMobkPNdDLu8i67rIOZ7RppApA2kkgiAybQhDsi0UmzsJaauNbaG1kY/dCjrKwds658FxHbxQeBawiF9AE0CSHgcA4Vfr3y1P7DBkT8QvtnrRi8OgoSz7QhG4ocjt1OJlw/A8D47rGS0QTUykkV/7odXUV5r7QQMKDj576z2AAq7bcImZWDS7ajS+u3n1Ie9mkM1kkC9mUXnNQWXnIdR/nINauBDzzipi4QnHYbiYx/xcERnXQ7bIM2cMKVe8fhC9tE3tc+zg+o2XsDZZhm0kYBtB0lXIFzPIuS5yTibSaFtBVHQYxDY7Gm03a8C36afMuWXhctOMUsYz7jO0Iue6eNZ9hjXaovSgykWC9gzAyLJUv2bbNh/hv7bCZSCI56zQbcetFClXFpydhd5dhsMruBJ3gjrVvuBwdtcKRS+HTMY1/XjP5+9GGAbIOllkXQ/5fAYfuPadNL8A+KXffTOwqIEFC8oYLhYwnC0gm8kgVxzH9e6gMeuH6ayv4GGR0Gyj64FNMROw2lxIKzoyOfCFb3/vEuSzGRQ9ettWSuHVkREU8lkUvBxcDiMswjQ02zXzxCDCsfAPYLbc02PPEwwxSKSxVlA4IViM5/PPGHK1cU57mREGk+cGgUijQSR76kmL4AcKfgCEYXxpcyZMSASKNS9fuvGLeMeV51Iz2u0ioYFl8uRJ+PMf/X164eEuchwHn71lM65efxEuvPJM7reImKjLZKbm7gK9bAQqRNtpIswWMXxGGaVSDqU8LXvn3QwJ+ezK6pS3l/CTJw+ZfFOkGBxmZgyOix5VULxqRBwhgmPEgyRwA68cHEGxKDwrq4ey2Zz2t9C+DCrE/m6ggV3YiSXqZEABu9Uu4gRZQYTCEudkPOM8w4Isa2aZi89uLTP1nEkQd1H9gpA/WrFZHAvd3HaDQTxfpYBFvJIo56hZFLx5QdeKZkyrDVutnRT2FPnhllx1CFc5CLXG8n+1PDLjcRwECNFWLSx5WwFvv/IUDA0ViWezeRTcDPUbFAKEOGPZfPxLQgueItn2cxMJm21zOHkgxUBhtTd/nXIPKOADv/dODM3PoJTNIedkAAC7X23COa6DUi6DopsnjTabIgSBDx0EeGD907F8PrZqqSEhx3GgecnU2HK7UdRCEsyiKSPOUfSLgtQQEQ+ObBPgioi3D/LSEr1QKND9OPx3JsHvLvjDGz6D3/mjTzC5sy03qayhbA8GQYBz2YQEbKv5jLMdrku+YR0Oz6z5XoMwxD03fh9XrX0XALJNV46CyyGeq50Gas0mMpkssp6LnJtFRokWW6PpN9Fo19FqNzBy4CAeuuegnDpmCDDFXMMMjdEexcih6zdeEikb7BM8JPbUxlAu5FB289AcrVCHIYIgIK7VGl++JbIn/sSNbKcd6TMMlFI4z7mAXH+6z0Qv34ApUMHmXoWzW8TbnAP/HTQiRY02ZjF0RoRb83KiMOB6xRtR2vQPbvgMPi48y7zKKWIvULGLANyxckssyxVf5I2SElHZmkvB5kWOq+AoMp+s+Q3UWi1AOchnPOS9LLLKM03QClpodupotVuoVyr45p+8FhU2jRiXscc9eTQxays2afQRtjHgwZAiDqutE6tYk4YCfn3VuRgq5TCUKYAsx4BXDx1CuZTFUCYPj9/AwzBE4Pu49+Yf9n6mLVL8xA3LWWtBpC4Ct2zIEb+uUd3pG23+Ac5ui9cRm3BnCJrqodj1E4RLRdMrE+dM1imBqz79W/j8l38/IhfTH2Lmo7EsWMqRz0gQ3662sV9Ysjs0/aVJc7Z5zaO46uYLTVYO26aL0O3rEI2gg4KXMUK21hqtoIlGu4FWq45mvY6Duw7g+/+rJRXqlghSpDhqGNCg7ZFt7JACVmy8zD4CAHjl0EGUSzkM5Qpkq43IhOvuG77fm2cBbLrpemhoPKO20TU8xhT7gD7fuZBNR6LNjzHw2BcTPevgDCKqd7SiJppu0N1Yc8pgEW9oW+D+xB99klNEaeyZS669Y+UW+6dJbVIq4NrbLuHN97x/BohME5lrAx2g5reQd7PIOp5MSGgFLbT8BpqtBtqtFqoHRvHQg4NbPezz6I1zYjZgVlduUkiF7VkBq63Hkfku+M2FePJ/jbNRjS/8NzcvRymXRcktGELZVx9DMUfaFhHg7ly1lS7o8wTEWAXAJ288D4o3WirwxkKX3fp1mWFEdxF370fC7VGBIc0eJHuUqmTjudz2mCArLyqaX4yWhktJS6Y1tmEbyEGJeI0RTRvd3ebVjwIAPrn2AnOPMTeMfI194+2ANNnNVhPNZh21gxV878sj3Y9HKmynmLWYpoHcJ5vY4aTArYA9VdZqewUWqqKVKuGdKA/6dteaR+jv2s/w2H6ahFYd+dkW++zIm0eUkYxv8jrSp+IzBou/ImtExkzWrT9HPZfbHj8gExqo0ptWbjXcm0zWC5++5d2kAJEb5v030m/2QoQG0PZbaPh1NJsNtFsNtKpN/N979vYvYBowbtbjnjyamLUVmxLGEbYxw4Pj9Q7DnH1b/cOr3wk/9KFDhU7HR6vawZZ7f0on+aIP/n/vQHk4h6FsgZaqALxy8ADK5RyGsnl4yjPP8B0rLXdEyafAVIK+KACfWnshAIpmBigoB0Z4M2YM1nImbEE7pvVO0Q/PZWUikKk5svdcGi6DDjW24SkApEEhE06x4wTuWvOo6ctP3XwhQh3yDnsJ3EAvSGbDEhTaYQuNTh2tVgONRh3NSh1/fw/ZDSYfC4Bn0RQpZjWOkG36XN51mA+s2HgZXtq3H8PzCqTVVh7Fx+VVNYhpmH0p75sBm5rcc+MPsHndZxHqEE/rp3iFis0SbF/Qlt22YHYI2rMJ43NUl8AtEGG7B8d1HyF86uYLjEAtG1SNv3MhZgCdoINGp45mq456vYZmpY7iwpPwtS8+1z/zacK42Y978mhhVlbqiHAYYRvpAJ4xyGjt3+IfvWkZyvksfK3R8X0EQYhOp4NOx0e71UGnqbHwhGGUijkMZ4rGNGJ3dQTlfBZlrxjPUAObVm2JE4tOdjlTugKuueU9CHg3vTmbFLatGzBLmqmgPSFIN1DYYQllTxqTMNRYqpfh6fApaB3yCoMCRRVWuHtNFIwIxg5UQzlkHqJYQ+Z6Hru6UtS3SlEY91oNtYN78Heb98Xy6U0O3VqfFClmJ6bIPH0u63mYD35kzbkoF/MYNjzL2mxbs91z3PBIZ3vn5Xo5wjASuMH7LByLZ+3VwVTQ7oWeDR1DL4FbhyHuXPVwz77qleMneLWXPiRsO46Dg60qTigvgGKOBYBKp4ZKo4lDr72MkScbeOdvLUW11UDtQBvfusOKZTAA9Ko7MN6Jo4lZWakjRg9vJEmkg3hmML6w/aHPLUW25KCQyaLs5ZH3Msh6LrIZD5msh3w+i3wxi0zGQ87zkHE8KCi8tO8AioUsCl4Wrtn8xlDABVeeiQt+8Uw89dCL5hj9w8IYgBW3X47z3ncaNAtt0Gy7rcQuTewI5TrCCQH5ik2F7YlB2miftztm6gKmn116J08CGvfd/Di2bXkF27a8jG3ffTmW9nfWLIPWtIESsvlHAY7r4p4bv48LrjzTaLXleQsQotVR+MkTvAkyRYpjCpNkoD7J+xzGr3zubJTKWRQzOXj2/gnzhzhQBDMIlxKrchIak7uwE4uxBDuxk9Mxv1ou9GjcUj6LgsXj1CxFP/zsqYPInRopjki+1jjvfadi23dfsZMCPVr4E2t4w78x9VFs1gf4CFH08rF+UspBRwfQKoe3vectcJSDQAcIlI8XHosrOV6/ODYFbWBCmm30eMxSDATjCKUf/IN3YGheDsOZAjzHYS2okDUQhCF8HaATBsi5GSNs7xw7hFIhh3nZwuT7UZt/SEfDtsNR4Btx6WRrW6gMcj1F2dhamBTjQ7Tbv/mb/xo3f+1Wc1CLRxJu/5CjfcpSs2jFZPKmoAoALNdW9699AtdtvJQ2U1r9orXGaLuKaq2Br97+z118100QfKT7RIoUsxiT4KE+SXseVsCHVr4Dw+UCrSjafMcC3KaVW7vMr67bcElXjvIyHYYhlunleFo/BcVRDuM8S0Lc2e1Uq90bEyOnj/7mr2At8yxxKPk7DwIfYRAgCAI8uJ7M9gDgY6vPpZaXlybFXp4UTLRl8t1N0ZLtZ0FDY6xdR7VWx3HlMpqdOhqtOjqtFvxOCd/60x5h3acJfVuj74mjgVlVmWnHBIVtpAN6JjCOsP3h1e+Eizq5D8rm4ToePNdDxsnAUa7pn2hsK7z62ijyxzko57IoOORv2+BwArB5KuSLBu0BIT+xcjymcaEjMUF7vHtK0QPW6uWOHIV1p4MSaCjgj+bgGETiZkMVuM151cEWtKGAFbdfQUkQX0Jp+E2MNWqoHmji25t+FJ3oSYGpsJ1iLuMwjNTndJ/D+MC170ThRAdD+QK5VUV34ju+sMW8GMdOK+C6DZfSd03/aAA61Lj3pu/jqnUXkSAnK4iIPJGc05aALf1q9nrGxMlJzEmMsB1qBBx0SLNbP/E0EoaaTfBk7mOOZQcB4ulJ5sOkoqkZtDDWrKNyoAE3U0er0sDf3cda7YlXedLomXXPg0cLs6oyA0EigmSK2YqvbPgH7HzhZVQPHsL+fXuw55UAY7URHKodxEhzBNX2GJp+A0HoG/JVhQAZ14GnPITQCEksM8LbuFCgdNasIIJbtJwZbbLjEunflPunDrLQgVLAk/e/wG2r4u0vtvGIBGaakMWsJzLvcV0X96+LBG27t2x+y7oZZDwPbiE6liLFsYnDcJ+Fs6+gOAXjQZc6yHguMo7HDBv5mxZ85otX2MM1qoEG7lr1CO5a/SgLZjQ6HUfh07dcDMfWaEPFlCnxvymmiqS7RCURhnl1UDkR35o+YkFb0pmN5+MI2hpAxski47rwig6+8aWXI0E7xTGPSWi2kQ7sQWOCWuAP/e4yqLIPDaDVbMPvaHQO+Vjy5vkocvQ/QGFPdQTFHNl4AzzajXDGQldSMtYAlL05xLpI3v6t45QPKI1KENcE7ydFf5B3En5Jimm32aREa0CHlvjAJiT2JOBEftC1Jn/j0oumhxTMRsmvbOw2JRFEh/lbn3QpUsx+9GEnPvyrn3orhk7Jo1avo9MO0Gp04Fc1Hvsf0R6JX17xFhTnZzFULLC7P3Bkg4hbbaHrji98r++YuX7jZWZcCoijEdNoK2M+Qr9S9EKfRu6D57LRKqLW4gFKVhCJawHaQEna7EizTbbasooYuWW0Z7991b04vnwCAKDaqaNSr+NvbvvHeC0nV+VJoWfWPQ8eDcyaigwUE9ggmUQ6uAeGCQqnb750EcrlLHIZ2hiZy3vIz8+i1epgtFrDnoOjqNd95Isecl4GngRXSGhbzBzAX+5cvQXnv+9M7mKNl546hPknx229RbsKefvnSUWpREAFmWiiIymmgBOCxdjn7ooJxVG3yTEieoeDDNFSJmm1XSdy80eXR4K2DepHjU4Y4LS3lfGTpw5SQdbn+tsvxYW/eAbOv/J0PPVQfFNmihRzD33YiQ+/+dLjUSjmUCoUkMtnUSjlUJiXw5svOh5vePfxOOXtJWRUFsWhHPJehjZGsucRgobjxBePL/jFM/HkQz/vWfRT33sZ57/vdCgwtxrhLdJop4L2YLDIP4lDuoNaWYRlJYqpaO5zXPYMw5GVDyto10dQPbgf8+cdL9nD1wFOf+c8/MsTr/fQ7N1z0bGKSWq2BekgHwgSg7Qffn31O1Eu5jAvW4QG4IcB/NBHJwzhhwG5BAwCFHMZlDmKpNGCAhxiPSJ0sJ9mA03mI6IFNeiqmn2WbLWTabouSTFpRNptxDQvtJmHj2t+fowWLHopsjVrQm46FnCCvmhojDQrqFTqOPX4E6O0fIESzbhysOkLvQM/pEgxt9CDofjQr33hHNr0mC1BQcHXAfyQNqH7YYAgDNHudFDM51DOFODB4fDdFIfg7hseI9Ot2PiLcMcXOM4Bj13h05NOrOIjv/ersbqJ4IfU1d8EMDlSknejHbltFsdaf3WIUGvcc+P38en1F7FSjF+ApN9E0KafZmYMoTHWqqFSr+OUBaTZBjRGWlVUKnX87X96Tq6abLUnha6suw4cDcyKSswYUmF7NmGCwvZHbzwXpXwORTcLlXDnp6ERaBK6O6GPIa9gvFjYG+jEvIDe2pk1TNFJm+7oXO/6saBNXxNnUhwptLY3S8KaBHhqiK1W2P0YacToYHf6KA0lrHbqGKtVsXjeonh6a6VCa407Vz0Sq0OKFHMXFktZXz+y+h0YKuVRcvMJgZnGkh+G8LWPTuBjKFPs8hZ0/9onAAArvthf4LYRG8fmSzTuYATtWIoUMUyNj0S4jvvejoTu6F+L82J9E+8P+1fNb6LaaqB+oI0zTz8J6GdKMrWqTwhdWXcdmGkc9QrMOKa4QfL111CzBb/+u8vQbo6gUtmPg7UDGG0eQr1TRSdoQesACgqecpF3sxjKyG430kCSJpSFbjYpIc2o5jRWv1qTg+EbjZ4mCAYp/w8ESgHrfv1Go602mmuHNdcSwpnit3NHUGdQV1tacPNhrzLWMUDDc1x4noefvvhqvKcTgj25LUuR4tjEB656G1zPQbVyEAeq+zDaHEG9XUMnaJugUhnXRd7NYShbjMz0QtKC6jDAJ25cDg1g0xcSgcOSMKYn9CGbb/QR43ofSXFkkOlu/a/fSFprWDyryAsM+4KJnANwT2jw3BqGlrcods+qQ2SUC89x4BSiZyDjePA8F7/62bdYlYi+HtsYZywcw5iCzbaN183TMTOYgGb7hSd24cwlWdRbVbRbDfhBG22/jU7QRitooR12EGqfSJu11qElXEMEJlGAMstooxCNBoLmfzQszaawC10MJCJF9kLvoykmg49+9Lcjm0J+ThR3Ik0IyebnfuSJPAxDbF7zKJ767kt4+rsvYellp0YbYWXWoMDv6IQddAIf80rlZKacJ+X91HdfTjs3xTECfpAVcOnHT8GwWojmaztRaY6i3W6i02mj3Wmi5bfQ8pvohB0EOoBGSIKXVgh1SCYHbLKnNfDsIzRmn3roRZx/5RlmzMaFb1aGQJvhFGnCo9WpVKs9WCil8Bsf/W3scy2etUxGqE+k7Xk+lXlVa/L3Zf/mZ0BBwdc+QmgM5YvEs0qhE3bQDnz86AeDtdvuEm27DswkjmrhRxVTNCOxkQ78aYERdifZngp4/0eXoFloIFPKIpPLws14GBpeRJptja43bSIPNiVRDuAo+msRimhCiUREoEvYpvG3c2TDTi/BjNH/TIqJoiu8cGylQUief7GmjA6F5MUkCBD4fsxLiXFfxc+BAjDWrqJSrWPJgkWSWZwiRXi/4QdGUEiRYm4jErY/svodCHWIIAjRbvvoNELkmiXUdv0UWBgiP1REppBFNpdDeeh4DGeLxntF4BPXUuAvGnd/vuGZqAQFfOb295pSRUCDBnMzrA13MiPQ5JAK24fDkRORBrAjuz3exJr+oT+0EiyB3ei7NgqtqA7cdyoy6zvYrKIx1saZJ58EQFH49lodf7Pxn6UkwpHfRgxd2XUdmCkctYJnBVJhe7bANrWdTJsq4COr34lyMY/hDC1n7q2OopjPoeTmjWAU8oYeHXB4WjY/MIKWAu698QexrK+55T1medThEMSu60mxBme3lkdytnyJaW4iRBqbFAZGqxV7CLqg2Xbb/GbyMoJ1yNoUEbwpETQkMAP9pQlAwbXMT2jTLADloN5poFKv48ShBdCSvwjcWuPuG3+Aq9e9CwAQhiHuu5lsU1OkmLugsffh65chuwgoZDNkkx3wZkhfww8CdNo+Os0QC44vAQBK+RzKXsEyIwjhd9o0bjj4lw41vrzhme6hzdL3tbddzNezUoOVH0mBu3e0SOGA6DssbXh3+mMVvecbg36nE80j7fhcbjvxcXQGm1ZtxfUbLkMQBtBhiID3QZFpJkjgtmC04awdh1JwXdfslar7TVQadai9efyve56MXSu4au2FfD1w702PJ09PCF233nVgJnBUCp1VmAZhG91PbIrJ4wiE7Y/ecC7KhTzKXgGvvHYIheNcFLM5FNwsCVgc2jsIyJ5MnnvyF0qEHrIf0cD38ResifnEjefDcR0ALGzvH4J3UpOu4+JjgraFOPlHE4skfd0L3SwEd7WTLFnGHwjz7r5Z/+gAAI8ISURBVLIjt41+R2eMZ5Jo+VrOagDkQUSeA4ShzAJxf9z8VymFdtjBaKOO6oEaTj/lJPNs0MSiAZC/b6WoXvetfSLl0hRzHDTePvj7b0d5OIuhXAEZRS5TxftIhxUWfhiitS9AYZGLci6PgpczL7p3rXkEn7r5QuZZGd8keCtH4cu30vi1iwUUCVW84igvwTI+0TdapLxc89i0U1jmD5OaT+YcxiceW+kQg2kS+8UkLmzHoDXuXPWwyehTa99leNEoI1jRAc0BxpRjCdzUl8ZdoOOgHfqotOqoHmzgpOPnU966x0qhowCNKSs1ktl1Hxg0ZrzAWYlpErZxjA/oGcARCNu/edNSlPN5lLwCXt67H6XhLIayBWSUx4IWb9wIyC0gdAitLYFXKXMsCAImCGtziAKU48L1XLgu+23m685uWqHZGXGtKiHifLpRhdepwG2EbDbxYOGVwMSvZCNO9FD0FrY5HzERCmnZmkswrzaKpWJt9Q31rZRpr3IohNAYbVVRGatjyfyFUpIR2pWisMWKXQHev+7JlE9TzHHQWPvQyrdjqJRH0c3Acz0aH1YqzV5Idu45iOHjCihnC8g6GePu785VW6E18Km1F5CAbfMhQ8ZNGIS0miSBqBwK900fXnViTji7tcziS8VjH8bcLzJjkLGdEPYmM6fMCRyecIRjqde6Ec1B1MZRN2n2/hQVE/LKhd9pRxptaMqFA92EYQClHPMsREoMbnsVD+muoTHarqEyVseJw/OkIKkEK0XoCdQA7psOzXavhhgoZrzAWYspeiPphbRRZxwK+OiK88wbMwA4HuAqB55yI82GUkawI+JnQY69WYDJOnpTt9NyUWzPa6PyeN4IbCJxGzlbk49R+S/kyYEyp6clMQe9LmALreQqjOw8A19WHshLiPyXHFZnt0TDFWnNpO9Is01/YQR5Smt3XqTRpqiS9AxERTmKzEocjyYEY1fKeD32W4pjHfRQe65CrXIAo41DGGkcQrU1hkangU7oQ/MLbMZx4WSJcz3jepW49vqNl0EBuH/tkxTQxqEgKGKupVyacpUiTo34UgaVcPZ44jEL2mB74TBEaHGIsRtnBQplfSwN2sPfi3Cs8C00rwDyBwllR5zTFN7aWmYVQ4qFUPMKn9RAaFW02I6DL9+6DV++7Rl8+bbtePCWp3H/+qfMNVSONi9IDhy4UPA8fqmy5lFKLnNl9CI1tzAX6zw4HKE3kl7oTxEpxkEfzfZ1Gy/Gu37pLDz53RfpsP0B8MaLFiJX8JDPZOEpF7V2E/msh7yb4zS0/LXte69g+9bX8OzDO/HMIztpZ7zYBLJNWKQRsfxwO/SGbux7+e0cSmHZondEFTFV7kcQdIPaJJUbFg3r6wDE69CabJ3DgD65rIbranQ6rBGxtFHUP1bzAlakM8rvr2/93zj7PW8xLsfouMaD65/CM1tfw/atr2H7w6/hGf5s3/qq6X+YZwBRkCNFu+c7QYBiJmtmlphgwD+01njm4Z1RfVKkmKtQCjse3YPTTnfQaFYRBB10fPb25DfRDtroBB2EOkQrCJDPZpH3cnIp/1U4/8oz8PR3X8QzD7/GHkjoBZc2pJNgJkoOxSYCFJXQ3rTM7uWsjZHECQLiWXlZD8MA2YyG62h0fNpoSWNb/lqTxusBrDwQu/leMG2DhJDLLUU8yzwXhvjHb/0IJ7xxATQH+FJKwXEduI6L+9c/iQuuPBPbtr7C/B219vatr2HZ5SdTv3M/CucGOkTH7/BzZNVVsfmIZKIUtm95lX/MBfRu89czptGMRPA6GtDTiV7CtgJW3H45Qh3AdVyj/TB/ofHa3kMoz89hOFdERnnYWxtFOZ9D0SMf291RyoDrNlwavfkzGYUh6aHtMWKEb4dCgcsypxD5OaJllYpLnpbGoAtMag5Is0589zp5ZtjjgPEMEgTIZiKtsVIK7Q6FWafJN/ISA2pewEQ6i1YK/MBHKFpxreEoB/evY/s+BazYeHnsARONj5gOUTeRe0eagBw0/CYq9Ro6ryic8EbaDEbX0guB/Szev7b35p4UKeYUevCQAvBL/3YhUAK8QgZeLoPS8Anw/QDlApnuxUFEu2nlFly38TLA2rRMp4Ufoz0WANh0RMxIIkEbMXttcI1oJVKHIf79b30YDzz4P5HxyMwBoL047Y7DZn8eHGM/3H1/cxM95hUbzLNmjhPiVMp4O+Wf0RxnXkg4C63xb/7tr+Kmr95CfQaNwPfN6qNSvNIriijlwHFpjnYcy2BA08bKa255Dz8HpNSAIm5vhC1UGnW0dgc48dQhrhvXMCROlhWVabHZPkzTTQ9mpJA5B3XWRb8ROfecNkx7hsc+egjbK754uRloEZi2mUBe3X8QQ8M5DOdK2LVzDMWFLsrZAnJuFgCwaeUWrLj9cr5WhCRZWqPc6LtFShboDZzf4oWwWRvQFTUyJmyzSYp1upAjEmq06Z6I4F4/wrYQfxiGvOTrI5vR0AFPkq5C2ye7eHvXurRPXNim/KA1ArbHFzOg+9c9gWtvuwSu43JfRf0Q9XBiIhJw+nbQwUijisq+Kk5dQmGGZde9XKFTe+0UxxKU+Sd+yMKHvnAO/FGgfGIW5XwBBTcPRKxsoGCbHUSDhgSuSNFx780/wNXr3k32vI7wLGu/OR/yQkK/JL+Qx67f8RF0OshmWHhnYc71PHR8EgDNPptjgmcPTzbCa1ps2cUOOtG/CrKRsYewzX+fy24DNJlBGoVGKDbZNCc6HExMTDmjIpi32eWu1hp+6CPjeDynOuiEHYw2q6gdbGLJCQsovXWLws+poD33QcI2erDKEWPaMzy2ERO26cD1t18KpWhzhLIGHkAjUgPYdegQSkN5DGdLeG3PQZQX5DCcLdKA7gPJJ8ovEryToCU2+mvISCkOZJMgl4SwrcFjj88XcgqNFr3bRRswXz/CNoxmm4XtMEDWaKSIvNu+A9f1WNgWjZSVBXfRjtw2synKhInWGvfd9ENce9vFZI9t+i45AVAfcY78PeoopQA/DDDSrGD04Bi+86c/k8QGsWel+7FJkWJuITY+4rCPfHj1O9CstjFvYQnDuSKyTsY6S+NCgbSR9lGYscvH5Y9mw1/esE58GJkbRL61YRMtCZIh+QIPfB/ZTIBQXtpVxCOO5xrN69zm2YmTjC1sa36pAZJdy6uqfYRtcD7P5bbzXGttRNc68t4E+ds9j0UUy/UwR1l9xmYko60qxkaqOGUhxTWQeTkMQ9x7M2+KnPjtxxC7bIp5TBwDL2BOI1rvmPZ2mvYMX3eItBuWYMwCVpQIUBx5zPFIq2HesHuBI1qByYGSsrbaCnZi22xHtrxSnpWZ9UfAuUcHtKUOfd2DiZ3b1XVI++S4bD7CNvHSL+P0JKVRvKHRceC5Hq7dcAmZ+sjELYm1fKgv+NKoPublh87IJkmXN3RJJvKfdShFitcFPvqZC+C6CqSYtEy8EoO0W2khfCvfiW+hlDEVI76lcWhfEyH5O+JvupZNz4wJGnM3lzXelDC7IcQ1cbAYHbVZjz6irpCD3QnsKZZA7RjszMEzq46yj4n6wlBsssaKhHqamyOvT8rwLNl+EwdbsQ9c3nzbVZfZiDlRyaOKafRG0gtpBxwJIrdOcfsz+wMVNTNxv+Kg2wkkGEBZdrfmhORjPvSfLbWR1qYPRPqz/vAJADBabUP+CQJ8PYDuWzagumh1yL6y4ztod5h02UvMxCZIamhH8WZWnsQniqivpb/pcnsSIHSLEClSHMtIUlTTq8NxHTiugsMbigHizegltJuj6SMKk4Q4xtwqL7l80JTZG9GIdZQDx404RD5i+y37YuYeEhPWJCE0aBQIFifSnGafj10ahzUnOspB9rSAVg1lsyvn17um1ryqY91mKigCuOva8yb/N27FZhN6332KOCIzEnMk9muaMJBMjy3EhFM6sOL2y4jCjblAnIC0BvZWx1DIZzA/V8be6hjKxTyGMkUWmziduUZj08qt5jhArqpiY0XGvE3+ZtCzhjrmX1vSSBKpL7n+61IRKNG2WEQ4Q0hWRTCDVaB20dq8SImbP2pK1jCPo5GSe5BNkt0QkZnO3bFyS6x/Y12tgM/cfgX/kH84hQZG2xWMVar42y++EHuKYuh5MEWKOQZ+/q+99SJoAPfcYEXT5TH4gf/vHJRLWTSabQyVixjOluDAiQnZ0fDpNeiio46sWrIPZhHbbCigh722wBLkQ1LI2JCXbxHouq8fJCZDCsl6TebaccAvNzJ/Em9K3qLsGZ9nNTSFboemeio+odgpNwvbALBp1VZLeRUh2i8lSN4vUGlXUanWcMLwcdZRNkfSwF2rH7WOTw7WozcgDCzjYw7dwjZ6Pg/TgIFkekwhOeBNmyng07dcFJG5pNMainc+O46D/bUKysU8yplilAUPBiNk270t2SuFq9dfZITf2McUpmIX94xoZtVLiEdIS/KRexQheyaEbUO0XJcINsl2E+5AIFowqUuMoKkOpHnpXZ+4sB2HaGwkkS1oJ9OC+2LFxit44kmc1EClU8NYtYqvbNzBh3rk0uNQihRzDor+uebWi4wsBQiBiUNlGiR7a2MYZmFbkgBRJFcZ310QHkIUYdBhu1/63x6IlK7bE4kNS+BmfqNkohm1+TV57SAQvXAkbz9elxmC4VpmLukUSyMtJJusmulTgARuPt/vDpL3C/ZCIiCPUNFzZqPaqaFSq+GEoePiArvWUI6LO1c+bCefFExuXRU8Ukx7hsc8egvb6HoepgkDyfSYQXLA2+111boLeRLQQhMkxLLPVqUUDrVqKHEkSYEOA9y1ht6MP3XzhXTMaJ/pozjogtiSmd3V4g0j0W+3/sZ6/M//8TX+ZZ2Tr0wYvd70YWkV6NdgoTX9E1paDuEJRZJtZJM+owJ39EVaKeLh/vWImpQ275i+MW1P/2xauSU24Sd7QgG4/vbLuTjOxS5TAzW/jrFaDbU9HjRHSUPsRUrj/z7wj9ZFKVLMUbCw++lbL4ofJwKJEgHY36hgqFiMlBrWJmVYwcFs0LCMRqFSCvevewKfvuU9cB3XEkbtQahwjtFs0+9uROMR2k4iHNLrmukG84EE47I4AnyvNr/OqNBtlBq9eRZEfz0h97Aj90zyTOJ3hPgZ6Zf482P3EQDU/QbGajUcX+IokgA2r35UqHzKiF16BPl0Y1oze92gh3EvI23PGUd3k1tHRIOh+bthD83+kiktDV/SsIQsaF+19kJ86qYLTHaR8Exv7joMEbIP0YB3uEtkMsrWJguF/2EE7T4gRo2047FPnN2673n6IG0VSLh6P0DYCRD4vrlfcssUnxwGDlaokPYp+pDQ21/QRmJiEI2Y1Z0ASKOSvBs7SwXguo2Xmv43z4HmPBIXZxd1UFysUDhRo7hEoXSyg9ISB06pGk+YIsVcRGK89R5+0VHDYzxYtCZPFToMjR/mgP3o08dHKL7w+RP4Pj550wXs4SKAZt2HjciEZDxYHNLlWaP3nQwCImiHfD8mKq58TETLJDMNGLJikOBZarf+gja4n7sTTKb+cm28L2Reir/IaQSvZLB59aPTImjHMF35ANOd2esK/YVtDKJdpz3D1w00ydRE7PIb/JsPCDeI1lqHIa5a+y4KomJpdkMdRgFNLE2EDkPoIECo2WezJqHd5kcREpMEAvToXqlQ8pNA8rLpgNwbBX/QCIMQGS+E5/nwXB+eFyDrBch67NKJiW9G5wJuwljTdDdPFyitiqdlDY7WGtdtuAzXb7gs6iJOpwBcd9vFuHbDJeY5knumSZCfEatPFICThxdiXiGP+cUi5uULmJcvwFWB9dKWIsWxga4nWgal8JYIbZKSx44EmSE/zPQSH30iDhJBnPiWhHHiZw4qFhU8CWK0B/oESWTawHMHNAfrCpFxQ2S9AJ7rI+NS4K6cG7knNa74Zgo9pqAe09CEIfwYMWj06U4Z/yXsaq7U4goX2Bcc6JPPbMHsrdlcwPjCNgbRvtOe4bGDnk0TP2gLOEQYdKS5140RrTYb8WgSEOGbrrPSiQBvRTrTAWkhzPWmxMFhEGXQSwTdezYTIvA78DsdBH4HQacD3/dJ4x3yMuOMStrTCFkqtUhcQ+O6DZfi2tsuiX1is4zxcsP9LZOh0brQQ/bazw6i4OVQcLMoeDl4vKlrZp6MFClmAvRM06ZC4shIE+qwxMZu3tjDhxaOMaOuO0cznuQAAEfGj3lBZoVGQrt9JALhzIDv23pZz2Y0giAgbvV9BIEP3/c58BbzCxHWrEffKjI/Uv9F2LRyC5+Xi6MOpHuOFBv04WScNlQdk372oW9rpJgg+tts2xjIoB9IpnMfCYWlHPzkzedDWcESxITAcRxorVHZp6GPa6OczyPvZEjLEIYIjRYlNFqZB9b1CK+tgI+vWU4TiUM+lh3xAc2/AZqEzpYw7f3QfQMTxhFcGoPWrGkJA/gdH7t3vYwli0/kJVsNpRRc14PnZSgAhOeakMn0MjL78VxuOxCb0InAzcwt/xphnGDMT3pAgWZ5pRw0ggYqjToau1s46QyKbiYYa9VRPVjDt/7sp7HjKVLMKSjg+g2X8g9rzNhgCVgz/x1sVlDO5ZH38kCoeSVQ86ogrxBqjQdv3WayUAB+Z80yOEpRUBSHfHQrCffteORzn/fJwAQOs9Fn0B4VRK1EpiMUzvzVV36C0047jeedkOYo5cL1PLQ7DjzPI/eJcp+zGHKH5JFEBGaY6MgAcOfqh7seGPmplGyMZFWI/eLFz5IC0AzaGGvW0NjXwjc2/8icT+Y7WZjLjzCfacggBSYqbGNQ43wgmc5t9JSDuo8AdPjX/r+zUSxl4e93oBaGNAk4WSbAuLD94C1PJ3OIwOVe8t5T8OZLTzFBThyXBG3S5pAgelhhG/2rPBEcwaUAz41a7AeDABk3RKfdRqfTwqGDB5jkaXPpCScuRiegycBxJdrakdZg8NAAduS2E/mj2w873QF3aox1+d4U2VnefeNj+PR63hQmbsIUvXA1gyYqjTpqu+soHM8XAWZ1pV4JUmE7xdyGCNs9hrwZOhp4ef8eDA8XMT83hAONCobyeeScLKBhhG1aJgTuvfnxmHiSzPoTN51Pxx0FB8ytDnGPCWzTU9hGj9xmGnFxQfgmDENkvRCdDq0eHjp0wLyIKOXi+BNOhOe6aAcuRbbkDflH/XbGQZewzVr5MAwADdx9w6OxlYhegpQCsOL2y6JV4oSw7SiFZtBGpVlD7UAL37zTErbRJ9MJIBW0Zx8mLmxjUON8IJnOafSW9XoexAd+/60YnldAay/gHq9RzuaRczLse5U1LmGA+9f20GbbUCREXXPrxWZZU/GmmykJ2+hb5QnhCC5lUuNJMAjhOT78jo8gaOPggYPGXCKTzWLRohPgei46Poc2Nt5dkrnOLuiYxiXa0CoBkMBt6DguACH56KY23/AYAODq9e+GDkOe4CUaHb1wtMI2xho11PbWcWhfA8px4Hd86CCAH/jQWsPvdJDN5bDtWwdM3ilSzBko4PqNl3bzjZJ/aNy8sn8vhoaKmJ8rY399jFYQ3RwLlNHLLl3GnpySeQLGM9TV694NbTTcJGBLNMn+mm1Br5xnAr1FBVHsZFwyHyFh+yCgAT/w4XkejjtuIVzPgy+KDVktPVq3MgF0C9vUzzR/hPB9H/evfaIrfYSIc6+97WJAtOJs808mSQ5aYQeVRhW1g00c3FUDNIzZTRgG8LwMAt9HaWgYD//Vz5KF9MT0CNtHdHGKBCYnbGNQ43wgmc5Z9Bf0uk984PfeiqEFBTT3hsgcr1DOscbFeNkIcc+NP+g9bqzsFIDrNl5OQpm8gSsWuJUDMjOcOWFbMJUsSANBk4AOQniuj8D30Wm3AACHRkY5XYjjj1+EbC6HTsDLmyZseSLTWQYRtsnmk/osCGljq2bvBveviyYCu//l66duvoAnfLpZCRXsOi6UQ8J2pVFDoB3W4MiV0jhkqqN0B1/Z+DwfS5FiDiEpbHd/AQC8enAf+dbOlXGgPopSLo+CmyOuCTWvLhFfAlZ0yQQ089M9N3wfn771IjbpYuFLvInwsf7Cto3e5Uw/ek0gBGNGEgTIuMSzYRhiZLSCwO/AdVwsPP7YELZDrcmbTMheZQIff36rKD2SsI8oXL3+3QDHxKEw7/RS1go7qDaraAfc99ElUMqK9By08TcbKObB4WBK7q7UBDHlC1P0weSFbQxqfA8k07mJvqtr3Uc/8LtvRXlhAf5ewFmkjRmJEZr5ss2JKFTRnKKwYuPlPLSsZS4jV/EbOBTAb+MTFrbRs8qTxlSyEC8kWocI/AA/+/E/4syz3kj3yC8iruvC8zL42U9/jDPe+HY4rjMnNduiWQtD33g8IKGbPSHoEH+x8VnTpR9fs4w2gmkifXBwJEeWs10XSim0ww5CUIQP81wIFB0PtY9KvTbhSSBFilkFEbaV4lHVe+DvHDmAoXIB8zJl7KuPsLCd5w3YJEAb0mRbXEiWDEOpJk1CsGJlhkwAExO20bfO04fxRQRaRSXzipd+tgOnn3EW/E7bmFs4rgvXzSCT5f0xc9aMhFYOwyBEEJL7Rtt1IwD8xcZnowwAfPyGZXAU+VGHrA5LTAteRSSeJYgTAyB6cQMUAu2jUqtOmGe1+WcqmPKFKcbB1IRtDGp8DyTTOYn+wl78xEeuXwpvkcZQoYhKo45yvoC8k4sLzmwbZsjdzAQMTsbbOKAAhBw0jeoh11EOZ7eWddVjXEwi6XiYTDaaTUlIy61x1cd/Gw9++UF0Oh0EnTY0AC+Theu5yHgZtAMXCmrObJDUXZMATXYh+/mNbYzllw9ozWYl5IeINGiI7POZ/GVTLKfoSb3UQhqVNkU/+xuOMpkixZyCIpvaCOIiIo5dY4cwVCpgOFMywnbRyzPPEG/yYiBdbhQUAGQFiDmWNLqRYB3RDXM0/564sI1JsuNE0aMhesBwLUjr++JP/hlnnvVGtFstAJp51oPHmyTtFcSBVHua0E/Y1mEIn32lh4GPIAg5Na9MSN8ytxLv8oZYs3pIf+2AauO1NkWZHLSwPekLUkwCUxe2MaDxPZhM5xz6y3vdJ37zpnegXCii2miiXCig6OYAwLxti8Cc1KRQIvkTPQbdJcRJkSaB7lTjYpLJx8NEs4omwsiu8JWf7TBaXd/v4PQ3vp3sK3lZk4gymdPsg07aEpoNoaxpYU8spg2MvSC6JgXRsJhJgCeElt/g/LspQl5IOjqc1CSQIsWsAo+HFbdf2pMLJc2esREMlQoY8orYWxtBOZ9H0StQahY0oTXuXPVI/Fou4pP/4SJk3kKh2WnMKTMOKQ2TThfPTgXjERgJhf3RPdYPC7l/fqkPgxAv/uQf2fMKmdecdtY5bJ4mm0Bnv1KDBFZtIkjaNtthKMGKSLFBKg0dbTC3+lMptt9nm3wz37ApSdNvcoHUhl09oDUC6AmvIJrruzIaD5NKnGIKODJhG4cZt1PGQDKdW+j70t999DfWvB3lYgG1VgtDhQKKbp7PxNP2JTfrCdDQPYnfxpSEbUztkn6YaFaidZGbDHV0f5pVUWYCVKBpb6KZHyXI/ezIPcOTPPWb1rJRkoVta+OW1iEQ8pSoyXBQJjyHbShdxwV4k6SCQs2vo1I5AK2SXBxvoxBZ/M2G5+wEKVLMHci4j/2O4yOr3o5yqYChTBF7KodQLuRR9opmWGitceeqrUbBkYRkec2t74HDZlqi0bS12QZaVhDHU7wcDl0DNwHJeLw0E4QRuEnAVlDEOQmYF/xe9zyLIAoGrYEdeVJqxHmWtNuh76Pj+wDzrOIVQihYKxgAlGU6wg4HRKtd95sYrcgGc2pDu0+Ew5Wbn7iwPakunVTiFFPE4YPaHA4D6aeBZHqMINE2irW2xAQ0KHv9p8jGFpqzsD8ANELcuWpLRIL9iFAD//TCFN29TWO3WlUfF6JFMoIlk59SFFyCtAxzT9DWiCYE02V8r47rkmcV12V7SRee60G5tPFR2k0phQdueRr3r32c7LQdBcchcxrhe+3ksO+FnXjtn1/C7udfxe4dr2DPC69i945XsfdHO7Fnx2s4+OOXrRqmSDHHYMYU/2etBtlEI6KxsatlHlHjbIgUyJi7+4bv467Vj5jceoITP89+9KeOwzHkRFl0AlDMP2Ahk//KaqH9fe4I2tw+8iwYnqXVP9d18cAtT+EvN5Dmm+YTmWfEpaMDR9w6snmeLWiDY2coN4eXn/0p9jz/Gl75h5/i5Wd/Zj47n3sFO597BftfeClR0+nANPV/isPiyDXbgoEMnoFkOmfQi7//zScvxl53FzJFF9lcBplMBp7nwnNddFot0r54RW46yUBj06qtWLHh8nhmADat2hr7veL2K6If5slgpuG/CsDZ7UlskuyFHvd2JJhIdoZE+Xd0R+No/WcRRLbW0HiePZHE75yFcGgyurcEBw0gDELcd/MPu+h1xe2Xca8yWNtfaVcxVq3gK7c/33VN94EUKeY4+lCAgsJH1rydzUhKeG1kL4ZKJQxnS1EiHg93rNzSU7sdy5oF0+s3dvMxDMPSNW9tLes5D8xqWDxlY7YL2QLiSxKwn8ttj6qseMZg2Vu+3Lnq4eha842Sf3r9RTS3WCuJpPyCPAiotqsYq9XgZmRFWiYnDaV9NPa28fXNL1g5jw9t/jkcJpQoxTRh+oRtJBllOjGwjGc1lAJ+4+r3oJIfhZPVyGQ8uK6C6zrwXAee4yLjOPBcD55ysWf0AIZKRQxnStxk0m6GHbBpFYeUNaA0KzZeHkn35olgSzR2VyRpFRTe2l4WF9CmgiO8vB8GlO1RR6TV1tiRfSbqKEU26ETQkob/slZGs3nQXWviNqXU79Fvu09HW2MYq1bwt1/8UTctdx1IkWKOow9xKCh8ePXbMFwqYihTwisHdmN4qITh7FBcELbGxB0SursHPsMKjSh5cjBF4vY57anabaeYKkQ5Aa17C9uw/9AXBWATC93XbZANt8zCbF4iLxs0lSrzwI21K6hUazh+3kK+jq/WAcYa1UkJ20z/E8CEEqWYRkyvsI3+hHXkGFjGsxZKAR+59lx4J2g4Xg6eo+Ap0mJ7yoUrbcJ/Xj24F0PlIoazZVrW1NZJFQncXbBnDBbMIIIaH6O3cvBEoHB2e4p220lMQxbjYcDZzyjiwnb3ErPm+7X/JsFdaP3u3UIawEhzFKNjY/jGf/5xd15dB1KkmOPoPRRI2F71NlJkZEt4ad8uDA+XMJwrk6tQGXCY+LiQZJGpAh8w5hgKSIXtowJaDQQATVF6gYhRE8RKSoz4IxCdi0DnjKRtnQFGm2OoVCs4eeGS2PFW0MJYvYrGvukWtg+bIMUAcOQ220kMrB8HlvGsxt9sfhZ+ECDrAvOyJZQzeeSdDFxFAzfQPpqdBqqtMYQ+b5CTjXHQFGxBwnlDPOonPgINK/Q3+U+Nb7QzyaYPPNcMCgPO/ighSetkh23mAUszE0/FsBpFNDNJaNBGoDAIkqeOxQZNkWLc51rYVENDB+RhQzYAymVaBuHhPjwSyUe3eLeIor/SYtQ4lUkxMGgAMPt6Yp0GWNueovDrEc0me4yuFI22zLWGhQlaeFaj4ddjnzD0u5IfOZK1TDFTmH5hG4Psz4FlPCshdxt0ODKgDuGHHdQ7NYw1R3GodhAHqwcwUj2A0bGD0D4QaI1AJgEtb+mWoMxBGJJNScJ45L0iDHzcfeOjCNhvs7g9il88jf0xjVn1woCznyHQXRD/Riwc6gCbVz+MO1c9jLtWbaXAC2EQ/Q0D03+xrh+nUcIwQKBD6E467ad4vUOiRDKn+rQpPRAuBfOrCF7JDyUxghnxLAns5BtfxikpS4SsWT2S4mhAlFCGZslX+ubVDxs+FW6VlySwIN7VZ+MIzIEOac72Q4xWDmK0coA+YwcwWj2ITrOavKQv+FEcB+OeTDFgDEbYxiD7dWAZz1oEnRBBGOJgbR8OVPZjpHIAY2MHMXpoH0b27sPYKwcRhDk8++iT0DpEoCWiFQvaLCzT2ziTvSVYG0FMsyY7DBCEIT550wUI2I0cXRcJ7Z+89t8lajkNGHDX9iTCuQSeAJ6zvBRo0ArE1esvwiduPB8awOY1jyLwfQS+HeSGo5+FgYmgKeSstYYf+thfP2jy9DW7D2ybolKkeF0jDGmV5+DeBgnbYUjjj//ZtHoLaSotlpHzNh+LVlR4lnw2h9AsuIkGFQD+3W+/3+SVYrCIzQ0a+NnLr5gfxLMhrlp/Ee5e8yg2r3kUvvBrQC9MgfXCFGoNem8yb1jJEgDQyrQOQ2hfo/XTGmo/qqD6whgqz4+g8vwoqj8ag79vJHnZFNBddoqZxfTbbCcxzlvdkWFgGc8qKAV8+Np3oJ0/iND30aq1oBrAQ381gov+zcnIHZdFNuch4znI5fNwPReljIeiV4y00drscOQIgprbj7qeeCASzCkwAQVEoWscOK5H7ovYET+Umrq/7YlgQNkKBpz9QCD99FxuOwnJ3H9h4MP3fQRBQP0YhnA8D0DC1t7eEe/Qe7ZEj2z6TYw1Kjhx+AQAQL1Tx1i9Cr3Lxf954B9MHYCUt1Mc40iQw4UfPhFDi4eRyTrI5LLIZjx4rotixkXJKxoNtA5DbF7zqLluheVtxIjgrNEmYTuEDgKK7spjsfbTAAvemocSngXx7FzwljTXkRS2d+S282ognQn8DoIgMDwLdrWqIO5jxdsI6CES+/vkcT4HAHW/jkq9is6eEF+9d8eUuZWereRRQd8TKWYQgxe20U1e04eBZTxrYHPsRf/uVGSHHBSHS8hkPHguCb/imcRzXGRdD66ioCRGY80C9L03/YDyBHDNrRcbAjfa7lA0LuS0H1oDJoT3DAvbgrmd/bQiLmzTFBCGAX700M9w1qWnIPB9WoYWPjc74MWnq0X+VnAFpRzUOlVU6lUsWUCbdKrtCsaqVXzli8+zYG9XIkWKYxf/+vpzoXMdeB7geg4yGQ+OUsh4LlzlION6yDguXOXCEUFaVgV1iIfufww//XkkWgnJXHPrxZRaVhjDACFzLiylRsbzzPgFC9uSSSpzDwZdtGaEbZpDwzBE5yUHWNJA4Ef7WJQTRYdUcKL+YeFaXppk3pSNr/JMVNsVVGpV/J+Nz9OBropMDP2F7Z4HUxwFzIywjUFKNQPLeFbAJtcP/eFbkS0UkPFIoM44LjKOCNdxUJCbaLkyDDS0puUu13MBUNhcWEKc1iHIDJEEdCIRB64rwrYV+cwI25iZPhhwEQPO/oghfQQxI5G+1SECn0MH+z7gKIRBCMd1oEPNYaEjKEiQH36JcijK2Vi7guOKC7gwjZHWGMbGKjh54WJorbF59aOpwJ3i2IcCPvQHb0GuWCSvT6zEyCgKTKJ0nJS1DgDlADpEGEaKilAC3zAcXkmCUlD8okxCNw0mxQG3KPAJBZgSYVsBOLtFcQ1SYXv60ZPOWKlBfUSKKJ851uZiEapJhhYPYNE5R3GgMFFacZ+Cg9mMtcZQqVTw1T/6Fy6Xy58k7GITR1PMEgzOZjuJgfX7wDKeFbDvLmiF8ByglMlhOFtAwc3C42hdgQ7Q8puotSsYaRyCH/oJEZLtrZVibYrY81p2vWG0ZKZYCKM3cpdIwjgvIVJ5LrudJo2Z6AMqaGAYcPZHBCJSql3SXhuaukMpUIRI5cBxSWvtuC5HbaOVDsrG8n7ANobtoIVOp2MawNdkSxp0fGhNrq2u3XAJrrvtYly/8VJTfooUxxw00BhtwFUapUwWw5kCim4WGceFwwJSO2ih3q5itHkIvmalhMW12mxQFy02C+Ec5ltstsGRJ00kW9cl4c2JBLIIlF5kvBTTg37NuSP3THRSbK95XnQcBcd1oFyHNNcOcaxAh2RSFM2r4mQgXlqoQ/hhgMDnF7N+lTkMzDzQfTTFLMLMCdsYZP/rQWZ+dGHdVqFVgh8E8EMfQRig6TdRaY9hpH4AB6v7cbCyD4dG96OjAT8M+GVblq4irQiRP2/i4GVMmwho2UvB9Tw8sO4JIhbH6TEB2E0/Q+0/4K4ecPZTg03SXEFzhJebHceD67p48Jan4LoeHM8jTYrnkdDNArhoX2g3PWnGW50Wb/6i1RCaAALoVlQkND1AOpx1rZMixbTi7+55CZ2ODz/0EeoQTb+JamsMhxoHsb+yFwfH9uLg6D50Ao2OpdRQiMhDNKKyAkUfSqCMkE0CtuPSGBUzvfbLXkyDPSs56RhA3zbtcUIpq88cWn1wXbLdj/iVV34dcsUKTZvXQ/Yws3nNo2yfT0otnzdHtmtMtNOGHjeQ4qhjZoVtDPo5GGjmRx3/a/N2BEGAdruOg9X9OFTdj5HRAxg5uB/7d+/Cvpd24bXHX0XghwgRsnStcM9N3yeBWbmRzTXo7VtgBGxZ7mIyuea2S+C6RCJmCcxMBBo7ctv42wxjwDPQgLOfMOw6PGcFsrFfexxF2hbP83DNrRfDy2Rw380/hOdl4LoUBMlxXZrYzfI0SIgPNQpeEZ12hyK8A/QyFwQ47bRTjO2+2KXaG8BSpDhWEbLf64O1/RipHsDI2AEcOrAPB3bvxu6fvoqfPvxjBOzhR5QatLwEVmCIoB2SqpOhFCsuHFqBcp1IyBYNae700KxGiaLk+dz2WcJIxwb6tqR9QghW0T+k1XbhOsSn0m/014Xr0ocEbodesJg3wzDEp9dfBBDlAgD8oINOp4P/e494PZkiYjfT985SHGXMvLCNQT8PA838qCPoBDh0YB9G9u3DwVf2IvxZgG/92S58974RPPI/6zhx+Znw/Q780IdGCEcpXHvbZUwGROgicGtQGFnHYZMDhwQy1whnsjxGmz/igjYsNjqKGLBULNkPsIi+6CrTlrBB6hbZ5Eh2gdSHnuvh+g2XwfU8OKKF4cnAcTx+8SItt5gALTmONkZqDfiBD9/vmIA2UQCHGTEYSpHiqCPwAxw8sAuH9u7FgVf2oP7jOsrHnYQlZ7wB5573blz+G78Iv0MrjIEOmCMV7r3pB9FeGMvrmzEVEQFNTLwcEsyMcG2tREZ/WFNKQz7FEWAiXE5RI2kFgl6kuN9knwu/JDksdBO/svkez58PrnuK+5Ig5txsrQ9Ao2ObkEwR8Xs53J2lOJqYuQ2S/TAw8hhYxkcFQrJXXL4QW7YeSJ62mRkf+NybUJ5fwlC+hKyTMcuXYUhBGIIwMJ5JkPBMohAVRm7horxjk4D11JzdWhZLd1Qxg1UYZFFdg1JrsiO0LeS5X81ELMcT/aMRLWvL5i3awKUB8MuWQ6seIUKMNEdRGa1iycKTLBMWBa017r35hz0qlyLF3Mb7rn4LcvMycF2FTMbFd/74v+PXVn4MnuPAUyRo5VwPDmiTmwbw8s7XUF5QQjlXRM7JAgA2rdra065aKeCaW97DgjWITXmlMOKRSJlhHxWc3V7W42iKiaJHt8TBCUTYpkP0tiS/EOP9ZG+QaSagcNeqh6Gh8ckbzzd23ooVHkophDrEaKuCykgFJ84/3phx3r/uyQlUNIKO/5NiFkOdedFv6OQjM+MYaAUGmvmMYWIaDSLra265CIdaVZQLBeMHFhBNSwgFhTtXP4wVGy+nQc5v3TaJxMvrLpyOmJlhZj2TTARHoRpHWuR4dLnDmJDEU8V1zf1qwBMGey8hF2US+IhsEUVz0wyaqDSqqO9v4KQli4xWTVll3XfTE/HsU6SY4/iV68/C0KIyMpk8eSBhb0+ucmPpFG9sc5QDDWBv9QDK+SJKXgHg0al1iDtXPWKuWbHxsohfo396jtYYDxsFSCSERzybYjIYj1uBKIEtaMdP2RtlQL2U7EBN/9AzoHHnqq0AgE+tvZA8eckKpFJoBi1UG1VUD9Sw+ESKbZDcO/XAuqfM934QRVqK2Q91pqXZTj47M4qBFj7QzGcEExK2OdH7V7wBuaEcyqUihrND5rS8pW9atZUCLvTKk58G3aNMW2OjFE8CTDqzTtgWzKLqSFWmQo0kbPeaBCYB2zuC2JQCtNzJn0qrgmq9huOK88m40JFwdlZYO6vs+9c+aY6lSDGX8ZE152C4WEI5UzTHNAvXnaCDIOygE3SQyRRQ9ApQCth5aA/KpRKGs+UYd0JHgcQmQkGycY6ZFxA/zeY75ZJqtyeHCXGklUj2IAnMKTuj8TrASqcRYtPKrbjm1vdAa9lb4wAKqLSrqNWrWFhcYDbPiqCtNZl3wpqD77u5m2fpOTP/pJjliAnbOMxzNHAMtPCBZj549HiRjoMSfOZ2EqJf3rMTQ/PKGM6V4SW0M5tWbcGKjVeY3xqaNZgad66kt/E4KG8F4NO3vMdEHURi0+SsFbgxO6s0IXBwBfnBdMy/Fe5cuWVcql1xe9TPgCyJUgCOkeYIhnPDRtAOdYjR5hgqY2M4cXiRTPtd+SueEO6fgOYlRYq5gl9f+VYMlYoYypbQDjrwww78oAM/8BEEPvxOG06mhFKxgOFMGQDw0p7XMDSvjHm5stGCk/zDo8ay2xVokPb7rtWR9lsBuHr9RZSehWvh2NjvVOCeEJKcNS448b/72Adw41+vTR42P+5cvUUotAtxno0E5iDwcdfqR3DtrZcY3+liQlIdq+Ck+ScAEI8lEcODBW2t+ys0Ys9ZilkM6qMuYRtHWy4ZaOEDzXzgSGqa7YOfuf0ySzRSePmlnSgsymMoX0LBzSev6oKGxqaVWyMmUcDHb1hu8lQAuahSirxamLd0FriVItttk2Ovyk4UXY/kEeZnYZqyiWE8wuvZaYdBIj/jWzt2XGPTqod7NpV9SAFY8cWkwE2UvndsLxYN0RKmAtAMmhirV1A/UMNJi0+M3Pz10tIphftuTs1JUhw7eP/vvQHzFsyD324gCHwEvo8g6MBvddCutlBuzAfOLKBcLmI4W4KrXLz64h5kF2VQzhdR9PLdgw8wigwR1LQOEQYhgjCA32lDh5o2pItrOSjAIV41myctoXvPQzVcceklR0xl/WhrKpQ1E6D6dldaXkLQ8+xhYDXCjux2aCWcFyWJYDoUm1Zuoe+WgPyZL77XSksCNwDcuWorrtsg8QkUWmyqVz1QxcmLF1PaMORnQxshm26rP8/aJicpZiuiPuopbGNAMsmEMfDCB17AQJAkwes3XgaoiGyI1AUau0f3oVzkJc4eMG/RbFoiP0nIZgi/aIomKROCBEwh/6KKHNso3iyZvHjCiHzRdkPsyCebZx9MUzaw/Of2gminJgWTZ7SsSUVo0kprjbvXPNo1WXbXQJt266Xhtp4AAMBYq4JqjZY2JQiHomKtW6ANXqlmO8Wxhl9d8QbAraPdaKE11sRxjZPwt9/4WSzN+z/7JgwdV0Y5V0DezQHQ2DmyF+ViEcO5yGSvCyyU0SZ1DT8IoIMAQRAYAQsSbZA53XjBEC8mRPZQUDi7TauIk2QWgMczf0twV8Sxk6WsQUPbnpDsOkt90WOCPBwsAiW3qtFv4VuYFWXJO7HErIE7Vn7P/Fwy7xA+vPojVgJwkCPaYK4U2FSviuPLx5s+0CboTfRSphT9vK+HZlte3lLMZsQ7qK/rv6PajwMvfOAFDAS2cHX97Sxoy3Gx+eKP1kC7SUugHd2xswHswcreSQQfv2G5nSF0qKEDjUAiYnFULB0G5N1Ca/YbSvn99sc+OMXWFddykf1a9KH6GjKaYgkxTEdWZkML1VGCBEnAoFifTBQmbdyHObUzb24MQ1y1/qL4ZbFfnI990LQdrAmDl6ehEOgAftBBu9XGvTc/jvvXPYkH1j8dZaHIN7ByaMJPBe0Uxxq+temn+Naf7sL/u/cgHvnrOv726z/rGljf/LMfw/cp4A2xEtBptNEJA3RC3xpR9B9Aw05LFMkwhM88GhguDWl4mgBjQuPMv3zArspv/YcPSNaTQkQvUhZFtAytF3k6l7jwKILmBa4zB+IydQ7lXuybmwCspLagTd2gOdIn8S1l2z/vz9z+XqPM2Dm6IH5Sg93m0gtUEAb0rLQ6JrrvvTf9IHqpAq9m0BU9BW16oJLHUswe6J7PS19hGz2TzyB613caMdDMZwRCzBFxChFRiNhcrYCO76MdxIVtoW2tNYIwwOY1j+JTa9+Fj9+wLCIs/hPTFcQEuChKlpUj1vzVWkN+JIhOBJweci9McvIx9zeZPCcBedYmkzXXCSxkmzprDsvMkwGmIHDbSZNtEoY0UetQ46p17zbpunQ6lkb9uo2XUU5Rh7HALR+gHbTR6fjQI3G/rw+sfxoP3PL0pF1SpUhxzCDx3EscA/E/f+pJp8Dv+GgH7WRSM/6Jk0MKhMPCNmk8SXsKAGCb3u7FMOGPiH9v+Ot1doLJQZNgTfVnIZ8/InSDOflowwjaUjfe2C0fMwdKfSdS6RgPxg9TfpGgHTKXd6eOspCzn7mdzEiMiQkiYpbV53bYht9pI6xp8k6iFK697RIyGVIK9619glYvnHFFsxSzFj2fFADjmJHY6JrIZxoDrcBAM592CAlff/tlgCEH2owRE0S1BqCwZ2wfyuUShrJDcBUNYLkGAIKANJphQNrq5LMSao2/2PCM+S3LjFetexeZkLArI7EnFLy1tcz8tm3qeoPJ3mhWIgITKJAdo4JMRmpm+i5ZhCF2qh8J1N31VizMCqFO2JyE8xVtC00ARPxBGFjLjdQOUeQ5hc2ro+iO1264hOvAt6BMb/Soh8ZIYwSjY6P4+n+xls0PywxzB3PtVpI9lOIow+qQD/7em1EcKmA4z5vPtcbOQ3swNDSE4ZzFs0QIPG41a7LpY7TZmoRtx/XY3z3tg7HHLrnlFI0nmZcIzm5HCpLD8WwklCYUARaIp9gdKHPsYbIdGIyQa+obCdaEyOyF9g1J/Q9TYXPLmvbDxNolErLB86pSZDZp5jgV5ZGcp8A22skNkwDdx0hrFNVKFUsWsq023xc4SzMv+wHuvemHscsJ0ibJ4ymOPsbvlAm9Po2fxQxgoBXQgy5gILhz5cNsV2uRJn/CMMTdN3wfvt9Bp9ZBu+OjHbYBHsx0x6QlvfvGx6LbJ+mNyMRR+PJt22OCtg3P80x0SfnYrfh8bjs02BZxAu1reqGHoE2HJc5tr7MDhFSsx2MikyW9vMRrRhOtfAyfjg9O81xuO0/uPGloxDXnYQggroHWWuPaDZeYD13GZXM+GsBYa6zrRlpBC+1OG37djw5OpL6zDMmu6tNtcwLJ+k/mk2KwcJseQq3R6jRNkKigHqDd6aAVtLgf4rxMfu3JPluHmgVFBcdz8RcbnsWXb32aoxFK+G/+67pmA3rEtRF+63c+aL4nBeeesLhIZgL7E80ns+RhEgGbqpWoVMS4E6pq4p525J5hmo1yJi63NrD6Pu6+8THctfph3LlyKzat3EKfVZb2OoEVG6+Ia7cZ7bAN3/fRbrasFxnuW35RkI/rxj2IEUzHpZhVmNhgmZBmW3CY98XBY+AVGHgB0wJ5cb/2tvcAyuFogMA9N/4AV697Ny9PMvkqYKRZQUk28PAEIG/wAS9pUvqQBGQoPHjL01GBAn6pv24D2YtrrbuiTNrf8i8ch7POPNNSNPRrX7JzFoG6nzhttNu2y8Gjgkg7FE2edDwORZHDuI36al1il2nj6k+DJhrShoUI/IBs5fkZUMrlDarcB73yBpM4FFraRytoY162ZLWdxmhzFJVaFV/94r9EFyVvZZZhlldvTqL305PCgBtIAbhq3bvZlRsf0Rr7qgdRLpcwLzdMPAsAWpNnE9ZqywoeRNiWyIIJjTblan0356wVKuYIWMFuSIjrDVEOkKmIaNbRPZpY4CNeOTqabWk7o8jQXN9YXaP2l3pOjGMJ0Z4Y6qxQhOwgQBj6bLYXQimFB2/tMR8yIi12om5W/wHAWGsU1VoVSxYsMf0myq+kNubOlZFbyAiSNnk8xdHDxDtjQpptgRmbRwsDL3zgBUwLZFxuXvN9hEGIe274PsIgwKduvoBIgoVmaBKcW/UW2n4HLbYplMEdSjohBCbYnoI20/uK268wb9+OHXrY+k9asfmWQ4kZvH/7mmQ9eHJuoMe9xe5F0cdO1mNART61CXSVTLAMo0m37cSZuBOfaMLSyCkXw5lirEzRatdHq1b+0dfZBGmuWVq9OQ+7fft9Xu+4au2F+NTaCwHwuGNbZwBo11podzpo+i2TPtQh7r7x+/RDiyAbaa8dJ9JcM5Uyv4qgy67/hD8MLKWE1TET76OovNlGusl7oNrFBdck+p7q8+DGvDwlriYFChDKqkXAK37JwcCfTSu3WC8FMj9z/3DZraCJVruNdqMVc0gg/SBzqnnh6kJ3X6c4mujzYI2DSWm2bfR6HGYUA6/AwAs4YihFoWChFHQgZgVMH0qWpkggPtisoFQoYChbZjIhIhEXbwCRxAPreu1+prKSdmiRBjoiiOiY8HjS/7Y5YyAvBr3t8giKyVZIiTQ4R6uPIgGWdq4nB153XRWkzv3RM3pZbHNVgDDwzcuWArljjPzxchnJEa2AZqeBjJdF1s0YUocms5LRygiWLDgZP3ppJ75790+6rz+KmEVVSXEYjP90z21cte5C+qI5qqrhpCjOgAKwr3oA5RLtkYEmbgt8HwF7cIp4jDz7mABhzNmSJ323wdfxLzMudNTw57SW0bju0xdGixpqhMy5EdVaXG7mjUhjPBPoNdaFW3vPDVw3a6WT6pqscDznHVky04sd1SFCXkUMfB+B36HNrGFIabXGf9v4D/YVcShEvrQN39MJBWCsPYZqrYoThk/AXby3RgG4/vbLY/cDrbFp5cMmWwKdj916iqOIqXXCpDTbNqZW3DRi4BUYeAHTgvvXPsE2vDBeMOQtW25Ba6DdaKLdaaMVkO22gQheyiE7sSRPgTggKWjTYYW7Vj9sTQDSZlQ4kQOZRcRb06qcBZlo5Jd8lFL0pDKh9q7k0QARaZzgLUFbzps0vUDt0FPQZoigTpuW3Ki9NQCjfQlwzw3fx91rHjMeaWRXfSdoo96uw1Vu1PIaaIUttP02/FaAUb+B+ceX8Ku//xZcec2brdJnHlLH7ickxWyG3W/HWv/FAosYs7EICrRZucXabeFZbTbZMY8ZoZD/8mi26UFZQnV0MGpRGr+iQhV1KtkgC8Ztf1uohxQu9ZLzcrxvLtOCwz0rwpvGx3hUsSiN/O1xTkDNpfFclvYSdZcnXE4vQFAOtA4pTw61/rHV58ZjUNjQgO+T6YmYQopShFYPO2g3WiRoS7cB2LRyKzatfNgI2PLiFcGqaXelU8woxntSD48pa7YFyUdjxjEjFZiRQqYEpYBP3nQ+ay14BCvAURwcgV0IOa6LA/VDKBaKGMqUWLsdmSAQl5FAR0J39B7W7+43rdqKFRsvB8wj2FvzIMTereGmNKArI42L3IdJYk1KXM/+tZopxM01aL7jrYi2ZsNoXdCjznSTz+W2mzPdgzHS+tNKRECeY3RIPma5vaQPHcfFD//XP+A9//ZcfpcOAThsG8pBiXjiH21VUKtXkdlZwHFnz0O9U0OtUUVtdx3fvv/lZEUGju57T3EsIjkK5gquWndB9IM5yDHmdKSpdpSDXSO7USqVMJQZAqDNeA1YKQINOA4FsNl8w2NRntI2ClixkSMCc2O1X8sid3LHcLzRUvM1IsgrK+CNDSXjy2izI84yfMs8ZQu23cLfkWHSY5wlVptjjRSLONf2nhei65MmeiatknJo71AQBrjnxu/jd1YvQxAEnC+ZZNJ8SmT7wndfweM/3AuAVpjJM5SiuZdNLJVSqDDPhnsUvvLAC/EqjIvoPqnP7HMpZhZH3vhHLGyjx+M945iRCsxIIZOGUsAnbjoPyrihE+Klt/H7jVmIwvs/fxbK88oo50rIOhnjfkqERKWITGRjzHjYtHILTwqk8aY3efpEs0BEguML3MKfkTbA1j0YUbsvoR4NxMmfqk8kzP+bulJTJutM95eMXNYbPCVKQIcwQBho8m7AfsgFSpFpCdl5RseoX11eulZohx1UmxVURsdw6kmnItQalRb9/saXXjT5zQQOd/eTxpFmmOyqFAPFnGhuJaYkCmDBC6Bx5TouxXxStDL44qsvYei4IZRzZWSdLAcA4+BhLCjft/ZxztiQpSkKMo4BUmYYLo4EbXJNZ6W1zT76CNyAIVojtMsfSA2IsliAnZ6eOdLhKC8G5v6t2WF8QRuGO3dkbRttJHxnRe0rixZ3rX4Y0BofX7McQRjCdR1ojqSreZuTyUsBil3gikcZegFT6AQdVFtVVMcq+Pp//fkkGiOe0H6/SDGTmL6Gn7IZiY3pq84UwaQxWAy8gClBa+DB9U9D81IX2L7swfUciCRKiW/+yc/QaXfQ8sk9lTJv4kzS7MeVUve+Xw3gjpVboAH80vt/gY+x4Mna8jAMEBh/siyEg4iy26SEIAIpESdpVxzWHBGZCfn3ItSjAaqXaTtpPxOYQj6SXh5S+uguX9rUTuLhRIJLSD8o0ITiKNpU5bosUHMBMYGbHgLzm1pTXgIova9DKDeHTGkYL+7Zi3985idot1tQY71cTg0Gkx628Sbs/zlSJPM7kk+Kw2LWNxmPYZc3MypEgu3ug3sx0h5DJwx4fAFnnnoG2q02Wn4TGuyxSXjWUbhv7Q9pfNLbOt904s7lp1LY80+12GFSaHCAK/ZUZPzv87jfkU1qcRnMF6L8ADlBocNsqifnJtMfyT6c1v6UOUAxhyX4VTiwF7TVFtTMms3reLXQvLxoAAocIJc8bkHhwdu2GUFbwFNV1G78gEg97Nr40ICTgVMo4Zc//0Zc+h9Os872Q7zVpqUNU0wB09vy7oJTz16bPHgk6P/YzxBmpAIzUsiksPx9p+KBdU/i2Ud24dlHdiVPG5y1tAwv58F1HGScaLOcskjWkAnfpzxym1ZuwVMPkdZTAfjlT74jyhgiJAbQgQbYftwmbyHKfd4uLArIqb9kHicu/iHMJ3nMunanOkWET/UUAbwfoglABG1qq1CHuOeGx7D08lMSLzvUduaP5C1/bbtQ1436U5ovsYkSSiHreMi6GbiuAy/jojAvj7HROlp1Fz//x4NW2YPBYWnssAleB+j/CL1uMBua4PrbL8V57zuVfvC4Eu2lt6+IVqEBz/OQczPmmv379sPNZ+Awz8pYVUrh6e/1MdEy/Bd9veDKM1E+MUvniSyIK8zmdmIKph+2NyYm2ufuwiJ/cXwwGVIQRrUEV/5ueGVWIc619seQYw8834NnRSlklEB8teaPlHH+lafj6YdexDM8py69bIllXhmVa8zz2Ce6CUykHGQcDzkvA89z4HoesiUPp5xbxplnn4CfP3sgVldCD+LrcSjFIDGYBp8WM5Ikej/2M4gZqcCMFDIpTJQjf/0P34xSuYxyliKgyQMQu1zYXkxGdJRAxXyLEpVFbpKiKIdCQC4vrRkXVpzP2c2lsVJ717/nwTmGuKlH5EebJwBuryCg8M1aA45LZN09sXCOMuEGIfxOm2wJY/bhtBoAiE0pTaYaGs2gibybN/n5OkTDb6HV6aDZaqFRb+PACwew7e8PmbymC+OSzbgnU0wax8LQYRyNW1nxxcuIx6DIbAOIrxjx+Nl1cDdKQ2UM5ziiJOPVAzvJdjtXps3JzIm0Gc6y3xBYnCvDOLYxXTwTsS9oMiOjce64LmnehWetvM5uLY3yQF+inb1IttOEwBvzNX0nr1EUVIhiTNBxsAB/380/xDW3Xsw22SzUw4FGiE0rt0qWAIBP3HS+VQ7gumSj7bBSg9pXo+k3kcvk4cAFoBHoEHW/hWa7jUazgVbTB0Zz+Ps/38E5dd9obIEyxQxgcA0+EGEbR4kcuzDwSgy8gEljIjz6q9ecgeKiEkqFEsqZEh20nwLO485VW2mwyzn2SmIXIdoBEvwCDggQgmcBuK4L13PhuhlDYCAukhxwdmuZIbje6HtiDoBuVPfYoCPtZpvesAQeufQzG7As934SP1Jr3LX6Eci8fc0tFwFKoR20UW1W0Go2cfKiUy0hXaHeqaJSH0M2m0chk0fOLZh298MQzbBNk0GrjZH9B5F7tYT/939/YtV6auhLMn1PpDiqmMVDbiartuL2y0j7KfsyGAowWuSdP9mDzIkeSsUiyl7RpHnxpy8jv6iAMvOsNrbeGneIwB0D3Znq6f2JXsJpv4bFs2BTNtfF2/0L8ELh2a6VNSlFAt+MQ7SzC8nmmRA0vrhxPd6/9v38k+YnCVBjzG7E5EYpaK2NwOw6jiVwi4KCBe5e9eGmvPa2S6jN+Zp6p4ZaswbP85DP5JFzc2TmycqNpt9Co91Go9VCs97Gd/7kr+A558Wy1uafFIPHgBtaD1DYxgyTYl/MSCVmpJAJYyJc+sHffwPKQ7yJx82aO+ieUuKwj9AkZEXe4okgDANyj+UoeF4GD6x7AtduuLRLs20XJRt6uksU9D8zu0EtKmYjsePcdjoMyaerDmgCkGRM3mSnHXk7gKMge+JNbqIC0XZTkQ2iHO6EHVQaY6hWKgiCDvKFAnK5AgqZAnKeCN0KHR2g2hxFtVLB1//LzyWzKaOLYLoOpDgmMMNDdCaKu37jJVAORelV1qOrwMI2aJy+uu81DA2XMZQrw1Oeuf6l3S+hPDyEcr6MnJM1Ws9J1972t++Tv/1Q08Z2x3XgOB7e7p8P5Th4If9s1xxAJdIGdWDyxc8YjogbNG78z6vxb9f8hnUoUgbpMCT3fGY1EealRLkuHPbmJKsDiK0oRpszk0gudnSCDiqtKqqVMQSdFgqlInK5InKZPK8o0ub1jvZRbVVQrVTwtf/8UztLIJFvikFhwI1sZT/tNtu9cNTH9YxUYEYKmRBYZuqLX/mP70CuVITfaUC5ioRt1piy5R7/x5OK9YlBkwcUsoFju+OQTCGgyLXVA+ufxDW3Xkx2bJJrV0aI23H3Ksug/5mji/igtX+J3WAvyAtL1Cx8f7LHUVsRPvk4aVtIoyU9o5KbNc3mSQeay6m1a2g0Ggh3KXzzvpew+KwQHd1GgAC+DqAAeK6HRqeGVruJ1r42fvzMqFX45NB1x10HUryuMKChO6BsAQBPfe9lnP++0yOtpQhfSuGuVY/gye++hKceehFve9ti6HwAx3WQ9bKmUvPL8zFSPQTHE54lHpwURDvLPGs0s7L5kl/GT9CnwHEc7M/sYvaOIL/2ebtjPBs7ebQwaV5IXqAANht526VnJ84xor2jhnOlH0kbDebRiH+lYcxMmHyDYVjZQAOod+poNGvAPoVv3PMSFp+pabOs0vARAErDczw0/SYarQZah1r48bY4z6aC9kxgwI2cyH5GhG3MgvEMzFQlZqSQw6IPL+BX/+AdKJUzKOWyqO4bgZMjd3C2dltgv8UnyVtDbN9kVzzt8oa2tLGug/PfdwZc1+P6iAjfO+997i7a1DMhoRuHPTtzoHux7bLBttn73N38S8haPlYfKSJ+xWTviDoazLoscCtoQJPdtUwKDgvfpOu285cZgPJu8ARQPVjBtx58CdDAz/+hiZ88WcXxp7agnRDa0ehoH0EYoF6t4Vt3vRTVY5KItcSAOS3FMYBpGMrTkEVPnH/lGdBa06qS1rhz9aN46rvxsfH89n144wXz4GY9eK4Hl01MAGD/nv1QWYcVG5keNR1ngIj5io7Ch2teASMhW0E5LsVRyOzGAW83c0W8DG25K9zn7eotdAuS1RsExrnl8ZHgWqXwfHY79rq7+tbbHOYv99/8OJ55ZCfOe++p1H629popF+zmD4i4WbjUcLX8Z44Bdb+BRquG+mgNxZOPw5vevQihW8Df3fES5i+uw/GAUGn42kegA9RrNXzzjrir1Sk3TYoJYsAt3Cf7GRO2MUNj+LCYkUrMSCGHRVLg/sAfvhPlch7FbAblTAEL5h+HAyP74Hq0dOY6nqm50bjakAy1xp2rtuLp775EnjOskO8KvGHHIXttsjOWDTvgJ5FMKOLHoglin7sLn//YdfjIh/6tJIi1aPxaQdeBASNqHJoMo/bakd+OfV7SI4wwt3yl35qbVYHcgpF2mpYw77/5cdoBz5AXFLlTRzk0hYoQL3mbMgjtoIVaq456rYZv3fFKV7++/M8d/PiJCk44owM4dDI4CPzLM1PbIGmyTz4/KVJMBlMY0lO45LB46qGXcMEvnok7Vz2Mpx7q70nkRz88iLdctBCOqyyTEWDB/AU4cIh51nXhOWJmIpzRe6DIKdnUd/eNj2HpZScbAhQPQ9EGPY4uK43QO1uAOWeftwuf/53r8JFf+3fJ04Tpasxx6jFxWHzLgjYpM8bhWeuLzBeO4+C8952O8957mrUBXVYBJW/xVEK87DjWq4s0cBfParTDNuqtGuq1Gs48+Sx66fIUvKyLN777eATI4e83vYwTz+xAuwAcF50DHfzL9hHJRLJKMRDMQMOOU8RAbbb7YbrG8JQxYxWYsYJ6wibeD3zhHSgWsihmsyh6eSgAfthBrVVFrV5HsVRC2dgbin0azHqWVsBdqx6OP0wK+MSN5xshmZQ5ijb3md3ZEZEppcymHk1b/Ji4REMA1tBGuO231uG/f/lr9KPPkxoXvAfZ5twWsUPRr/gGyERDQceicgLSzETuykSBjsrYvOoRaGh88obzAIe0amC7bcdx2NUU+/aWjacJhGGA0dYoatUqvvpHP+nbhjZ+6erj8ff37k8ePixM1hMoI0WKSaPH890Pk0g6fVDABz53FobmD6GULyHv5PgEbYj89T94I4ol266bxzqPl/iwiWyEbfORmJme8IDjkHbbIkKiEnk9j3ORYi6W31DAQ/c/is/9+8/zsX4D2GrVXg3c77IpoTszuafkRvPutNa9Adb5aD2V2pzbVtOqbBiSxxI7ONz9656gyxXwmeSmVasNQh1irDmGWr2ChQeWIP+myCtNM+yg6bfR7Pho1Bto1nw8dOePmWf3RZmYeqWYfgy4YSeQ/VERttFnrM44ZqQSM1JIX3z8s+/DyNB+5HIehnJ5FFyaANpBC/V2DfV6Fe1DPvKLiijmixjKlqHYJth+y9+85tHYA/XJm87nQAAcxlY5JGw7rtnRrRS7QmJy15pC4UIioFnEr1hLA/AmwARu++31+O8PfDUxbVj/9m3mvicmCNvgpTcbRuQfnYvInA9wBR3HwZ0rt+D6mEsv+UNCt5kiNXDXqq345M0X0m9+USEtFi0ft4IWGu06apUKzjz5Tdi0aovlyYCiQlbrFVT3jOH/3p/UAk0fzJ13N0+KFNOPCQzrCSSZfijgw1/4BZRLJQzlhuCw8iDUGq/85CVkT8ijmC/wOeFZ+sdmGmMmwcIgmelpaISGb4kDomiFRrS0hXQWHAWKNBqWVhcxJv3i72zEn9/zv00+dHGSYwfZsj3agAvuucmc/pi0cj/2fdmI0xPzMwvbAXvUos2UASVRDh5c/xR/j65UVvRkAKi0x1Br1FDbP4Z5Jx2HXCaHvFcgH+tc02bQQdPvoNFqodXuoFUJ8f/uet7k0WNqSXHEmIFGnWARR03YRs+hcBQwY5WYsYJiUAr4lRWnobygjGK+hFKmjHbQRK1dQ61aQXt/E3rBMIaHSyjm8ii7OUNiWsOYhxBpk5AcBORthMifbQdZWCZNi4QFj0KGa5DgCACfWvsuzlfs3ci+m/KgsLfWwp0BCaP0uL61udw0qdGsd1/SE5rnD74qeTpG4snjgm7tCsx5mezA3kaofhqb1zyWvAAQX7p2NSyN952rHsZV695tNFvQsvlUoRG00AnaqNdqOH3xmaY9BfVOFdVGFZVDo/j2ptd63M/0oHdbpUgxQ+g1hC0c5vT0QgHvv/YMFBeSa9VSpmQGx8/27EapXEApl0fJy1G9WPtsBGNEAyrSuka/SViO3IHagraMw9AO3qLJ64apHmvExbOR5BeDEKRxyyoQITb6fXhIXv3QmzikLXbknumThtstpDkoErYjszra+kJlSw7JecV+KbHdKuogoJorUiB5GY98mSuan2zU/RqqjRpqo2PIFHJo12rIlQrI5oooZHPIe0VjOqShMdYaQ7VWxVdu/5HJQ/ouxXRhBhpzkkUcVWFbMN5QnBHMWAVmrKAYlAJ+9XdPQ2neMEr5IpqtOmrVKrAf8BflMTRUQjGbQ8lovdvIuBnAshcEEyC5TYr+AhJK3V7SZDtt63m8a9VWaAAfXxMJyfKFNlMqOK4Hx3HguV7PthIBFKD5QMg0cmcVXdN9NaGX9qDnXEPfYsd7C9hxiLZf2ijkNrr3ph9wCq6/dQ3dhkoEsKD7DcOQ3HyFodmQCm5zRznYffA1nHrSmWTnDZpsAKDpN1BtVFCrVPD1/0obIgcBbf5JkWIWoM/A73N4MFDAB//jWSgPD6GULSHnZvHivr0oFfMo5siMDwD8oA1PNJ+WFtoWAImDRTHBwmRC0BaQPoQ3revAREmMBqitEXfhiCvR/gRoXQnDs3Fhs1/L9iKFZNpuLkQs1HzyjFxP90SBauhlQotSw4rgKPNDVy68yqoUuQ+h9o6CsoUBuVaEJl4mW3svCs5m3UczaKHaJJ7NFQqo7a/g23e/ig/91hloL2ihMFRCLlcgt3+ZPPzQR6VRQfXQGL75Z7TJNuXQ6cQMNOQUi5jRDZLjITkMjwpmrBIzVpDBj58cxVnLioDnoDo6hrG9LrJLihgeKqGUzSPvUkjglt9EtV2F47hwHRJ6iZRkV6LUnf09s4BtiCghaBP5B9j2vZfx8TXL2WMJSAhlP7EaIRzXg1IK99z0A3a1hZ7tZAvCtDmQ3Fnt83Zhn0t/k7vsDUX3ZLWktibCjhxtdNzn7cQ+bzdfm0xstwlrWazJLgxISH7m4df4fM8qAACe+u6LuODKMxMnpY2sm7d2xc8rH8cvO3RCKYVW0EKtXUWjXsPX/vjF7vKmAT3vI0WK2YLkMGX0OTzt+NHjh/CmC+dj579U0Mi0US4XUMrmUWSebQctVFtVUi44xH0CraOXdRlkJGgLv8Y12nKNrHxFXkuIYyUDBd7foRTe1j4PJ4QnYz97L+nVMsnhvZ+9mNheo5KaYgJdKdpmQAT0eFo5uyO7HfvcnSbf3jBLkYC0kdFIi/ZevDYxHybKvHPVVjz13RdpfiESTVaJ5ydN+fGcJy8oFB0yesFph23UWmSKWSyXUatWaQM6gBf+aQQ/fqqKUxe78N0WAhUi0D4ChGg2GvjaH//MKjT6muJIMAMNeQRFzArNtqDXsJ1xzFglZqwgA6WAD3zuNFQrWZSPz6BcKqGUzSHH2pWm30CtSeQxNDQfhWyRXALK238YGqFPiFSEPiElewL4k6v/GJ+5+3O8NOfD7/jmOhY7AQ38t9uf5SsIkYY3aiPRahPBmsM8CRGpEoFG57pgX2gjKW0LcUc/EpD0XB6np401ZJdubP94OfLLtz4dzzYJswEnyjPScPHmqCAwqwwK5MecAlrIBKDghx1UWhXUazWEe0J87c8tUp8mjHsfKVLMJvTggx6HBoJL/v1pWHjafBRytDE9rzKAini2Ua+hPDQPhWwBOV5VNPEKOFCYUFNM0GbvTkophAD+4av/jLd/8K1sakbmECIwitBpNNqsGX9b+zwopfB8/pmIc6gG9L8WhtbMNpyPJJOjfRqzW7HRQ6nBHBc/RL+FVqMS5a8mrk1GhAS5ZjTeWbiN7AoqKGxatYWFaLa5VqLdjjagkmabNkrKiw157CKFEgAEOkClOUZ7nnZ3kDkxg6/+p+7ANHIXv/KxxXCP85AvFlEfa+Bbd7BWO+XRacAMNOI0FNG9E+0ogobRUcaMVeDo3G2jncPwCXkMlcsYyhWQVSRo1ztV1JpVjI0cgj6k0GjW0eg00Ak7htirfo30yUzYRpPNXkfIbV3Eb5+95/M0AWgNlhFF9wsdavzlhmfxlxufhShgxieeSJNB2nJyNyjHJOe+MKdYKJ5Q+2toKIRaI+QAPvJX/pMs6I/te5wEbYn6pqNEE4OZZOmfUGtUWmP8SiEvOPG5LtA+qq0qGo0a2vtaOPFNJ1lnpwem6VKkmAvo8bz2ODTtuPQTp2HhqcMo5rMo53IkaAOot2uo1CuojI1C71eoN2potBtohx0AtPlZKYV7b/oh7l/3BO1hMVEN44K24B2/dnYkeAY+edSwvJYopfilnF0EKgfP55/Bjvz2yARP8+C2NMaSTxgSj0UCOAAoaA7iEvuwoN7dwnRt8iPnwPwOTXbYsvLZK3XIQjrVieslnBubRKiNDF8CWLHxclLmmGQkeNPLgPWxPGopx4l5ySJBu4JGo4bmvgbySwpoHmya8wS7zhrf/oud+MZ/fRnVnSOpoD1tiD8XA8E0FjGrhG3BNN3b1DGNDXx4zFhB+OXPn4PicAalYgFD2QIyygWgUW1VUWtUMXrwIL79Z6/hGw/8HK29LTQadTTadRK4AczLDcNzPQQI+S2fP2ajTaSJ0OYf0ZKIMKygNfDfbv+HWN16gzLQELs8IdWAtMei1TC2iT2a02hpSPvBJs8sMHcnF8g5mnhgtMvRMiN/zH3xRKQ1tOZJir0I9C3kMJC2VACqrVEM5eeZyUAmUVEXhaFMAFU09tex5MyTobXG1evfnch1aqC2SB5NkWKOoMdgH9TjfPnVp+G4xfNQKuaZZz1oANV2BWP1MYwdOogzT34TTjvnDHT2dlC3eBYge+rrNlyKa2+7JBL4+gjahovEZI2124bdFHlAMpsiZRWMX9ST+1CEyUIt/MWKDfHQYUigR+sRAZqvETf2Qfw2oLUmm2m2nW7+c4c8hHQJ3ZFgTjJ5pKm576YfYvPqRyVXezai8qTtFFjLzUkZCrwHiV2ritANbvcgDFBtVtBo1lDfX8PQkvloVKr4zn2vWbn0v+fvfJmCnKVceiSQ52DAmOYiZqWwjem/z6lhxioxMw/Pd770HFTYBsIOgqBjtKW1ZgUH9x7AdzZF9nLfeuAlNPc1UG/UUWvX4euAlxEpClo7bLHgRwSm+Bwgt8MaaCFCLRHMNP7bxrjZiIFC3CUeEG8XyTNkv7NBZFohy6/mEv4YQdh2n2U2fEYCbTdEyNb421v/hrVGVF4QBqY8KpPKVaC2IH+tkd2khsbH1yzHp9ZeEJtgDGwfrl3nFQCFZrMRtbVD3kjErWKoA4y1xtBoVFE/VMPJp55KHmOsuh0JpimbFCmOPhLP8iAe6633vgx06tBBG37QBrRGpTWKSn0MYwcP4Y1nUEhxBYUz3noWOgfaqNdrqLfr8HWHBWvWSMc2nYugLR/KhV7s+SM8qKUEfiFPKELoWxfZAIiEV8N3QYAgCPHWxlK8tbm0W4DWQhKi0Ii4n6rSh0D4kPBs67mOEbSDwIf7C6REAAvVPfPgY1prhEFgBPw7V23FppVbccfKLZwsfi257UvePysxENlou2IbrxRCHaLaqqDeqKJ+sIpTTjsdw9lhfOuOiQnaglTQnir6PEfTjQEVM2uFbQzunieHGa3E4Auav38hGo0aGp0GKs1RVGtjqBwYwUMJ5/oA8O37X0bzQA2NZh21dg1+SAI3lIO8V0DNr5u0yZob3YolqWkrZHAv2FNIL1BOoskhAZs0OaTN2bzm4VhNJK2tnQlDHzokDQo4GEH/PqYT71/5QYQ+LdGKPV8geRrNN11x9w2P4YF1T8RyYRkZWgNXrXs3rrntYnuujO7Z1lhZUApo7WlCcTQzR9FqApSiJc0WLWnWD9aw+KRTEAYBTcpa496bHk9mNymkE0OKYxLWmO87/I8Af/tHP0W9XkfDb5Krt3oFB3ftwxvPfAtCHUIpZYTWM958JloHmmg06yRwhx1okLBHm/JE+KY4BMIYGjRA773pB9Ah81h0Jg4tpYnttEVAPSCKBKPUCAO2k9Z4a9M2PaEvuocdtawEigelXtUCXw0A7i8ovjba8yLaerAJn2Qht9Cz9lIv/sQEbovQVmy83OLc6Dg1Ob3ggO3cQ4SkmGpUSKFx8mmmja5ad4G59nBI+XSqmIGGM8/zYDCrhW3BAO9/4pixSgy2x7/8wBMI9gZotuqoVEdxYOc+/N3de5LJDL5936toHKih3qih1q7AZ9tCAChlSqi0xhDwMap5JGRHhE3HFBT+YsMzVu4RlAKuv/3y5OE4rElCi+205M9Cs9aaTUZEECayD8T0JAgR+OTWKfB9bF4tAjozebLpmR3DUCMIKfCBcQ8VBpQ/X2Qv7+pQgv1wlpKvBsIwxLW3XYLrNl6KFbezDaE1a7SDVvSD8Z3/tjMWMZIEbZ+8jjSqqB+o4aSTltCkq5Sxlf/U2olPBDYS81KKFMcmrGe81/CfKv7V594A7AeajRqq1VGM7D6AN7/lHIw2RtHw62ajs+CMN52FxoE6Kzaq6IRtnp4VyLcTf1hLLbhrzSOk0ODBKlpYSmPxmlLYvPphigKcvM9Ifk8ctDTTWuO53NPYkdtmtRR9NMQDk7XaGPDqH5u0/OTvfx7VpQdCHQKKc2MlRhgE9FdWSGMXk9rG3C/oHj++xvYLzrAFbgFdHD8kKweW7bajHAQ6sDTadZxy8hlWX1AeV62jwGPjIeXTqSDZ7wPCDBQxa1z/TRRdnHA0MGOVGExBP3rmEM58axEj+w7g0f9ZSZ6OoIDrN16GefOPw/5X9kBngVBpuI7DbgGBnJfHaHMEhUyRrtHEKmbzSkhELHfy7CM9XDsp8kDST+sdO24J8XJO3Fmd/4tnmomG5h/ZrCi23aQlUYqWJ++7mbS+Tz30IrvdO8OUaKAU7rnx+1h2xamRzaIpW3yMk1CtlML57zsDT333RSx/36mcjmvP5O6wCYjx3MJkrRRVuu7XUWtVUcyWiM/5v/Ped3psIuiEHdTadTSbVdT313HS4iWkiWFykjZzlMKyy0/G9q32Uuf4SCeFFK9L2MPePj4JfOiT5+Gs9w7huAXzMHT8EMZ2jmDkwEG8+eyzMdYYRbNRg2a+yLAbQILCguMWYP/LexFmNbQCHFfBUxmqTULIlmue+u6L+NTaC5kr+KgClAagHDyw/kls2/IKnv7ey+aqp7/7Es6/8gziiFieirxSGwGbg2iBeYyFz/2ZPcxbioRt4fsgJJenhp+Fr4Dj3rgguiZxH8KSxrwvpqW3BOouzb6l0KELAajecwyAJ7/7YnTf4IYykAIjLlfKYZ6totmooXGghtNOP4uTS7tEFV12xSnYvvVV8zvFkWCGJqEZKgZzRbNtYwbbpj9mrBLxwTyd+NY9r+DRv6r2F6wUcP3Gy6HZfdTpbzwLnd1tNGpVVFtVNP1o9/WCwkLrQtHzslxq7kHBcd2IK/mz4otXxIO5WHe9aVVCGwEYok1ChFYt5TIJh7JZkTUuOgzh+z4eWPekVRIJ0Js4wiWY/JUCHChcc+vFuH/tD63SeHnVbIC0GlEB19x2CXkRcF2Oisl1Ni8KppLmpUFrDV+HaAYBGq14v2vQCwLNt5Ef7Xq9gvqeOr5z/y64nkuTlLmG8+XP1evfZc71RexWrLaZ0U+KFEcJ1iM4lafxl695O/SJbcyfN4RCJouil8MZbzoLbzrnbIzVR9GoVdHe10KjWkWjXUe9UzPXKgXcuephfPuBVxDuDlCvVVFtVtHw6z0pj+pG/zqOZ9zekW23gwdv20ZhxnsNL7N/pg9YHiZ5mYVcjn2jY5exaQevLhLX2l5ByCNKVBZXItGwIoPTRkQSumOCNG/WjARcriOTYiQzk8Li4zf00G6DLt20cqs9Q5m/UsdI0FZoB01UW1XUa1XU99Wx8JSTKJW0i5nIzIW4al1vnu07z6ZIwH5QB4gZKsbGnBO2MfNt1Bsz2lmDLawXEaxgkw775f/kN58KZ7eHeq2CamMUtU7VIi4b1jENEl2Zl65efxGu23ApVmy8LCZkq8Rd3rlyC67fGBfCRQAGIntHUnZYpGeEWNZkB0LWZPIRhiH+/NZtksx84rAOKMBxXEApuJ7H2mOrLCkyugJKKXgS5Md1DSnLcixNTHQHoQ5Ra1M7uspBwcvib278H5whB2ngTlAAGn4dtWYVtWoFwa4A33lwF6CB+25+Eq7rWrWA0RRRsSGu6itwi3ZIeqCrQWYQdh36fVKkGCCsx2yiT9uV17wZ+YUKpUIWpUwOBTcLrYF6p45KfQyNWhXY5+DbX96Jr3/pRdQq5PKv4dcNP6y4/XJAAV/785/hb//oJ2hUq6g2x1BrV6KxHIPCdbddCsdhjyOWH+2+YK7atHKLobEuaKD9Qmg8l4iWV4KVJRNHAjEJ3jahCncR/1lXmyR076K5vu/mH+LLt1oeUnTICvZI+I6uAhyHv1kabh0CH1u9NMrDhulXIW2rrlb9Gp06qs0q6tUKOrs7WHTGYjSbdbyy80UuE9bkyPcAct2YFLi755cU3ZhBbp+hYpIYZ1TObsxg14yPGa3E4AqzCWHFF0XINcxEWuIwxHFvWojjy4tQq1RRq1dRaY4h1LTZkBARloJFSIpMGsSDBiEiThubkvZ1DM073b//1093Ebohddl4xFEqtSY7bYSkUSY77yhPAfGufSKu7bjmtoujADKsgQHINluEaIFSHF2T0zuuS3U0oYNJ6G+0axipH0K1XkGtTZtN824Wv3vH75q8qPGBQIeotGmDTrUyiq/9lxfx9b8kf62C+9Y+SV9kJ5HtfUUp3BfbLMkjqE97zG7I6D/cJ0WKIwA/QhN5mh66+1/gV0cQdBrwec9Fo1NFtVFBo1bB17/0Cr7+ly9SYg18/Us/R61SQaNVR8OvG665fuNlhhAXzTsB9THKY6w1hiCMeJbSs2s/RcoApYhnjDDYDxq9lSSyvwRA5i1OJOAbyw+zvMbxBkQIZpNBMTsxZnUsnFuc36NUEVPhOArXbrgUgMaf37YtWvWDJqHbXM1/+SXg/rWPw3EdKtsis9/pZb+NRCUSnUseR8ZQbVRQq47hlBNOw8I3LSKnApUaTj35TGiZc/glQVkbWaFhzBOBVNA+PCYyuqYJM1hUL8w5m+1eOAy1zBxmtCKDKUwpsmE+n+2XiSxYKAOgdQBAoVwo48CB/YBLO7UdseO2CJvs//gJ52VOs6teNCaJ+7hz1RYoRC4Ak3cZhgFOfssJZHvNS6akgYk0L1psCGVHfBgi0BRY5i/7bNCUCSUZLt0I3JrIVGu+L24rQ7SOoq1MZj6iCSR5A5GWWsFzMsh5OYxWK4ADuK4DV3nW9YRm0EKtVaFNqqNj+Naf9re/fvbhXVh66WIzwYmW6/61T3UxTToRCJJPWYoUCfAjMt6T8i9PjOINy0pQnosQAWrNOhqVCr7xJ73teH/0+AjOXFaE47mA0vBUBlqHWH7FaVh62RJorVEqDOHgwf2ACwQqjO2XEUR1ipj3sLbDCrjgF+NcR3RNL+jkpSmSToyfbompQExL6XmDuvE6wi4LIa7zWONOrDZeC1Jpy684Ddu+9zKWXraEDohga88fEIFeYdkVp+Lem3+Icy9ZTMmFfZXCuZctwdLLT8HyK07BM1tfAxQoXHuPuacVtlBtVWiT6mgFpy95A6rtCurNGupjFZy6hOy1RWFEgnbE1UoB9974g1ieKfphBiefGSxqPMxZzbaNiBKOMma0EoMpTASwO1duZc0G7w6Xv+xNIww1Fi86GbX9o6jVKhhrjKLeqXEAAhYqlYNbf3tdPPBNrLCo7+Rurt94RczXtgZNAKAa4J6bfmB+GxDjEeUpXlLkCYCin4mrQFsD3wPjzQNShkP3Zd9LzyVJJVHIopDqtMxrkhjNzeLjTsRxxQXIcshmmLvVqHVqqDbGUK2OobJnFN+2fKH3w4O3bjfXa63xwPqnu56XVNC2YT+F431SvG7Bj8DhnoKv/9cXUa9VUWvUUB8d6ytoA5Tf17/0IqqVMdTYCwlt6JY4APT9pONPRm1fBbVqBWP1EdTbVYSgNCL3kuAXhXQfF906AAMN2lBOZfOqF9808auV1tJsG89Q1sdxFDavedRclBRue0ITb31qrWWKwd5INCt8AG0EbUDBdenl48u3bY8EYEcBxoadOPvq9Rfh2tsuMYqIKDfi2UpjDLVaBZW9ozj91DdFgvYoCdrKCNqRW0aZ1xxH4Z4b4oJ2yrG9MINcOoNFTQTHhLAtmBXtOqMdPJjChCTuWvUokx9v9GZiIvIiol1y8mlYWF6EWqVCQmGrgjDskHbDdXHzX98K13WjICxKoRXw5soJcC9A6UIAd61+BGBh39y1Eh0yZ6Y17r7hMeM/OzkBjAcKdNAfCtGyoV31ZLZylu4X6IQdVNqV6FrZVc+Z0O94Rn7oo9IaQ7U+hurYCJydDv7ugb3m/OHw5Vu2A1C0Scp+RuIrrSkmBRlvE/2kOOZgKQj64ev/5eeojYzhm3/WfwXKQANf/+MXUa+Mod6uY6xVASQ2AEmz0GGIk085DYuGT0RtjHi20hqz3LASryoRAB0Xn77lPb35lY9FpoLR46oRYvPqh1k5YXsVYXRJ21GsgahB6Mv9a5/A3Td8HxrAnau24s5VW+kckfX4kDINL7L5n/FSEmXAUwr7zAb+/LbtvFHUhcsKjsiWnYXsHjxba4yhNjaKcGeIM9/0C3yshtrImNFoy1Ui6NM8SHy+ORW0D4PDjZppxAwWNVHoY03Yxmxq5xmtxPTftRG4Vz+Ku9c8ZrSkYAFW4p5rnhi+8aWXUDkwilq9grFWFU2/DmgdRT9jDYOjHHhuFgpAo9NgH9396q4BHeLOlVvJP6wGPn7DcsASaM2/SliQclMcWc2GcuIbCA3Y9eB4MMqiZFVlopF2YUj9XMdFIVtCvV7Ba7tfhON6bMctbgAdI8RTIZRHO/RRabRRHRkFsiUUiotN3v3x/7d35sGSVXWe/5675fa22ikoitoCC4RBsQXthUWlh4EWI9qJmHBiOibogR4BtWMiZoLFVjZboEPbaMeikFXtsJuZjjYUBAoCQ3DaVlZBGxegqCqKKqrqLbnnzbue+eOcc/PmfZnv5XsvX957M8+HONR7+TLv/f1+mfd3fvm75/x+4nPAxre+9FL7X3vIzEn6Sfv7sbQhSSz8LVroXXp8z9HoQ92hwCNfOwSzWkVezYUCbXZnMXw77OSNW1GZKaNer7CusU4jqFbEGrCw1uKqquKav/6jVnDLx2fuvBifuavVPZFli1lfgj03PANKAddxgi647QkKIQfzU/f81b/w30NBOQUgkiGhjzOlfC8OjXzbb6nWNUBlx2LnuOevRCt25mNbSzhIEHA/9KUXoWk6qwalaCzwFhvWRZDMz2X5LupNB7VSBVs378Lms7ag1qyg0aiiPlPB43vexT2fF3qKOaY1WFa7PYzqosaIMkB/NsBTLQUhEtn++/8xgeL1h9B1HC8DFaS/JyOEFeyn3OczXykcK3uQldFj/MmfbYWygSCbzyNjZJHVstCVcD1ZkfEVM0AXKLtyWHk9H57b6iwmIESBpmvckbLNQeCdzPZ+/if485vPg+e4QVZEURSoqoqHbn+xdZ6gxnd32BcN1hadej48zwelXmATkUUhCoGqaFyO1mv5D7wCSXsNWfCJAmAZcA8+8moOFEDZrqFWb8Cd0UAnm3jsq6+3vxDozbssEhhIRomFPumSJcPN2Q+rXn3b+YFvZSVFWd1ooihQ1Va2FoTgnV8fAtZT5PIFGEYGOT0HXTFa1zlPdCDkXwIpA5fEfKw459284c2Vn/9A64s/UZhvU1nASnhyAGA+1eXlVMXeGEpZzZGH/vql+U6H50RaiQ3+AG3JwpYotvy9WMLI9uYQPMDnmuvuvKhtWQrlG9ppuAkOpa1zBHYgcKkD13eR1/KgAKpOA6VqBUf+7Qh2f3A7TLMGc4aVVA3Lec2X/yhiS358rujdN/CGQVG9R5IBG2HAp+uFqEhDl9kOwy7fBDBQIfqr9VW3ng9Q7qj4YQlhTi0aaAPAD//+bTzyt4dQnS6hVqui1qyi7tTgU9ZCfPFAW8jPy+PxVr3gt+7Y2mc2VI2VimKbI1tOkCgE//32PwABf37odYQQXH37h/GxS3cBPWS02+BfNChokHQSXz5qTg0ls4gTlfY11SL7wmQnUIja2szJh+d7qNs1VM0yTMuEQ10QAHk9i2w2A2+83iHQ7u19pjLQlrTRur7koFHjLB1+mJUe6epbzw+8BURgGKzBBsA3gots6qPfPYQtm7ajMl1ka7nNKmp2Db7PfEcr0BalSrl/5IFtONCmlHfV5YE204UC4GuSw2UFwd03J3Dn/Jcg9OxkkKid2qaA1l+YumztNdNXZKQVXHXLhwFeLztM2G4sMOdfDLjcClHgUw8Np4qqWUbDbsLhy3ByqoF8NodNp29CvVaB/a4VCrTBBefLJ8XZiDgnl1v800nvkaGP11WvDPh0vdBNpKHObIdpu67jZOCCrOyEV9163rxjiExINNDuxOWf24JsIY9MJouMxjLd0d30LYQ3ppipz0AlKsaNCdYsweOln3yRTmZLNBRVhSZqWXPfRylrzy7aBovbskRRgs2K4rVsAlnYRmxCYhuHXM/lmRxmAwKCkjUL3/Pg2jbsio2nvj3TMVtOA/0YHnXRdJuwnCYsq4l6pYr8xCQK+QImMpMAgIbbRMVsoFqq4qlv8JbHvRCd2CQSSR+IXtUhWknUZcEaTzEnxsroscdN38JYdoxlmIPgmblB5osJDr3zBrJjORiZHDJaBlktC03VWReakFDBXckg0ObD9+G6bPkIfFYqtJVRbwWvohIHSzKwLLTv84Zh/DgUwLfCdw8jkHCSgydxKN/wGVSP8n1QfkzxPEVhS0G+KZav8GUxnWjpCXjUQ9NtwnYsWLaJZr0OPV9AITeGyewECAjqbhNVs47ibBk/2tteUjXMtXex/hMKCMTOobuvbwX+oxlsx6B0DKdcjMVEUtecesYtK3MR6SIRmg5ciOWf8OVnjuAXzx7BuRdtYdMA/4bfS6ANAG88V8H27Rk4ig0fHhzqgcIPKpTMh7ndnJ6DoRrBpMA+yq11ciCApulBtjpo5cszDuy2orgAmMyEsBJWYgc5IfyWKDdP16CbH6hkFmEoQib2fKIQzLzzLrZs2YE1E+uxdsNGnHfJDuy54ce8BXyrvJbIcPvwYbomGnYdDbOGRq2G2tEynnpwBlvPMqBmdBCFwFB1GIoGn3igBDhl1zgOvFJsE60To+nwJZI4CZxINy+yMAQ4/xJWblWkiwkhOFE8CqiADwpN1aCScKKidaFPTazF7JsnYBMTPqFwwRp5qYrC6nAHSzXY61o+gn0r9ylb900pKxfKltyx4D5ISoTK/okkr/CxhPLjgmWX33fB5q5t00FCJVYjxhIBu6hqBYgst5CH4Lw/3oEXfsRqlj//dLuPDV7D+y2YromGU4fZrKNRr8KcrmHHzjNx+MBBGIUMiEKgqzp0RYNPfPjwcfLOAg6+Wo4eEgAvi8vfJzLygXYMCsdwyl7oRaxQne1luYhUkhhNBy7I8k/48jNHcO5FpzAnRil+8ewRsbpj0cPuvmQ7xqbGUT48DY84cKkHlzrwqQ9NYcsqwrTmAR5gs3CZB6tAqTkH27NhexYc34ZDXWS0LH8Rez4BaWu2wyYLEeyy0lHidqpCFFg+O57lWXjp+7/GqWeGNiRS4OjsITiOhUJmnE9QLNAmioI16zew8lOUHQtgNWyjk4BLXTScBhp2jTn/WhXmTA2P33MMb/2KVWjZ/2IN296Xhapr0DQNKlGhEQUu8WF5dex/vvMkAATzpkQiiRu+pKInCHDtHRfwn4WfAhRVRSE3gZnjxwGVwicURAE0le0LaQW+bExuXIfvfvlX2HKaAk9x4FEPLvXgweXJje4SMX/IlvkRvuyuldFuBdriv7bXBiG3mA8ICBT84tku1VjCwXaEvTc9i3Mv3hpkpglPpCgqX4LHkyvnXbINLzx9sGNm26UuTNdE3arBbNaCIHv79t1Yu2EjfOqhMFXAzPQ09IzOvsQoKjRFgwcKT7Hx5s+7JzVeePogzr9kB/Zc32q+NlqBdgzKxnDKXliKWB2a2nS/IIeNRGgaixDLO+nLzxzB+y48GQ/e+kL0TwsG3e+9eDMyho6TNm3G5PgaHH/rHSBfgJHJIMMzxbZn8UC11RK4laEmYGVTWTnB4wcPw3GacBybDwsThTWtE/IDzNVn0XRNZPU8nyjYHxVCUKzPouk2YRhZqESB5dqoNopoWg2c8YHdgQwULCgv/W4Wm7ZuYQ8QAqK0MkBigmKbhyLGoBS2b8N06mgI51+roTFdxeP3HMObrzTmXbKbJlSoawlUXYOhZaAStvbQJxSb3qPj4MvVtufLIFsiSSBBlruLYwT703V3XMh+5MEw81XsS7tCCP7xrl9j185xuJoDn1B4lG/2JmqQYaZ8dd0HP7oND3/t13j9uQq2btdAxsZhGBlkVR0UgO02+d09EgjImnTx4J2wTDJ7jgi0RWAvgl/mm3k6m/8b1pHdSTxXNJKJ0iXYphR48UcH8XsXb+V+lvlaRfhWhUCBuJMpjsE3RoLC8W00nDoaVoPdMaxX0ZipYsf2M7B2w8bgPB710XAd+ESD1awzP6tmoIB1/fXgY/N7MzjwYqVNvjDPP30AEJ57ZJxvDIrGcMpeWI5YHYJtwQIOYshIhKaxCLH0k/7i2YVLWoXjTAD4xOc+AKNAkNN06KoGz/dQtD2MjWeR0w2oUGD7FqqNMqvGQdlGHZWoIafO/hXB7doNG7Fu3UlYM7Eek2Nr8fe3v4IX2m4nssxQwSjg+LHDWDO1gTtoHnATIG8U0KQedEVltxBBYbk+Tpo6mR+hdUHtvekZXPyfzwlNOGzSYbdo2XFFRps9h8L1WXbFdOowLb5cpFKFddzCY/e+i/2v1PnR5/P2WyZO2kmg5zNQVAWGqjO7EA9QVazdArzzmgnwCUoikSSUIOAOPRDiurtYubogakbrKYQQ7L2JrU9+/dUyfvezEradrYMqPjywPSyqovNgmL1GIQQf/Ng2nP+x7ZhzPOQKBvK6AY2ocDwb5UYFDg35WUVhGzHFqYON2/zOXTjQBisryH8J+XrhF4V/5dlxouD3PnIqXvrxYf6ilm6dgm1CgA98ZGvgp9kxeJadsOx6kJ3n/3i+C9PhS/KsOkyzjka1iuZxEzt27ca6DZsAAK7voGHXoKsG0xlsOXt1ugTVYHt5DM2ATx0QeKCKgk07Mzj0aiSxMXI+NyZlYzrtYqxELLL99z+5wOvbHcMwkxhNBy7I6pxQ+OArrj8HGcWEZmSgKRp01cBMpYqxQh6TmQIIgIpVxdzcDDSFQM/o0HUDqqqztXSqAV3RQwcWjlgJ1o+DAntu/HHHyiK+7wF8TSLLAId2lgtHzmcONqm0bpKKC0NsVvJEB0qedRFysJmOwqMuHM+B49lwXIdl3S0Ldr2Jfff23pBGcNnntmJiahIZPcM29pgNNGcb2PfQca6LRCJJA+FYmj+Ca++8EMxztK5kcSePgmLvDa2a0mE+/menAutb5VVzRhaGmoUSuhMIAIdmjmFifAwTRgEKAarNCkrVEqjrwMgYUHUDmmpA1zToSjc/y44lfGQUsdyDBi3emb9kD1O2XhwUiqLi7pue7bjsAyEb0OD1Ie9GACIy2qDwqQfLteF4FvOxrg3HsuE0mti5871tc5pPPZiOCcsxYTkuJguTyOs5AEDFbqDWbKJRnMHk2jXIGllYtgmr2YA528C+B4+3ZOCyjQ4xKRvTaXthpaItEmwLOlxlQ0oiNI1FiNU5KSHApf9lI9QpDUYui+oxBeOn5jCRz6Og5eD5LuZqszh+5Bh+8u0irvjUVjgTFvR8BnrGgK4ZUDUdmqJB4wG4StRWloUH0N0mA1De2Di0814gsjaEZ8L5/8KvDmCt6wEqmvnw/xzfges5cH0HruvCdR24jg3HtECKBI/9Y5dNQj1yxf/cAUPXYdZqeIx3pBstpy+RDAnzXBQLuMU03hZgig6+C/AfrtqEzFQemVwOGT3LhmqAgODVn72B9WeswWQhj4KeY3cUGyVUyiU88fXD+MSntsEab0DPZ1jgrRnQNLZ+WVeYn2VlSlsSt9IQ7cwLlKOZAAIedIt2590RNmhtkGSVWRzqwvMc5m9dF45jwXUcWHUTtEix/ZzdUEWvBUJAeQUSy22i2WzCMhsgqo58oYDJ/CR0xYBLPVSsOmp1E55VQy6XRbNexw+//k67TMH/RoGYFI3ptL3QL9F6DLbRNQgZRhKjaSyC9P+kYf/67z+3C5NrxjGZyUNXNDScBmaK0yi+U8RP/2/75r+Pf+pUuBM29HwGmq5D1bRgQlBVtnlQVTRoRAvtlI/Cd9uDZbTnBecig4OwoJHjUB8e9eH6LnzfheO78HwXnufB81x4rgPHceA2bJAKwcm7twVZ9/tv/nn7sZbIZZ/eCt+xse+BY4AMtCWSdNMh4L7mDt7pEa2ZfbFAO8xl15yE7HgeRjaHjJ6BoWVx6MgxTK2dwFR+DAbRYLoNlOtlHN3/Lt5/7rmBI6EAjr56ENaECS1vsLuKOktsqCrbNKiqGjRFh0o0qF0SEm3ZeT8Iv4MAXSQ2FoJSCo96bHAf60b9rG3DMW2gApyyezsoBVSVbeRUePdMy2vCci1YdhOWacIumtj30Al89IrNmDxzEoV8HuOZCShEgelZqJoNFA8fg6pR7LuP+dmWTG2/DikxKhnjqRej36ItIdgWLHzBDBOJ0DQ2Ifp7YhbMAp+48WyM5TKY4JsWS2YZxeIsnvh6aF1fB66980Ls/81rUAs6tKwOTdOgqK3ukaIGq6qoUAnvKMmbMgQlBoNPemtqELdswVure74Px7dZbW/qw/M9UN/jdbvZ777Ls9iWA6/h4rRdp7MgXmTPxa1g3w86ni0LuVREIhlK2uNOgmvvvIA18CIkEmjTnn3xZdduZrW2s1nUGi6mJiYwmRkDAVBqMj+7bfMOEOEKKdtVKUqrihrZB373G6gFDVrGaHXo5QkOsTGTbQxn7dAVEtq4KI4edVwhFVSiwqMeHN9m9bQp96/Uh+exzpGe58H3XLiOA8924NZdPPXtWfzFl/4gKA1IqR8kTSgoW4vuu7BdG3bThFUyse+B9uV7H7lyE9afsh6F3BgKegEARdUxUWuYOPBv+/HyD2qADLJXnxhPvRirJdoygm1Bbw5gGEiEprEJ0b8TX/6XZ6EwqWEsm0NW0eH6Lor1IiqzZTz1zYU3Xl5zJ9uxD76Mw/c9HH5tP7ycCzWnQdXYICpryd7aVMN27Ify1wzS8qgUFJqex6QxBh8UJbMMq1kD9Vx4ng/PdeA7HjzLg9JU8MQ/tDvwq2/7MDtOyEOHb6U+cMtzweOL0mGekkgkQ0gky33tnRcGLb8Xp7tf/uh/246pk8YxkcuhoOfgcD9bmivi9NNOB9oCClFzm2LvTT+Z53+uvvVDOPrbg3BzDrSsDkVnzcBUVYMiGt6ITpcQ2euWbEFgDwCg0LQsJjJjoBSYM0twrRrPXHvwXQ+e48JreiBNYNc5Z2HPjayO9XV3XAjP80D53hlKKSDWdvONlLONGbiWDats4skHp4OzRrn8L7dhYmoS49kx6KoBn/ooW3U0TAvfv+NXIxBox6hgjKdejNUWbQXBNha84IeNxGgamyArP/EV15+NsYKBSaMAhRDU7BrK1TJOvHYCP3u8e5kl8Iko2IwTanogHiM8Q3PfF/4VV/ynU2HpJqBREJ237FX5Gu8g8BYBMQHVMli3bh0mM+MAgFKzglK5gsf+9s3g/IsRDbjZ/MV+XjTYlgG2RDKyLLK6okfYQS7/r2fCnWpiamoCa3PjUImKulNHqVZCcX8RO87ZgYxmtDXHEQEr/wV7bmQB/1/c9mHmZyllToqwWtesBjfBkVcOwNKb3M8SEJX52bZNlcLPAqBaHmvXrcFUZhygQLFZQbFUxI7NvJlPGCETZc0cRNadZb59UN8L9s8Ijhw4gH3f6R5kh/nTG96DQr6A8cw4fOqibjXQtBpoWAp++JXfRJ8+BMQ8w8R8+oUYlGgrDLYFffEWqSARmsYuxPIE+OT1O1hVEs2ArmiwHAel4iz2fWPhBjnX3nlhELz6vg+ABu3SgzQEz6jc94Wfhl+6IH/86W3IT+homg6m1k5hbW4ShBCUm1WUq1U8+pXXoy9ZkKtuPT9QYMFgW4je/qhEIhll5q3nXjqXfGYH8mM5ZDUKXdehqQYcz0G5VIai+Mhkssz/amwTpKEaUIgGIoJuHhz7PKhdKNhmGW3md3vhwNG3MTE1jjW5SSggKDUrKFerOG3jFiB0lPl+kcL1HLbh0WliTBtjNzipD75vHQDw4G29L9n72JUnYc3J61DIF1qVnoo1PH5vewWS9DPfmgMjxlP3wqDF69Qvexnwi3EESISmsQuxPAH++a63UD42g2ppDrVGGbbThNtgtwYhjhry7eIUd9/wLPbe8Cz23vgTfPPz/wIWb/vznriUQBsAVKoBRIHnsJJVrG4JuyWpqr1NIO201n8LgqUlXEzKs9hLt55EIhlq+uAfcoUcxvN5lI/NoFwqolorwXEc2HUbj3z1bZQPz6I6N4tKpYhKvYSyWUSlWULdqcH2bXiUlUpFeEMjpSyo5ftREGwwZ38X4XZ4tLRoaWJbDkBEZ1/K1n2H/Gz42R51YblN1O0qSuYcivU5VGpFNOrVUPOwVn1xQoA//+J5wbEW4+mHjqFaKqPRqKBWLsM/4g1RoD3f9gMlxlP3QlziLdDUZrksJ0hJJ4nRNHZBehfgzZcb+N3PK9i5NQtbaeLJb7bv/u5E9DbruRed0rpkAr9C8XKnbmULcNb7t8AsH4cLDbnxHDI6Kyvo+i4s18HGCR2H3mAbZnrh/Red0paeYctUfLz/gpPx8iLNgCQSiWQeS8h2X3rNbmTHDBQyWWxcfxIK+XGU3piFRevYdw/zP/t/2cDrz1fx238t49QdhPUE4MN2bdieBcdnP+sK6zopnGxQJlWs0+ZrpTvBnxksJQGA2ZkicmM5GLoBlShwfQ+262D6rTIK6wzYngXLa8K0ebddqwGzWUejXoNZrsKbdrHltB38BKy/gvgRYKnDjh0rQ4jcBwC8+XwFW8/U8Ng3juC3vyyFn5ZS4gghQ8R8+l6IU8Q+ZbbDxPW9YfAkRtPYBVm6AI/+w1E8vmfxQBvcQQYZb7AJKHhsWWdnfP/+X+LJ78zCrTus7JTP7kkqCislZWwwoi9ZkAduea6DMPOz3RKJRNITId+3mBdRc0BG12Hw5jS2Z0M7NQfNHos+FQDFk9+exmPfOIoffPUQ6EEf5XenUS3OoVIuom5WguAawcZHJkPDrsPyTB6Ysx4DQck+PlzKyva5/O8Ahd9gjW9YZpuwfgkKQZPUUaoVUa7NoVKZRak0i/L0LMqHZ/C9v9mPrSftwvbtZ2Db2e9hXz54J0nCN8HzB9sC+yht80eIJ+7pbQ5KLiuZAftEzKfvhSSIuArBtiAJ6g2GxGgauxCrb4mrbv1Qq7FMqFFNdLnGUsSY8taDig5ovDSVQgh8hbU07kh4Egw5crZLPvyvjwdveyn6aolEIlkaiwTd2XwWuqpB46VOLceC7/l45P43ok+dx/cefgtPPjiDH/7vozh5w2nYNHkyILLGwXIS9r96s4xidQ6l+iyKtVkUG3Mo1mdQasy2Rn0OpQb7W9VuwKc+zjhnFyAa1hCe1CAKFENB+cgJmAdq+N7fHMCjXzuMx/cew5PfmQEosOeGZ5gMBCy45gE34R2A+feBeXtjKLoH2elniZPcapAAERYjSSKuYrAtSJK6q0siNE2UEP0XhFI/qDwCsF3q7HFWwip85mgwHDjeiHiP/NNrvM4re0DcItVzfMd+h2N00kw49QdufQ4P3vo8HrjleRloSySS/tLBD13+P94LXVdhqBpAWFbb8z3Uy43Ii3uAIsgWt5axEFDCGtZ4B100DpdReWcGpaMnUHr3BErHp1E60Rrlaf7zselQIoPC8/wgqSF6IKg6wZPfmsVjD3frttseMYuAW1EU3PvFn+GBm5/DAze3Am3h+zs66VQTmbjiIgEiLEYSRexTNZJe6X6bZ9hIjKZDJsjVt32ItU6ngO/7IIoC6vt46PYXw/54SRACfOJ/vQfj42MwFBU+9WA6LsrFMp74+sHo0yUSiSRR/OlN/w4qmtANA7pmAFBQLhfxg6/sjz51EQg+/eU/5JEKu2MYrkoSzR4vxsc/eyYKazMYzxaQUXQcLU9jLJ+HRgCf+rBdD8W54qJ+lrW1D0HZlEIB7OW1ybnIQ0gClEqACL2QZDEHkNkOk8TvG6tDYjRNnCArE+a+L/4c99/8PO6/5XkQosD3PICQZQfaAMuCeJ4Hy6ygXJ1DqTKHZq0IVVWjT5VIJJLE8b07fonG21VUZmdRrRTRbNbg2Assg+vCp7/8h9GHWJ8CcEe5RLJeNugOSUHh2DbMRhnl6hwq5Vk0qnPQyOJyzjtzJHczfJns/syXKyYBIixGQiy1KAPObEfpT7YzDSRG08QIIkiGQJdeuQ6wCca9tfinh5dWX1sikUgSAV/2cemVGwE1iyfuf1s83BPX3HEBAIT2wFD4lOLeL/x02dHMJ286C+OFAgpaDm/+9leATTDmTuKf/8/Ssu7X3nkhkyFQhv1w9w3PLOd7QAJJkBIJEqUbKRCxjQFntqOk4ftIf0iMpokRRCAEileofQ/NYt93Z2SgLZFI0gtf3vzEgyfwxH1vB641usa7G6LlOqtEwtbYKYqy+AsXwA/2wxDs3H021p2+FY1NSz8g6yIZVmLpx0gm8c9/AQkSpRspELEjMQfbgrSab+kkRtPECBJGCJU4wSQSiST9RALveZ5W4dshSahpTZda2r3C2quzTZGilKCemV9WlSIkW2QEz6GUbdQEAJAUZ7UTNNclSJSFSIGIC5KQYFuQdnP2TmI0TYwgUVLiASQSiSSNcPcqgtXr7rqY/RAKshVeRnAl+B7g8ZMQQqAqSquaYDigXsDVU8o2VN5z0/9j3YRveJYF2tEnJpqEzWkJEmUhUiLmoqz8SloVhsW8i5MYTRMjSCcS5qQkEolk6KCh5dCh0n+hzHY047zYANjmcwqKhlND1SoD1IWqqkv25vfc9NP5x1/qQQZOAueuhInTjZSI2TMxb5DshZXdwkobidE2MYIsRmoElUgkksQSXS1y3V0XgVK2ARE80F4Ol312JwrjCish6HvwXR++5+LRv2Mt5IePZRpqNUmgSN1IkahLIgXBtmB0gqrEaZo4gRYjdQJLJBJJIogG3csNsgV/8tnTQacreOzhtLdGX4gVGmm1SKhYUVIi5opIUbAtGJ1AKnGaJk6gXkmt4BKJRCJJJAkNnRIqVidSJOqKSeia7YUYtpU83UmcpokTqFeE4OEhkUgkEslSSPAcklCxOpEiUftGCoNtwei8XYnTNMH+pnfCSqReGYlEIpGsCgmeIxIsWidSJGrfSXGwLRidty+RmiZSqOUS9lxDpZhEIpFIeibhc0CCRYuScEsOjCEItgWj83YmUtOhvaLCig2tkhKJRDLiJNy/J1y8KCkSdSAMUbAtGJ23OLHXXmIF6ydhJUdCYYlEIhkiUuK7Ey5elJSJOzCGMNgWpOAi6iOJ1XS03oYODnzkDCCRSCQJJSX+OCViClImbiwMcbAdZnQ+BonWdOSvyLABRt4YEolEssqkyNemRMwwKRM3RuioBNuC0floJF7TFDqW1SM6IUjjSCQSydJJof9MkaiCFIocEy1LKaNptdFROhVuJxVCxkXYONJQEolE0iKlflGKPOTMt1Qrsz2SFpxvkGEmFdqGr+jECxsnUUNJg0kkkmEm6utS5u9SLrakF7pbq30ZSffnDTmjpXiqtE2pg4qPsMGiQyKRSNJA1Hel1H+lVPyUih0TvVmr85rtxV83pPRmtGEhddqGBU6N0EkiakBpTIlEEjdRX5Ryf5RiNVIqdkwszVqdg23B0o41ZIyW8qnUNuzUUqlAkogaUhpUIpH0k6hvGSIfk2J1Uix6TCzPWgsH24LlHXtIGC3lU69t2HOkWpGkEDVodEgkEkmYqI8YUl+RctVSLHoMrPzN7i3YFqzsXClntJRf+UcrIYQVGRqlkkTUsNLIEsnwE73WR+S6T7maKRc/BvpnraUF24L+nT+FjN7HdSg1Dis1dMolhaiBo0MikSSX6PU6otduytVOufgx0X+LLS/YFvRfnpQxegYY6gs3rNxQK5oUooaODolEsjpEr7VOY0QZAjOkXPyYWF2rrSzYFqyefClhNA2wuh/NBBFWNDokq0jU2J2GRCJpEb0+ug1JG0NimiFQIQYGY7X+BNuCwcicYIbkil0Go6l15C3vNCSrTNTg3YZEkmain+duQ9ITQ2S2IVEjBgZrtf4G24LB6pBQRtMI8sKPEHXq0SEZEFHDLzQkktUk+nnrZUhWxJCZc4hUGTDxWW51gm1BPDoljPje3LgZMv+2OkSNFB2SGIi+Cb0MyegR/Qz0OiSrzhCafMjUGSDJsNzqBtuC+PVMCKNtiGR85FNG2GidhiQhRN+YpQ7J4IjafrlDkhiG9K0ZQpUGSLIsN5hgW5As3WNEXkLSAn0ibMhOQ5ISom/coEacRGUZ1JCkmujbOWRv6ZCqNSCSa73BBtuCZNoiJqQxhthvxk/UuJ2GZISJfhgGOSSSRYh+ZIb0YzPk6g2A5FsvnmBbkHz7DBB5uQlGwLcmi6jBo0MikUhWm6jfGXLfMyJqriLpsqCSCGETIEKySNeHaLWR1oiZ8Buw0JBIJJLFiPqNEfIfI6buKpBeC4Yy2wlQIAEiJA9plDAj6J/TQ/TN6TQkEsnwE73uR9gHjLDqfST9FuywjCQBSslPZwekUToRtoq0TgqIvlndhkQiSS7R6zU6Rhhpin4xXFbsEGwLEqJkQsRIFsP1Iew30tkNAdE3caEhkUj6R/T66jQkbUjT9IvhteQCwbYgIYonRIzkMbwfzn4RtpC01BASfXMXGhLJKBK9DhYakkWRJusno2HJHoJtQUKMkRAxkslofGj7QdRZSouNCNE3vdchkSSB6Oey1yFZMdKc/WT0rPn/AWNvZBryKdBAAAAAAElFTkSuQmCC;" vertex="1" parent="2">
                    <mxGeometry x="410" y="30" width="280" height="183.62" as="geometry"/>
                </mxCell>
                <mxCell id="42" style="edgeStyle=orthogonalEdgeStyle;html=1;entryX=0;entryY=0.25;entryDx=0;entryDy=0;exitX=1;exitY=0.25;exitDx=0;exitDy=0;curved=1;" edge="1" parent="1" source="3" target="2">
                    <mxGeometry relative="1" as="geometry">
                        <mxPoint x="300" y="78" as="sourcePoint"/>
                    </mxGeometry>
                </mxCell>
                <mxCell id="44" style="edgeStyle=orthogonalEdgeStyle;html=1;exitX=0.75;exitY=1;exitDx=0;exitDy=0;entryX=0.25;entryY=0;entryDx=0;entryDy=0;curved=1;" edge="1" parent="1" source="3" target="13">
                    <mxGeometry relative="1" as="geometry"/>
                </mxCell>
                <mxCell id="3" value="ソフトウェア" style="swimlane;whiteSpace=wrap;html=1;" vertex="1" parent="1">
                    <mxGeometry x="-260" y="-20" width="380" height="390" as="geometry"/>
                </mxCell>
                <mxCell id="45" style="edgeStyle=orthogonalEdgeStyle;html=1;exitX=0;exitY=0;exitDx=0;exitDy=0;entryX=0.5;entryY=1;entryDx=0;entryDy=0;curved=1;" edge="1" parent="1" source="13" target="3">
                    <mxGeometry relative="1" as="geometry">
                        <Array as="points">
                            <mxPoint x="290" y="580"/>
                            <mxPoint x="-70" y="580"/>
                        </Array>
                    </mxGeometry>
                </mxCell>
                <mxCell id="46" style="edgeStyle=orthogonalEdgeStyle;html=1;exitX=1;exitY=0;exitDx=0;exitDy=0;entryX=0.25;entryY=1;entryDx=0;entryDy=0;curved=1;" edge="1" parent="1" source="13" target="2">
                    <mxGeometry relative="1" as="geometry"/>
                </mxCell>
                <mxCell id="13" value="基地局" style="swimlane;whiteSpace=wrap;html=1;" vertex="1" parent="1">
                    <mxGeometry x="290" y="700" width="350" height="390" as="geometry">
                        <mxRectangle x="260" y="560" width="80" height="30" as="alternateBounds"/>
                    </mxGeometry>
                </mxCell>
                <mxCell id="48" value="" style="shape=image;imageAspect=0;aspect=fixed;verticalLabelPosition=bottom;verticalAlign=top;image=https://m.media-amazon.com/images/I/519-CQdsB+L._AC_SL1024_.jpg;" vertex="1" parent="1">
                    <mxGeometry x="650" y="760" width="260" height="228.5" as="geometry"/>
                </mxCell>
            </root>
        </mxGraphModel>
    </diagram>
</mxfile>